<ttFont>
<head>
    <!-- Most of this table will be recalculated by the compiler -->
    <tableVersion value="1.0"/>
    <fontRevision value="2.01"/>
    <checkSumAdjustment value="0x6b0a43ac"/>
    <magicNumber value="0x5f0f3cf5"/>
    <flags value="00000000 00000011"/>
    <unitsPerEm value="1000"/>
    <created value="Wed Feb  7 19:23:11 2018"/>
    <modified value="Wed Feb  7 11:23:15 2018"/>
    <xMin value="-403"/>
    <yMin value="-581"/>
    <xMax value="1742"/>
    <yMax value="892"/>
    <macStyle value="00000000 00000000"/>
    <lowestRecPPEM value="7"/>
    <fontDirectionHint value="2"/>
    <indexToLocFormat value="0"/>
    <glyphDataFormat value="0"/>
  </head>
    <TTGlyph name=".notdef" xMin="178" yMin="0" xMax="572" yMax="701">
      <contour>
        <pt x="572" y="701" on="1"/>
        <pt x="572" y="0" on="1"/>
        <pt x="178" y="0" on="1"/>
        <pt x="178" y="701" on="1"/>
      </contour>
      <contour>
        <pt x="516" y="52" on="1"/>
        <pt x="516" y="649" on="1"/>
        <pt x="235" y="649" on="1"/>
        <pt x="235" y="52" on="1"/>
      </contour>
    </TTGlyph>
    <TTGlyph name="A" xMin="19" yMin="0" xMax="410" yMax="668">
      <contour>
        <pt x="308" y="192" on="1"/>
        <pt x="121" y="192" on="1"/>
        <pt x="78" y="0" on="1"/>
        <pt x="19" y="0" on="1"/>
        <pt x="173" y="668" on="1"/>
        <pt x="256" y="668" on="1"/>
        <pt x="410" y="0" on="1"/>
        <pt x="351" y="0" on="1"/>
      </contour>
      <contour>
        <pt x="296" y="244" on="1"/>
        <pt x="214" y="606" on="1"/>
        <pt x="133" y="244" on="1"/>
      </contour>
    </TTGlyph>
    <TTGlyph name="AE" xMin="9" yMin="0" xMax="635" yMax="668">
      <contour>
        <pt x="411" y="617" on="1"/>
        <pt x="411" y="362" on="1"/>
        <pt x="606" y="362" on="1"/>
        <pt x="606" y="311" on="1"/>
        <pt x="411" y="311" on="1"/>
        <pt x="411" y="51" on="1"/>
        <pt x="635" y="51" on="1"/>
        <pt x="635" y="0" on="1"/>
        <pt x="354" y="0" on="1"/>
        <pt x="354" y="192" on="1"/>
        <pt x="158" y="192" on="1"/>
        <pt x="71" y="0" on="1"/>
        <pt x="9" y="0" on="1"/>
        <pt x="319" y="668" on="1"/>
        <pt x="635" y="668" on="1"/>
        <pt x="635" y="617" on="1"/>
      </contour>
      <contour>
        <pt x="354" y="244" on="1"/>
        <pt x="354" y="624" on="1"/>
        <pt x="182" y="244" on="1"/>
      </contour>
    </TTGlyph>
    <TTGlyph name="Aacute" xMin="19" yMin="0" xMax="410" yMax="816">
      <component glyphName="A" x="0" y="0" flags="0x0"/>
      <component glyphName="acute" x="69" y="100" flags="0x4"/>
    </TTGlyph>
    <TTGlyph name="Abreve" xMin="19" yMin="0" xMax="410" yMax="816">
      <component glyphName="A" x="0" y="0" flags="0x0"/>
      <component glyphName="breve" x="39" y="100" flags="0x4"/>
    </TTGlyph>
    <TTGlyph name="Acircumflex" xMin="19" yMin="0" xMax="410" yMax="816">
      <component glyphName="A" x="0" y="0" flags="0x0"/>
      <component glyphName="circumflex" x="41" y="100" flags="0x4"/>
    </TTGlyph>
    <TTGlyph name="Adieresis" xMin="19" yMin="0" xMax="410" yMax="796">
      <component glyphName="dieresis" x="39" y="100" flags="0x4"/>
      <component glyphName="A" x="0" y="0" flags="0x0"/>
    </TTGlyph>
    <TTGlyph name="Agrave" xMin="19" yMin="0" xMax="410" yMax="816">
      <component glyphName="A" x="0" y="0" flags="0x0"/>
      <component glyphName="grave" x="5" y="100" flags="0x4"/>
    </TTGlyph>
    <TTGlyph name="Amacron" xMin="19" yMin="0" xMax="410" yMax="784">
      <component glyphName="A" x="0" y="0" flags="0x0"/>
      <component glyphName="macron" x="38" y="100" flags="0x4"/>
    </TTGlyph>
    <TTGlyph name="Aogonek" xMin="19" yMin="-172" xMax="410" yMax="668">
      <component glyphName="A" x="0" y="0" flags="0x0"/>
      <component glyphName="ogonek" x="187" y="0" flags="0x0"/>
    </TTGlyph>
    <TTGlyph name="Aring" xMin="19" yMin="0" xMax="410" yMax="834">
      <component glyphName="A" x="0" y="0" flags="0x0"/>
      <component glyphName="ring" x="39" y="100" flags="0x4"/>
    </TTGlyph>
    <TTGlyph name="Atilde" xMin="19" yMin="0" xMax="410" yMax="806">
      <component glyphName="A" x="0" y="0" flags="0x0"/>
      <component glyphName="tilde" x="46" y="100" flags="0x4"/>
    </TTGlyph>
    <TTGlyph name="B" xMin="73" yMin="0" xMax="401" yMax="668">
      <contour>
        <pt x="361" y="322" on="0"/>
        <pt x="401" y="256" on="0"/>
        <pt x="401" y="209" on="1"/>
        <pt x="401" y="151" on="1"/>
        <pt x="401" y="81" on="0"/>
        <pt x="321" y="0" on="0"/>
        <pt x="241" y="0" on="1"/>
        <pt x="73" y="0" on="1"/>
        <pt x="73" y="668" on="1"/>
        <pt x="235" y="668" on="1"/>
        <pt x="315" y="668" on="0"/>
        <pt x="395" y="587" on="0"/>
        <pt x="395" y="517" on="1"/>
        <pt x="395" y="463" on="1"/>
        <pt x="395" y="417" on="0"/>
        <pt x="358" y="352" on="0"/>
        <pt x="320" y="337" on="1"/>
      </contour>
      <contour>
        <pt x="130" y="617" on="1"/>
        <pt x="130" y="361" on="1"/>
        <pt x="233" y="361" on="1"/>
        <pt x="337" y="361" on="0"/>
        <pt x="337" y="462" on="1"/>
        <pt x="337" y="517" on="1"/>
        <pt x="337" y="617" on="0"/>
        <pt x="233" y="617" on="1"/>
      </contour>
      <contour>
        <pt x="343" y="210" on="1"/>
        <pt x="343" y="310" on="0"/>
        <pt x="239" y="310" on="1"/>
        <pt x="130" y="310" on="1"/>
        <pt x="130" y="51" on="1"/>
        <pt x="239" y="51" on="1"/>
        <pt x="343" y="51" on="0"/>
        <pt x="343" y="151" on="1"/>
      </contour>
    </TTGlyph>
    <TTGlyph name="C" xMin="63" yMin="-5" xMax="352" yMax="673">
      <contour>
        <pt x="63" y="601" on="0"/>
        <pt x="148" y="673" on="0"/>
        <pt x="236" y="673" on="1"/>
        <pt x="294" y="673" on="0"/>
        <pt x="350" y="657" on="1"/>
        <pt x="350" y="603" on="1"/>
        <pt x="293" y="620" on="0"/>
        <pt x="236" y="620" on="1"/>
        <pt x="172" y="620" on="0"/>
        <pt x="120" y="577" on="0"/>
        <pt x="120" y="534" on="1"/>
        <pt x="120" y="134" on="1"/>
        <pt x="120" y="91" on="0"/>
        <pt x="172" y="48" on="0"/>
        <pt x="236" y="48" on="1"/>
        <pt x="295" y="48" on="0"/>
        <pt x="352" y="65" on="1"/>
        <pt x="352" y="11" on="1"/>
        <pt x="302" y="-5" on="0"/>
        <pt x="236" y="-5" on="1"/>
        <pt x="148" y="-5" on="0"/>
        <pt x="63" y="67" on="0"/>
        <pt x="63" y="133" on="1"/>
        <pt x="63" y="535" on="1"/>
      </contour>
    </TTGlyph>
    <TTGlyph name="Cacute" xMin="63" yMin="-5" xMax="352" yMax="816">
      <component glyphName="C" x="0" y="0" flags="0x0"/>
      <component glyphName="acute" x="75" y="100" flags="0x4"/>
    </TTGlyph>
    <TTGlyph name="Ccaron" xMin="63" yMin="-5" xMax="352" yMax="816">
      <component glyphName="C" x="0" y="0" flags="0x0"/>
      <component glyphName="caron" x="49" y="100" flags="0x4"/>
    </TTGlyph>
    <TTGlyph name="Ccedilla" xMin="63" yMin="-180" xMax="352" yMax="673">
      <component glyphName="C" x="0" y="0" flags="0x0"/>
      <component glyphName="cedilla" x="56" y="0" flags="0x0"/>
    </TTGlyph>
    <TTGlyph name="D" xMin="73" yMin="0" xMax="398" yMax="668">
      <contour>
        <pt x="317" y="668" on="0"/>
        <pt x="398" y="586" on="0"/>
        <pt x="398" y="518" on="1"/>
        <pt x="398" y="151" on="1"/>
        <pt x="398" y="82" on="0"/>
        <pt x="318" y="0" on="0"/>
        <pt x="239" y="0" on="1"/>
        <pt x="73" y="0" on="1"/>
        <pt x="73" y="668" on="1"/>
        <pt x="238" y="668" on="1"/>
      </contour>
      <contour>
        <pt x="340" y="617" on="0"/>
        <pt x="237" y="617" on="1"/>
        <pt x="130" y="617" on="1"/>
        <pt x="130" y="51" on="1"/>
        <pt x="237" y="51" on="1"/>
        <pt x="340" y="51" on="0"/>
        <pt x="340" y="152" on="1"/>
        <pt x="340" y="517" on="1"/>
      </contour>
    </TTGlyph>
    <TTGlyph name="Dcaron" xMin="73" yMin="0" xMax="398" yMax="816">
      <component glyphName="D" x="0" y="0" flags="0x0"/>
      <component glyphName="caron" x="49" y="100" flags="0x4"/>
    </TTGlyph>
    <TTGlyph name="Dcroat" xMin="13" yMin="0" xMax="399" yMax="668">
      <contour>
        <pt x="318" y="668" on="0"/>
        <pt x="399" y="586" on="0"/>
        <pt x="399" y="518" on="1"/>
        <pt x="399" y="151" on="1"/>
        <pt x="399" y="82" on="0"/>
        <pt x="319" y="0" on="0"/>
        <pt x="240" y="0" on="1"/>
        <pt x="74" y="0" on="1"/>
        <pt x="74" y="309" on="1"/>
        <pt x="13" y="309" on="1"/>
        <pt x="13" y="360" on="1"/>
        <pt x="74" y="360" on="1"/>
        <pt x="74" y="668" on="1"/>
        <pt x="239" y="668" on="1"/>
      </contour>
      <contour>
        <pt x="341" y="517" on="1"/>
        <pt x="341" y="617" on="0"/>
        <pt x="238" y="617" on="1"/>
        <pt x="131" y="617" on="1"/>
        <pt x="131" y="360" on="1"/>
        <pt x="240" y="360" on="1"/>
        <pt x="240" y="309" on="1"/>
        <pt x="131" y="309" on="1"/>
        <pt x="131" y="51" on="1"/>
        <pt x="238" y="51" on="1"/>
        <pt x="341" y="51" on="0"/>
        <pt x="341" y="152" on="1"/>
      </contour>
    </TTGlyph>
    <TTGlyph name="E" xMin="73" yMin="0" xMax="354" yMax="668">
      <contour>
        <pt x="354" y="617" on="1"/>
        <pt x="130" y="617" on="1"/>
        <pt x="130" y="362" on="1"/>
        <pt x="326" y="362" on="1"/>
        <pt x="326" y="311" on="1"/>
        <pt x="130" y="311" on="1"/>
        <pt x="130" y="51" on="1"/>
        <pt x="354" y="51" on="1"/>
        <pt x="354" y="0" on="1"/>
        <pt x="73" y="0" on="1"/>
        <pt x="73" y="668" on="1"/>
        <pt x="354" y="668" on="1"/>
      </contour>
    </TTGlyph>
    <TTGlyph name="Eacute" xMin="73" yMin="0" xMax="354" yMax="816">
      <component glyphName="E" x="0" y="0" flags="0x0"/>
      <component glyphName="acute" x="69" y="100" flags="0x4"/>
    </TTGlyph>
    <TTGlyph name="Ecaron" xMin="73" yMin="0" xMax="354" yMax="816">
      <component glyphName="E" x="0" y="0" flags="0x0"/>
      <component glyphName="caron" x="41" y="100" flags="0x4"/>
    </TTGlyph>
    <TTGlyph name="Ecircumflex" xMin="73" yMin="0" xMax="354" yMax="816">
      <component glyphName="E" x="0" y="0" flags="0x0"/>
      <component glyphName="circumflex" x="33" y="100" flags="0x4"/>
    </TTGlyph>
    <TTGlyph name="Edieresis" xMin="73" yMin="0" xMax="354" yMax="796">
      <component glyphName="E" x="0" y="0" flags="0x0"/>
      <component glyphName="dieresis" x="41" y="100" flags="0x4"/>
    </TTGlyph>
    <TTGlyph name="Edotaccent" xMin="73" yMin="0" xMax="354" yMax="823">
      <component glyphName="E" x="0" y="0" flags="0x0"/>
      <component glyphName="dotaccent" x="46" y="100" flags="0x4"/>
    </TTGlyph>
    <TTGlyph name="Egrave" xMin="73" yMin="0" xMax="354" yMax="816">
      <component glyphName="E" x="0" y="0" flags="0x0"/>
      <component glyphName="grave" x="11" y="100" flags="0x4"/>
    </TTGlyph>
    <TTGlyph name="Emacron" xMin="73" yMin="0" xMax="354" yMax="784">
      <component glyphName="E" x="0" y="0" flags="0x0"/>
      <component glyphName="macron" x="40" y="100" flags="0x4"/>
    </TTGlyph>
    <TTGlyph name="Eogonek" xMin="73" yMin="-172" xMax="354" yMax="668">
      <component glyphName="E" x="0" y="0" flags="0x0"/>
      <component glyphName="ogonek" x="132" y="0" flags="0x0"/>
    </TTGlyph>
    <TTGlyph name="Eth" xMin="-2" yMin="0" xMax="399" yMax="668">
      <contour>
        <pt x="318" y="668" on="0"/>
        <pt x="399" y="586" on="0"/>
        <pt x="399" y="518" on="1"/>
        <pt x="399" y="151" on="1"/>
        <pt x="399" y="82" on="0"/>
        <pt x="319" y="0" on="0"/>
        <pt x="240" y="0" on="1"/>
        <pt x="74" y="0" on="1"/>
        <pt x="74" y="302" on="1"/>
        <pt x="-2" y="302" on="1"/>
        <pt x="-2" y="353" on="1"/>
        <pt x="74" y="353" on="1"/>
        <pt x="74" y="668" on="1"/>
        <pt x="239" y="668" on="1"/>
      </contour>
      <contour>
        <pt x="341" y="517" on="1"/>
        <pt x="341" y="617" on="0"/>
        <pt x="238" y="617" on="1"/>
        <pt x="131" y="617" on="1"/>
        <pt x="131" y="353" on="1"/>
        <pt x="248" y="353" on="1"/>
        <pt x="248" y="302" on="1"/>
        <pt x="131" y="302" on="1"/>
        <pt x="131" y="51" on="1"/>
        <pt x="238" y="51" on="1"/>
        <pt x="341" y="51" on="0"/>
        <pt x="341" y="152" on="1"/>
      </contour>
    </TTGlyph>
    <TTGlyph name="Euro" xMin="14" yMin="-5" xMax="355" yMax="673">
      <contour>
        <pt x="298" y="48" on="0"/>
        <pt x="355" y="65" on="1"/>
        <pt x="355" y="11" on="1"/>
        <pt x="305" y="-5" on="0"/>
        <pt x="239" y="-5" on="1"/>
        <pt x="151" y="-5" on="0"/>
        <pt x="66" y="67" on="0"/>
        <pt x="66" y="133" on="1"/>
        <pt x="66" y="251" on="1"/>
        <pt x="14" y="251" on="1"/>
        <pt x="14" y="296" on="1"/>
        <pt x="66" y="296" on="1"/>
        <pt x="66" y="384" on="1"/>
        <pt x="14" y="384" on="1"/>
        <pt x="14" y="428" on="1"/>
        <pt x="66" y="428" on="1"/>
        <pt x="66" y="535" on="1"/>
        <pt x="66" y="601" on="0"/>
        <pt x="151" y="673" on="0"/>
        <pt x="239" y="673" on="1"/>
        <pt x="297" y="673" on="0"/>
        <pt x="353" y="657" on="1"/>
        <pt x="353" y="603" on="1"/>
        <pt x="296" y="620" on="0"/>
        <pt x="239" y="620" on="1"/>
        <pt x="175" y="620" on="0"/>
        <pt x="123" y="577" on="0"/>
        <pt x="123" y="534" on="1"/>
        <pt x="123" y="428" on="1"/>
        <pt x="287" y="428" on="1"/>
        <pt x="287" y="384" on="1"/>
        <pt x="123" y="384" on="1"/>
        <pt x="123" y="296" on="1"/>
        <pt x="287" y="296" on="1"/>
        <pt x="287" y="251" on="1"/>
        <pt x="123" y="251" on="1"/>
        <pt x="123" y="134" on="1"/>
        <pt x="123" y="91" on="0"/>
        <pt x="175" y="48" on="0"/>
        <pt x="239" y="48" on="1"/>
      </contour>
    </TTGlyph>
    <TTGlyph name="F" xMin="73" yMin="0" xMax="345" yMax="668">
      <contour>
        <pt x="345" y="617" on="1"/>
        <pt x="130" y="617" on="1"/>
        <pt x="130" y="351" on="1"/>
        <pt x="336" y="351" on="1"/>
        <pt x="336" y="300" on="1"/>
        <pt x="130" y="300" on="1"/>
        <pt x="130" y="0" on="1"/>
        <pt x="73" y="0" on="1"/>
        <pt x="73" y="668" on="1"/>
        <pt x="345" y="668" on="1"/>
      </contour>
    </TTGlyph>
    <TTGlyph name="G" xMin="63" yMin="-5" xMax="378" yMax="673">
      <contour>
        <pt x="63" y="597" on="0"/>
        <pt x="148" y="673" on="0"/>
        <pt x="241" y="673" on="1"/>
        <pt x="303" y="673" on="0"/>
        <pt x="359" y="657" on="1"/>
        <pt x="359" y="601" on="1"/>
        <pt x="300" y="620" on="0"/>
        <pt x="242" y="620" on="1"/>
        <pt x="176" y="620" on="0"/>
        <pt x="120" y="574" on="0"/>
        <pt x="120" y="528" on="1"/>
        <pt x="120" y="134" on="1"/>
        <pt x="120" y="88" on="0"/>
        <pt x="172" y="47" on="0"/>
        <pt x="221" y="47" on="1"/>
        <pt x="256" y="47" on="0"/>
        <pt x="310" y="62" on="0"/>
        <pt x="321" y="70" on="1"/>
        <pt x="321" y="323" on="1"/>
        <pt x="378" y="323" on="1"/>
        <pt x="378" y="34" on="1"/>
        <pt x="347" y="16" on="0"/>
        <pt x="279" y="-5" on="0"/>
        <pt x="221" y="-5" on="1"/>
        <pt x="150" y="-5" on="0"/>
        <pt x="63" y="60" on="0"/>
        <pt x="63" y="133" on="1"/>
        <pt x="63" y="530" on="1"/>
      </contour>
    </TTGlyph>
    <TTGlyph name="Gbreve" xMin="63" yMin="-5" xMax="378" yMax="816">
      <component glyphName="G" x="0" y="0" flags="0x0"/>
      <component glyphName="breve" x="50" y="100" flags="0x4"/>
    </TTGlyph>
    <TTGlyph name="H" xMin="73" yMin="0" xMax="416" yMax="668">
      <contour>
        <pt x="416" y="668" on="1"/>
        <pt x="416" y="0" on="1"/>
        <pt x="357" y="0" on="1"/>
        <pt x="357" y="302" on="1"/>
        <pt x="130" y="302" on="1"/>
        <pt x="130" y="0" on="1"/>
        <pt x="73" y="0" on="1"/>
        <pt x="73" y="668" on="1"/>
        <pt x="130" y="668" on="1"/>
        <pt x="130" y="353" on="1"/>
        <pt x="357" y="353" on="1"/>
        <pt x="357" y="668" on="1"/>
      </contour>
    </TTGlyph>
    <TTGlyph name="I" xMin="73" yMin="0" xMax="130" yMax="668">
      <contour>
        <pt x="130" y="0" on="1"/>
        <pt x="73" y="0" on="1"/>
        <pt x="73" y="668" on="1"/>
        <pt x="130" y="668" on="1"/>
      </contour>
    </TTGlyph>
    <TTGlyph name="Iacute" xMin="73" yMin="0" xMax="175" yMax="816">
      <component glyphName="I" x="0" y="0" flags="0x0"/>
      <component glyphName="acute" x="-48" y="100" flags="0x4"/>
    </TTGlyph>
    <TTGlyph name="Icircumflex" xMin="33" yMin="0" xMax="181" yMax="816">
      <component glyphName="I" x="0" y="0" flags="0x0"/>
      <component glyphName="circumflex" x="-68" y="100" flags="0x4"/>
    </TTGlyph>
    <TTGlyph name="Idieresis" xMin="1" yMin="0" xMax="200" yMax="796">
      <component glyphName="I" x="0" y="0" flags="0x0"/>
      <component glyphName="dieresis" x="-74" y="100" flags="0x4"/>
    </TTGlyph>
    <TTGlyph name="Idotaccent" xMin="64" yMin="0" xMax="134" yMax="823">
      <component glyphName="I" x="0" y="0" flags="0x0"/>
      <component glyphName="dotaccent" x="-74" y="100" flags="0x4"/>
    </TTGlyph>
    <TTGlyph name="Igrave" xMin="28" yMin="0" xMax="130" yMax="816">
      <component glyphName="I" x="0" y="0" flags="0x0"/>
      <component glyphName="grave" x="-99" y="100" flags="0x4"/>
    </TTGlyph>
    <TTGlyph name="Imacron" xMin="-4" yMin="0" xMax="210" yMax="784">
      <component glyphName="I" x="0" y="0" flags="0x0"/>
      <component glyphName="macron" x="-72" y="100" flags="0x4"/>
    </TTGlyph>
    <TTGlyph name="Iogonek" xMin="38" yMin="-172" xMax="130" yMax="668">
      <component glyphName="I" x="0" y="0" flags="0x0"/>
      <component glyphName="ogonek" x="-91" y="0" flags="0x0"/>
    </TTGlyph>
    <TTGlyph name="J" xMin="8" yMin="-149" xMax="131" yMax="668">
      <contour>
        <pt x="131" y="196" on="1"/>
        <pt x="131" y="119" on="0"/>
        <pt x="113" y="9" on="0"/>
        <pt x="98" y="-44" on="1"/>
        <pt x="67" y="-149" on="1"/>
        <pt x="8" y="-149" on="1"/>
        <pt x="38" y="-43" on="1"/>
        <pt x="56" y="19" on="0"/>
        <pt x="73" y="125" on="0"/>
        <pt x="73" y="195" on="1"/>
        <pt x="73" y="668" on="1"/>
        <pt x="131" y="668" on="1"/>
      </contour>
    </TTGlyph>
    <TTGlyph name="K" xMin="73" yMin="0" xMax="405" yMax="668">
      <contour>
        <pt x="130" y="0" on="1"/>
        <pt x="73" y="0" on="1"/>
        <pt x="73" y="668" on="1"/>
        <pt x="130" y="668" on="1"/>
      </contour>
      <contour>
        <pt x="254" y="334" on="1"/>
        <pt x="405" y="0" on="1"/>
        <pt x="341" y="0" on="1"/>
        <pt x="192" y="332" on="1"/>
        <pt x="335" y="668" on="1"/>
        <pt x="398" y="668" on="1"/>
      </contour>
    </TTGlyph>
    <TTGlyph name="L" xMin="73" yMin="0" xMax="338" yMax="668">
      <contour>
        <pt x="130" y="51" on="1"/>
        <pt x="338" y="51" on="1"/>
        <pt x="338" y="0" on="1"/>
        <pt x="73" y="0" on="1"/>
        <pt x="73" y="668" on="1"/>
        <pt x="130" y="668" on="1"/>
      </contour>
    </TTGlyph>
    <TTGlyph name="Lacute" xMin="73" yMin="0" xMax="338" yMax="816">
      <component glyphName="L" x="0" y="0" flags="0x0"/>
      <component glyphName="acute" x="-48" y="100" flags="0x4"/>
    </TTGlyph>
    <TTGlyph name="Lcaron" xMin="73" yMin="0" xMax="338" yMax="714">
      <contour>
        <pt x="235" y="714" on="0"/>
        <pt x="249" y="701" on="0"/>
        <pt x="249" y="689" on="1"/>
        <pt x="249" y="676" on="0"/>
        <pt x="218" y="619" on="0"/>
        <pt x="204" y="598" on="1"/>
        <pt x="172" y="598" on="1"/>
        <pt x="199" y="714" on="1"/>
        <pt x="224" y="714" on="1"/>
      </contour>
      <contour>
        <pt x="130" y="51" on="1"/>
        <pt x="338" y="51" on="1"/>
        <pt x="338" y="0" on="1"/>
        <pt x="73" y="0" on="1"/>
        <pt x="73" y="668" on="1"/>
        <pt x="130" y="668" on="1"/>
      </contour>
    </TTGlyph>
    <TTGlyph name="Lslash" xMin="18" yMin="0" xMax="339" yMax="668">
      <contour>
        <pt x="339" y="51" on="1"/>
        <pt x="339" y="0" on="1"/>
        <pt x="74" y="0" on="1"/>
        <pt x="74" y="282" on="1"/>
        <pt x="18" y="252" on="1"/>
        <pt x="18" y="301" on="1"/>
        <pt x="74" y="331" on="1"/>
        <pt x="74" y="668" on="1"/>
        <pt x="131" y="668" on="1"/>
        <pt x="131" y="362" on="1"/>
        <pt x="230" y="416" on="1"/>
        <pt x="230" y="367" on="1"/>
        <pt x="131" y="313" on="1"/>
        <pt x="131" y="51" on="1"/>
      </contour>
    </TTGlyph>
    <TTGlyph name="M" xMin="73" yMin="0" xMax="532" yMax="668">
      <contour>
        <pt x="532" y="0" on="1"/>
        <pt x="477" y="0" on="1"/>
        <pt x="477" y="373" on="1"/>
        <pt x="477" y="446" on="0"/>
        <pt x="480" y="557" on="0"/>
        <pt x="481" y="572" on="1"/>
        <pt x="336" y="180" on="1"/>
        <pt x="268" y="180" on="1"/>
        <pt x="122" y="572" on="1"/>
        <pt x="123" y="556" on="0"/>
        <pt x="127" y="439" on="0"/>
        <pt x="127" y="374" on="1"/>
        <pt x="127" y="0" on="1"/>
        <pt x="73" y="0" on="1"/>
        <pt x="73" y="668" on="1"/>
        <pt x="145" y="668" on="1"/>
        <pt x="302" y="236" on="1"/>
        <pt x="458" y="668" on="1"/>
        <pt x="532" y="668" on="1"/>
      </contour>
    </TTGlyph>
    <TTGlyph name="N" xMin="73" yMin="0" xMax="421" yMax="668">
      <contour>
        <pt x="421" y="0" on="1"/>
        <pt x="349" y="0" on="1"/>
        <pt x="205" y="366" on="1"/>
        <pt x="125" y="572" on="1"/>
        <pt x="129" y="363" on="1"/>
        <pt x="129" y="0" on="1"/>
        <pt x="73" y="0" on="1"/>
        <pt x="73" y="668" on="1"/>
        <pt x="144" y="668" on="1"/>
        <pt x="289" y="300" on="1"/>
        <pt x="368" y="95" on="1"/>
        <pt x="364" y="304" on="1"/>
        <pt x="364" y="668" on="1"/>
        <pt x="421" y="668" on="1"/>
      </contour>
    </TTGlyph>
    <TTGlyph name="Nacute" xMin="73" yMin="0" xMax="421" yMax="816">
      <component glyphName="N" x="0" y="0" flags="0x0"/>
      <component glyphName="acute" x="104" y="100" flags="0x4"/>
    </TTGlyph>
    <TTGlyph name="Ncaron" xMin="73" yMin="0" xMax="421" yMax="816">
      <component glyphName="N" x="0" y="0" flags="0x0"/>
      <component glyphName="caron" x="75" y="100" flags="0x4"/>
    </TTGlyph>
    <TTGlyph name="Ntilde" xMin="73" yMin="0" xMax="421" yMax="806">
      <component glyphName="N" x="0" y="0" flags="0x0"/>
      <component glyphName="tilde" x="81" y="100" flags="0x4"/>
    </TTGlyph>
    <TTGlyph name="O" xMin="63" yMin="-10" xMax="388" yMax="678">
      <contour>
        <pt x="63" y="593" on="0"/>
        <pt x="145" y="678" on="0"/>
        <pt x="226" y="678" on="1"/>
        <pt x="307" y="678" on="0"/>
        <pt x="388" y="593" on="0"/>
        <pt x="388" y="523" on="1"/>
        <pt x="388" y="145" on="1"/>
        <pt x="388" y="75" on="0"/>
        <pt x="307" y="-10" on="0"/>
        <pt x="226" y="-10" on="1"/>
        <pt x="145" y="-10" on="0"/>
        <pt x="63" y="75" on="0"/>
        <pt x="63" y="145" on="1"/>
        <pt x="63" y="523" on="1"/>
      </contour>
      <contour>
        <pt x="331" y="626" on="0"/>
        <pt x="226" y="626" on="1"/>
        <pt x="120" y="626" on="0"/>
        <pt x="120" y="522" on="1"/>
        <pt x="120" y="146" on="1"/>
        <pt x="120" y="42" on="0"/>
        <pt x="226" y="42" on="1"/>
        <pt x="331" y="42" on="0"/>
        <pt x="331" y="146" on="1"/>
        <pt x="331" y="522" on="1"/>
      </contour>
    </TTGlyph>
    <TTGlyph name="OE" xMin="83" yMin="0" xMax="633" yMax="668">
      <contour>
        <pt x="409" y="617" on="1"/>
        <pt x="409" y="362" on="1"/>
        <pt x="605" y="362" on="1"/>
        <pt x="605" y="311" on="1"/>
        <pt x="409" y="311" on="1"/>
        <pt x="409" y="51" on="1"/>
        <pt x="633" y="51" on="1"/>
        <pt x="633" y="0" on="1"/>
        <pt x="242" y="0" on="1"/>
        <pt x="162" y="0" on="0"/>
        <pt x="83" y="82" on="0"/>
        <pt x="83" y="151" on="1"/>
        <pt x="83" y="518" on="1"/>
        <pt x="83" y="586" on="0"/>
        <pt x="164" y="668" on="0"/>
        <pt x="243" y="668" on="1"/>
        <pt x="633" y="668" on="1"/>
        <pt x="633" y="617" on="1"/>
      </contour>
      <contour>
        <pt x="352" y="51" on="1"/>
        <pt x="352" y="617" on="1"/>
        <pt x="244" y="617" on="1"/>
        <pt x="140" y="617" on="0"/>
        <pt x="140" y="517" on="1"/>
        <pt x="140" y="152" on="1"/>
        <pt x="140" y="51" on="0"/>
        <pt x="244" y="51" on="1"/>
      </contour>
    </TTGlyph>
    <TTGlyph name="Oacute" xMin="63" yMin="-10" xMax="388" yMax="816">
      <component glyphName="O" x="0" y="0" flags="0x0"/>
      <component glyphName="acute" x="78" y="100" flags="0x4"/>
    </TTGlyph>
    <TTGlyph name="Ocircumflex" xMin="63" yMin="-10" xMax="388" yMax="816">
      <component glyphName="O" x="0" y="0" flags="0x0"/>
      <component glyphName="circumflex" x="50" y="100" flags="0x4"/>
    </TTGlyph>
    <TTGlyph name="Odieresis" xMin="63" yMin="-10" xMax="388" yMax="796">
      <component glyphName="O" x="0" y="0" flags="0x0"/>
      <component glyphName="dieresis" x="51" y="100" flags="0x4"/>
    </TTGlyph>
    <TTGlyph name="Ograve" xMin="63" yMin="-10" xMax="388" yMax="816">
      <component glyphName="O" x="0" y="0" flags="0x0"/>
      <component glyphName="grave" x="15" y="100" flags="0x4"/>
    </TTGlyph>
    <TTGlyph name="Ohungarumlaut" xMin="63" yMin="-10" xMax="388" yMax="816">
      <component glyphName="O" x="0" y="0" flags="0x0"/>
      <component glyphName="hungarumlaut" x="78" y="100" flags="0x4"/>
    </TTGlyph>
    <TTGlyph name="Omacron" xMin="63" yMin="-10" xMax="388" yMax="784">
      <component glyphName="O" x="0" y="0" flags="0x0"/>
      <component glyphName="macron" x="52" y="100" flags="0x4"/>
    </TTGlyph>
    <TTGlyph name="Oslash" xMin="62" yMin="-10" xMax="389" yMax="678">
      <contour>
        <pt x="366" y="612" on="1"/>
        <pt x="388" y="575" on="0"/>
        <pt x="388" y="523" on="1"/>
        <pt x="388" y="145" on="1"/>
        <pt x="388" y="75" on="0"/>
        <pt x="307" y="-10" on="0"/>
        <pt x="226" y="-10" on="1"/>
        <pt x="159" y="-10" on="0"/>
        <pt x="118" y="20" on="1"/>
        <pt x="110" y="0" on="1"/>
        <pt x="62" y="0" on="1"/>
        <pt x="85" y="56" on="1"/>
        <pt x="63" y="93" on="0"/>
        <pt x="63" y="145" on="1"/>
        <pt x="63" y="523" on="1"/>
        <pt x="63" y="593" on="0"/>
        <pt x="145" y="678" on="0"/>
        <pt x="226" y="678" on="1"/>
        <pt x="292" y="678" on="0"/>
        <pt x="333" y="648" on="1"/>
        <pt x="341" y="668" on="1"/>
        <pt x="389" y="668" on="1"/>
      </contour>
      <contour>
        <pt x="120" y="139" on="1"/>
        <pt x="310" y="594" on="1"/>
        <pt x="283" y="626" on="0"/>
        <pt x="226" y="626" on="1"/>
        <pt x="120" y="626" on="0"/>
        <pt x="120" y="522" on="1"/>
        <pt x="120" y="146" on="1"/>
      </contour>
      <contour>
        <pt x="331" y="529" on="1"/>
        <pt x="141" y="74" on="1"/>
        <pt x="168" y="42" on="0"/>
        <pt x="226" y="42" on="1"/>
        <pt x="331" y="42" on="0"/>
        <pt x="331" y="146" on="1"/>
        <pt x="331" y="522" on="1"/>
      </contour>
    </TTGlyph>
    <TTGlyph name="Otilde" xMin="63" yMin="-10" xMax="388" yMax="806">
      <component glyphName="O" x="0" y="0" flags="0x0"/>
      <component glyphName="tilde" x="52" y="100" flags="0x4"/>
    </TTGlyph>
    <TTGlyph name="P" xMin="73" yMin="0" xMax="386" yMax="668">
      <contour>
        <pt x="305" y="668" on="0"/>
        <pt x="386" y="586" on="0"/>
        <pt x="386" y="518" on="1"/>
        <pt x="386" y="386" on="1"/>
        <pt x="386" y="318" on="0"/>
        <pt x="305" y="236" on="0"/>
        <pt x="226" y="236" on="1"/>
        <pt x="130" y="236" on="1"/>
        <pt x="130" y="0" on="1"/>
        <pt x="73" y="0" on="1"/>
        <pt x="73" y="668" on="1"/>
        <pt x="226" y="668" on="1"/>
      </contour>
      <contour>
        <pt x="328" y="617" on="0"/>
        <pt x="224" y="617" on="1"/>
        <pt x="130" y="617" on="1"/>
        <pt x="130" y="287" on="1"/>
        <pt x="224" y="287" on="1"/>
        <pt x="328" y="287" on="0"/>
        <pt x="328" y="388" on="1"/>
        <pt x="328" y="516" on="1"/>
      </contour>
    </TTGlyph>
    <TTGlyph name="Q" xMin="63" yMin="-103" xMax="433" yMax="678">
      <contour>
        <pt x="360" y="-103" on="1"/>
        <pt x="273" y="-5" on="1"/>
        <pt x="250" y="-10" on="0"/>
        <pt x="226" y="-10" on="1"/>
        <pt x="145" y="-10" on="0"/>
        <pt x="63" y="75" on="0"/>
        <pt x="63" y="145" on="1"/>
        <pt x="63" y="523" on="1"/>
        <pt x="63" y="593" on="0"/>
        <pt x="145" y="678" on="0"/>
        <pt x="226" y="678" on="1"/>
        <pt x="307" y="678" on="0"/>
        <pt x="388" y="593" on="0"/>
        <pt x="388" y="523" on="1"/>
        <pt x="388" y="145" on="1"/>
        <pt x="388" y="103" on="0"/>
        <pt x="357" y="36" on="0"/>
        <pt x="326" y="16" on="1"/>
        <pt x="433" y="-103" on="1"/>
      </contour>
      <contour>
        <pt x="120" y="42" on="0"/>
        <pt x="226" y="42" on="1"/>
        <pt x="331" y="42" on="0"/>
        <pt x="331" y="146" on="1"/>
        <pt x="331" y="522" on="1"/>
        <pt x="331" y="626" on="0"/>
        <pt x="226" y="626" on="1"/>
        <pt x="120" y="626" on="0"/>
        <pt x="120" y="522" on="1"/>
        <pt x="120" y="146" on="1"/>
      </contour>
    </TTGlyph>
    <TTGlyph name="R" xMin="73" yMin="0" xMax="405" yMax="668">
      <contour>
        <pt x="342" y="0" on="1"/>
        <pt x="243" y="273" on="1"/>
        <pt x="227" y="273" on="1"/>
        <pt x="130" y="273" on="1"/>
        <pt x="130" y="0" on="1"/>
        <pt x="73" y="0" on="1"/>
        <pt x="73" y="668" on="1"/>
        <pt x="226" y="668" on="1"/>
        <pt x="305" y="668" on="0"/>
        <pt x="386" y="586" on="0"/>
        <pt x="386" y="518" on="1"/>
        <pt x="386" y="424" on="1"/>
        <pt x="386" y="373" on="0"/>
        <pt x="343" y="301" on="0"/>
        <pt x="300" y="285" on="1"/>
        <pt x="405" y="0" on="1"/>
      </contour>
      <contour>
        <pt x="279" y="326" on="0"/>
        <pt x="328" y="376" on="0"/>
        <pt x="328" y="424" on="1"/>
        <pt x="328" y="517" on="1"/>
        <pt x="328" y="617" on="0"/>
        <pt x="224" y="617" on="1"/>
        <pt x="130" y="617" on="1"/>
        <pt x="130" y="326" on="1"/>
        <pt x="224" y="326" on="1"/>
      </contour>
    </TTGlyph>
    <TTGlyph name="Racute" xMin="73" yMin="0" xMax="405" yMax="816">
      <component glyphName="R" x="0" y="0" flags="0x0"/>
      <component glyphName="acute" x="81" y="100" flags="0x4"/>
    </TTGlyph>
    <TTGlyph name="Rcaron" xMin="73" yMin="0" xMax="405" yMax="816">
      <component glyphName="R" x="0" y="0" flags="0x0"/>
      <component glyphName="caron" x="48" y="100" flags="0x4"/>
    </TTGlyph>
    <TTGlyph name="S" xMin="29" yMin="-5" xMax="345" yMax="673">
      <contour>
        <pt x="29" y="601" on="0"/>
        <pt x="114" y="673" on="0"/>
        <pt x="196" y="673" on="1"/>
        <pt x="270" y="673" on="0"/>
        <pt x="321" y="658" on="1"/>
        <pt x="321" y="602" on="1"/>
        <pt x="299" y="610" on="0"/>
        <pt x="232" y="620" on="0"/>
        <pt x="196" y="620" on="1"/>
        <pt x="87" y="620" on="0"/>
        <pt x="87" y="537" on="1"/>
        <pt x="87" y="483" on="1"/>
        <pt x="87" y="448" on="0"/>
        <pt x="115" y="404" on="0"/>
        <pt x="147" y="386" on="1"/>
        <pt x="264" y="321" on="1"/>
        <pt x="306" y="298" on="0"/>
        <pt x="345" y="235" on="0"/>
        <pt x="345" y="189" on="1"/>
        <pt x="345" y="136" on="1"/>
        <pt x="345" y="69" on="0"/>
        <pt x="255" y="-5" on="0"/>
        <pt x="165" y="-5" on="1"/>
        <pt x="127" y="-5" on="0"/>
        <pt x="56" y="6" on="0"/>
        <pt x="34" y="14" on="1"/>
        <pt x="34" y="70" on="1"/>
        <pt x="59" y="60" on="0"/>
        <pt x="129" y="48" on="0"/>
        <pt x="164" y="48" on="1"/>
        <pt x="228" y="48" on="0"/>
        <pt x="287" y="96" on="0"/>
        <pt x="287" y="138" on="1"/>
        <pt x="287" y="184" on="1"/>
        <pt x="287" y="219" on="0"/>
        <pt x="263" y="259" on="0"/>
        <pt x="230" y="276" on="1"/>
        <pt x="114" y="340" on="1"/>
        <pt x="71" y="363" on="0"/>
        <pt x="29" y="429" on="0"/>
        <pt x="29" y="478" on="1"/>
        <pt x="29" y="537" on="1"/>
      </contour>
    </TTGlyph>
    <TTGlyph name="Sacute" xMin="29" yMin="-5" xMax="345" yMax="816">
      <component glyphName="S" x="0" y="0" flags="0x0"/>
      <component glyphName="acute" x="42" y="100" flags="0x4"/>
    </TTGlyph>
    <TTGlyph name="Scaron" xMin="29" yMin="-5" xMax="345" yMax="816">
      <component glyphName="S" x="0" y="0" flags="0x0"/>
      <component glyphName="caron" x="22" y="100" flags="0x4"/>
    </TTGlyph>
    <TTGlyph name="T" xMin="10" yMin="0" xMax="330" yMax="668">
      <contour>
        <pt x="330" y="617" on="1"/>
        <pt x="199" y="617" on="1"/>
        <pt x="199" y="0" on="1"/>
        <pt x="141" y="0" on="1"/>
        <pt x="141" y="617" on="1"/>
        <pt x="10" y="617" on="1"/>
        <pt x="10" y="668" on="1"/>
        <pt x="330" y="668" on="1"/>
      </contour>
    </TTGlyph>
    <TTGlyph name="Tcaron" xMin="10" yMin="0" xMax="330" yMax="816">
      <component glyphName="T" x="0" y="0" flags="0x0"/>
      <component glyphName="caron" x="-6" y="100" flags="0x4"/>
    </TTGlyph>
    <TTGlyph name="Thorn" xMin="83" yMin="0" xMax="395" yMax="668">
      <contour>
        <pt x="315" y="544" on="0"/>
        <pt x="395" y="462" on="0"/>
        <pt x="395" y="393" on="1"/>
        <pt x="395" y="275" on="1"/>
        <pt x="395" y="206" on="0"/>
        <pt x="315" y="124" on="0"/>
        <pt x="235" y="124" on="1"/>
        <pt x="140" y="124" on="1"/>
        <pt x="140" y="0" on="1"/>
        <pt x="83" y="0" on="1"/>
        <pt x="83" y="668" on="1"/>
        <pt x="140" y="668" on="1"/>
        <pt x="140" y="544" on="1"/>
        <pt x="235" y="544" on="1"/>
      </contour>
      <contour>
        <pt x="338" y="392" on="1"/>
        <pt x="338" y="492" on="0"/>
        <pt x="234" y="492" on="1"/>
        <pt x="140" y="492" on="1"/>
        <pt x="140" y="177" on="1"/>
        <pt x="234" y="177" on="1"/>
        <pt x="288" y="177" on="0"/>
        <pt x="338" y="228" on="0"/>
        <pt x="338" y="276" on="1"/>
      </contour>
    </TTGlyph>
    <TTGlyph name="U" xMin="68" yMin="-10" xMax="393" yMax="668">
      <contour>
        <pt x="393" y="145" on="1"/>
        <pt x="393" y="75" on="0"/>
        <pt x="311" y="-10" on="0"/>
        <pt x="230" y="-10" on="1"/>
        <pt x="149" y="-10" on="0"/>
        <pt x="68" y="75" on="0"/>
        <pt x="68" y="145" on="1"/>
        <pt x="68" y="668" on="1"/>
        <pt x="125" y="668" on="1"/>
        <pt x="125" y="146" on="1"/>
        <pt x="125" y="42" on="0"/>
        <pt x="230" y="42" on="1"/>
        <pt x="335" y="42" on="0"/>
        <pt x="335" y="146" on="1"/>
        <pt x="335" y="668" on="1"/>
        <pt x="393" y="668" on="1"/>
      </contour>
    </TTGlyph>
    <TTGlyph name="Uacute" xMin="68" yMin="-10" xMax="393" yMax="816">
      <component glyphName="U" x="0" y="0" flags="0x0"/>
      <component glyphName="acute" x="84" y="100" flags="0x4"/>
    </TTGlyph>
    <TTGlyph name="Ucircumflex" xMin="68" yMin="-10" xMax="393" yMax="816">
      <component glyphName="U" x="0" y="0" flags="0x0"/>
      <component glyphName="circumflex" x="55" y="100" flags="0x4"/>
    </TTGlyph>
    <TTGlyph name="Udieresis" xMin="68" yMin="-10" xMax="393" yMax="796">
      <component glyphName="U" x="0" y="0" flags="0x0"/>
      <component glyphName="dieresis" x="55" y="100" flags="0x4"/>
    </TTGlyph>
    <TTGlyph name="Ugrave" xMin="68" yMin="-10" xMax="393" yMax="816">
      <component glyphName="U" x="0" y="0" flags="0x0"/>
      <component glyphName="grave" x="27" y="100" flags="0x4"/>
    </TTGlyph>
    <TTGlyph name="Uhungarumlaut" xMin="68" yMin="-10" xMax="393" yMax="816">
      <component glyphName="hungarumlaut" x="75" y="100" flags="0x4"/>
      <component glyphName="U" x="0" y="0" flags="0x0"/>
    </TTGlyph>
    <TTGlyph name="Umacron" xMin="68" yMin="-10" xMax="393" yMax="784">
      <component glyphName="U" x="0" y="0" flags="0x0"/>
      <component glyphName="macron" x="55" y="100" flags="0x4"/>
    </TTGlyph>
    <TTGlyph name="Uogonek" xMin="68" yMin="-162" xMax="393" yMax="668">
      <component glyphName="U" x="0" y="0" flags="0x0"/>
      <component glyphName="ogonek" x="98" y="10" flags="0x4"/>
    </TTGlyph>
    <TTGlyph name="Uring" xMin="68" yMin="-10" xMax="393" yMax="834">
      <component glyphName="U" x="0" y="0" flags="0x0"/>
      <component glyphName="ring" x="58" y="100" flags="0x4"/>
    </TTGlyph>
    <TTGlyph name="V" xMin="14" yMin="0" xMax="394" yMax="668">
      <contour>
        <pt x="245" y="0" on="1"/>
        <pt x="163" y="0" on="1"/>
        <pt x="14" y="668" on="1"/>
        <pt x="74" y="668" on="1"/>
        <pt x="148" y="328" on="1"/>
        <pt x="204" y="59" on="1"/>
        <pt x="230" y="178" on="0"/>
        <pt x="260" y="329" on="1"/>
        <pt x="334" y="668" on="1"/>
        <pt x="394" y="668" on="1"/>
      </contour>
    </TTGlyph>
    <TTGlyph name="W" xMin="23" yMin="0" xMax="588" yMax="668">
      <contour>
        <pt x="474" y="0" on="1"/>
        <pt x="397" y="0" on="1"/>
        <pt x="338" y="345" on="1"/>
        <pt x="324" y="424" on="0"/>
        <pt x="307" y="559" on="0"/>
        <pt x="305" y="578" on="1"/>
        <pt x="303" y="559" on="0"/>
        <pt x="288" y="423" on="0"/>
        <pt x="274" y="346" on="1"/>
        <pt x="215" y="0" on="1"/>
        <pt x="137" y="0" on="1"/>
        <pt x="23" y="668" on="1"/>
        <pt x="81" y="668" on="1"/>
        <pt x="152" y="239" on="1"/>
        <pt x="162" y="175" on="0"/>
        <pt x="176" y="77" on="0"/>
        <pt x="178" y="62" on="1"/>
        <pt x="180" y="77" on="0"/>
        <pt x="193" y="175" on="0"/>
        <pt x="203" y="240" on="1"/>
        <pt x="274" y="668" on="1"/>
        <pt x="338" y="668" on="1"/>
        <pt x="408" y="239" on="1"/>
        <pt x="417" y="182" on="0"/>
        <pt x="432" y="81" on="0"/>
        <pt x="434" y="63" on="1"/>
        <pt x="436" y="81" on="0"/>
        <pt x="450" y="182" on="0"/>
        <pt x="459" y="239" on="1"/>
        <pt x="530" y="668" on="1"/>
        <pt x="588" y="668" on="1"/>
      </contour>
    </TTGlyph>
    <TTGlyph name="X" xMin="14" yMin="0" xMax="365" yMax="668">
      <contour>
        <pt x="219" y="334" on="1"/>
        <pt x="365" y="0" on="1"/>
        <pt x="302" y="0" on="1"/>
        <pt x="190" y="266" on="1"/>
        <pt x="77" y="0" on="1"/>
        <pt x="14" y="0" on="1"/>
        <pt x="159" y="334" on="1"/>
        <pt x="14" y="668" on="1"/>
        <pt x="77" y="668" on="1"/>
        <pt x="190" y="401" on="1"/>
        <pt x="302" y="668" on="1"/>
        <pt x="365" y="668" on="1"/>
      </contour>
    </TTGlyph>
    <TTGlyph name="Y" xMin="5" yMin="0" xMax="392" yMax="668">
      <contour>
        <pt x="227" y="229" on="1"/>
        <pt x="227" y="0" on="1"/>
        <pt x="170" y="0" on="1"/>
        <pt x="170" y="229" on="1"/>
        <pt x="5" y="668" on="1"/>
        <pt x="64" y="668" on="1"/>
        <pt x="138" y="473" on="1"/>
        <pt x="143" y="460" on="0"/>
        <pt x="166" y="393" on="1"/>
        <pt x="178" y="362" on="0"/>
        <pt x="200" y="300" on="1"/>
        <pt x="218" y="356" on="0"/>
        <pt x="242" y="421" on="1"/>
        <pt x="260" y="472" on="1"/>
        <pt x="333" y="668" on="1"/>
        <pt x="392" y="668" on="1"/>
      </contour>
    </TTGlyph>
    <TTGlyph name="Yacute" xMin="5" yMin="0" xMax="392" yMax="816">
      <component glyphName="Y" x="0" y="0" flags="0x0"/>
      <component glyphName="acute" x="49" y="100" flags="0x4"/>
    </TTGlyph>
    <TTGlyph name="Ydieresis" xMin="5" yMin="0" xMax="392" yMax="796">
      <component glyphName="dieresis" x="18" y="100" flags="0x4"/>
      <component glyphName="Y" x="0" y="0" flags="0x0"/>
    </TTGlyph>
    <TTGlyph name="Z" xMin="29" yMin="0" xMax="346" yMax="668">
      <contour>
        <pt x="346" y="617" on="1"/>
        <pt x="90" y="51" on="1"/>
        <pt x="340" y="51" on="1"/>
        <pt x="340" y="0" on="1"/>
        <pt x="29" y="0" on="1"/>
        <pt x="29" y="51" on="1"/>
        <pt x="284" y="617" on="1"/>
        <pt x="35" y="617" on="1"/>
        <pt x="35" y="668" on="1"/>
        <pt x="346" y="668" on="1"/>
      </contour>
    </TTGlyph>
    <TTGlyph name="Zacute" xMin="29" yMin="0" xMax="346" yMax="816">
      <component glyphName="Z" x="0" y="0" flags="0x0"/>
      <component glyphName="acute" x="39" y="100" flags="0x4"/>
    </TTGlyph>
    <TTGlyph name="Zcaron" xMin="29" yMin="0" xMax="346" yMax="816">
      <component glyphName="Z" x="0" y="0" flags="0x0"/>
      <component glyphName="caron" x="17" y="100" flags="0x4"/>
    </TTGlyph>
    <TTGlyph name="Zdotaccent" xMin="29" yMin="0" xMax="346" yMax="823">
      <component glyphName="Z" x="0" y="0" flags="0x0"/>
      <component glyphName="dotaccent" x="12" y="100" flags="0x4"/>
    </TTGlyph>
    <TTGlyph name="a" xMin="34" yMin="-4" xMax="355" yMax="570">
      <contour>
        <pt x="83" y="559" on="0"/>
        <pt x="153" y="570" on="0"/>
        <pt x="189" y="570" on="1"/>
        <pt x="276" y="570" on="0"/>
        <pt x="355" y="499" on="0"/>
        <pt x="355" y="431" on="1"/>
        <pt x="355" y="0" on="1"/>
        <pt x="299" y="0" on="1"/>
        <pt x="299" y="40" on="1"/>
        <pt x="272" y="18" on="0"/>
        <pt x="219" y="-4" on="0"/>
        <pt x="173" y="-4" on="1"/>
        <pt x="102" y="-4" on="0"/>
        <pt x="34" y="66" on="0"/>
        <pt x="34" y="131" on="1"/>
        <pt x="34" y="163" on="1"/>
        <pt x="34" y="213" on="0"/>
        <pt x="92" y="280" on="0"/>
        <pt x="154" y="298" on="1"/>
        <pt x="299" y="339" on="1"/>
        <pt x="299" y="431" on="1"/>
        <pt x="299" y="475" on="0"/>
        <pt x="252" y="516" on="0"/>
        <pt x="188" y="516" on="1"/>
        <pt x="155" y="516" on="0"/>
        <pt x="85" y="504" on="0"/>
        <pt x="60" y="496" on="1"/>
        <pt x="60" y="552" on="1"/>
      </contour>
      <contour>
        <pt x="174" y="251" on="1"/>
        <pt x="126" y="237" on="0"/>
        <pt x="90" y="196" on="0"/>
        <pt x="90" y="161" on="1"/>
        <pt x="90" y="130" on="1"/>
        <pt x="90" y="87" on="0"/>
        <pt x="131" y="45" on="0"/>
        <pt x="180" y="45" on="1"/>
        <pt x="215" y="45" on="0"/>
        <pt x="278" y="70" on="0"/>
        <pt x="299" y="89" on="1"/>
        <pt x="299" y="286" on="1"/>
      </contour>
    </TTGlyph>
    <TTGlyph name="aacute" xMin="34" yMin="-4" xMax="355" yMax="716">
      <component glyphName="a" x="0" y="0" flags="0x0"/>
      <component glyphName="acute" x="59" y="0" flags="0x0"/>
    </TTGlyph>
    <TTGlyph name="abreve" xMin="34" yMin="-4" xMax="355" yMax="716">
      <component glyphName="a" x="0" y="0" flags="0x0"/>
      <component glyphName="breve" x="37" y="0" flags="0x0"/>
    </TTGlyph>
    <TTGlyph name="acircumflex" xMin="34" yMin="-4" xMax="355" yMax="716">
      <component glyphName="a" x="0" y="0" flags="0x0"/>
      <component glyphName="circumflex" x="40" y="0" flags="0x0"/>
    </TTGlyph>
    <TTGlyph name="acute" xMin="127" yMin="610" xMax="223" yMax="716">
      <contour>
        <pt x="167" y="610" on="1"/>
        <pt x="127" y="610" on="1"/>
        <pt x="164" y="716" on="1"/>
        <pt x="223" y="716" on="1"/>
      </contour>
    </TTGlyph>
    <TTGlyph name="adieresis" xMin="34" yMin="-4" xMax="355" yMax="696">
      <component glyphName="a" x="0" y="0" flags="0x0"/>
      <component glyphName="dieresis" x="35" y="0" flags="0x0"/>
    </TTGlyph>
    <TTGlyph name="ae" xMin="34" yMin="-5" xMax="618" yMax="575">
      <contour>
        <pt x="349" y="542" on="0"/>
        <pt x="416" y="575" on="0"/>
        <pt x="460" y="575" on="1"/>
        <pt x="540" y="575" on="0"/>
        <pt x="618" y="490" on="0"/>
        <pt x="618" y="421" on="1"/>
        <pt x="618" y="251" on="1"/>
        <pt x="356" y="251" on="1"/>
        <pt x="356" y="142" on="1"/>
        <pt x="356" y="95" on="0"/>
        <pt x="420" y="48" on="0"/>
        <pt x="488" y="48" on="1"/>
        <pt x="541" y="48" on="0"/>
        <pt x="601" y="66" on="1"/>
        <pt x="601" y="10" on="1"/>
        <pt x="549" y="-5" on="0"/>
        <pt x="487" y="-5" on="1"/>
        <pt x="376" y="-5" on="0"/>
        <pt x="332" y="46" on="1"/>
        <pt x="306" y="23" on="0"/>
        <pt x="220" y="-4" on="0"/>
        <pt x="175" y="-4" on="1"/>
        <pt x="103" y="-4" on="0"/>
        <pt x="34" y="66" on="0"/>
        <pt x="34" y="131" on="1"/>
        <pt x="34" y="163" on="1"/>
        <pt x="34" y="213" on="0"/>
        <pt x="92" y="280" on="0"/>
        <pt x="154" y="298" on="1"/>
        <pt x="299" y="339" on="1"/>
        <pt x="299" y="432" on="1"/>
        <pt x="299" y="475" on="0"/>
        <pt x="252" y="516" on="0"/>
        <pt x="188" y="516" on="1"/>
        <pt x="155" y="516" on="0"/>
        <pt x="85" y="504" on="0"/>
        <pt x="60" y="496" on="1"/>
        <pt x="60" y="552" on="1"/>
        <pt x="83" y="559" on="0"/>
        <pt x="153" y="570" on="0"/>
        <pt x="189" y="570" on="1"/>
        <pt x="291" y="570" on="0"/>
        <pt x="330" y="517" on="1"/>
      </contour>
      <contour>
        <pt x="562" y="524" on="0"/>
        <pt x="460" y="524" on="1"/>
        <pt x="406" y="524" on="0"/>
        <pt x="356" y="468" on="0"/>
        <pt x="356" y="420" on="1"/>
        <pt x="356" y="301" on="1"/>
        <pt x="562" y="301" on="1"/>
        <pt x="562" y="420" on="1"/>
      </contour>
      <contour>
        <pt x="174" y="251" on="1"/>
        <pt x="126" y="237" on="0"/>
        <pt x="90" y="196" on="0"/>
        <pt x="90" y="161" on="1"/>
        <pt x="90" y="130" on="1"/>
        <pt x="90" y="87" on="0"/>
        <pt x="132" y="45" on="0"/>
        <pt x="180" y="45" on="1"/>
        <pt x="216" y="45" on="0"/>
        <pt x="279" y="66" on="0"/>
        <pt x="299" y="84" on="1"/>
        <pt x="299" y="286" on="1"/>
      </contour>
    </TTGlyph>
    <TTGlyph name="agrave" xMin="34" yMin="-4" xMax="355" yMax="716">
      <component glyphName="a" x="0" y="0" flags="0x0"/>
      <component glyphName="grave" x="3" y="0" flags="0x0"/>
    </TTGlyph>
    <TTGlyph name="amacron" xMin="34" yMin="-4" xMax="355" yMax="684">
      <component glyphName="a" x="0" y="0" flags="0x0"/>
      <component glyphName="macron" x="30" y="0" flags="0x0"/>
    </TTGlyph>
    <TTGlyph name="ampersand" xMin="53" yMin="-10" xMax="433" yMax="673">
      <contour>
        <pt x="433" y="317" on="1"/>
        <pt x="392" y="317" on="1"/>
        <pt x="392" y="145" on="1"/>
        <pt x="392" y="77" on="0"/>
        <pt x="306" y="-10" on="0"/>
        <pt x="224" y="-10" on="1"/>
        <pt x="143" y="-10" on="0"/>
        <pt x="53" y="77" on="0"/>
        <pt x="53" y="145" on="1"/>
        <pt x="53" y="215" on="1"/>
        <pt x="53" y="262" on="0"/>
        <pt x="92" y="328" on="0"/>
        <pt x="132" y="343" on="1"/>
        <pt x="54" y="372" on="0"/>
        <pt x="54" y="472" on="1"/>
        <pt x="54" y="526" on="1"/>
        <pt x="54" y="594" on="0"/>
        <pt x="144" y="673" on="0"/>
        <pt x="237" y="673" on="1"/>
        <pt x="306" y="673" on="0"/>
        <pt x="362" y="655" on="1"/>
        <pt x="362" y="598" on="1"/>
        <pt x="306" y="618" on="0"/>
        <pt x="237" y="618" on="1"/>
        <pt x="167" y="618" on="0"/>
        <pt x="112" y="569" on="0"/>
        <pt x="112" y="525" on="1"/>
        <pt x="112" y="472" on="1"/>
        <pt x="112" y="423" on="0"/>
        <pt x="156" y="369" on="0"/>
        <pt x="207" y="369" on="1"/>
        <pt x="335" y="369" on="1"/>
        <pt x="335" y="426" on="1"/>
        <pt x="392" y="426" on="1"/>
        <pt x="392" y="369" on="1"/>
        <pt x="433" y="369" on="1"/>
      </contour>
      <contour>
        <pt x="335" y="317" on="1"/>
        <pt x="209" y="317" on="1"/>
        <pt x="111" y="317" on="0"/>
        <pt x="111" y="214" on="1"/>
        <pt x="111" y="146" on="1"/>
        <pt x="111" y="98" on="0"/>
        <pt x="169" y="42" on="0"/>
        <pt x="224" y="42" on="1"/>
        <pt x="279" y="42" on="0"/>
        <pt x="335" y="98" on="0"/>
        <pt x="335" y="146" on="1"/>
      </contour>
    </TTGlyph>
    <TTGlyph name="aogonek" xMin="34" yMin="-172" xMax="355" yMax="570">
      <component glyphName="a" x="0" y="0" flags="0x0"/>
      <component glyphName="ogonek" x="133" y="0" flags="0x0"/>
    </TTGlyph>
    <TTGlyph name="apostrophemod" xMin="30" yMin="517" xMax="122" yMax="710">
      <component glyphName="quoteright" x="0" y="0" flags="0x0"/>
    </TTGlyph>
    <TTGlyph name="approxequal" xMin="45" yMin="209" xMax="393" yMax="459">
      <contour>
        <pt x="391" y="451" on="0"/>
        <pt x="393" y="438" on="0"/>
        <pt x="393" y="429" on="1"/>
        <pt x="393" y="389" on="0"/>
        <pt x="346" y="346" on="0"/>
        <pt x="311" y="346" on="1"/>
        <pt x="286" y="346" on="0"/>
        <pt x="255" y="359" on="1"/>
        <pt x="176" y="396" on="1"/>
        <pt x="148" y="409" on="0"/>
        <pt x="129" y="409" on="1"/>
        <pt x="111" y="409" on="0"/>
        <pt x="90" y="389" on="0"/>
        <pt x="90" y="369" on="1"/>
        <pt x="90" y="365" on="0"/>
        <pt x="92" y="353" on="1"/>
        <pt x="48" y="353" on="1"/>
        <pt x="47" y="355" on="0"/>
        <pt x="45" y="368" on="0"/>
        <pt x="45" y="377" on="1"/>
        <pt x="45" y="416" on="0"/>
        <pt x="92" y="459" on="0"/>
        <pt x="128" y="459" on="1"/>
        <pt x="157" y="459" on="0"/>
        <pt x="183" y="446" on="1"/>
        <pt x="262" y="409" on="1"/>
        <pt x="288" y="396" on="0"/>
        <pt x="310" y="396" on="1"/>
        <pt x="328" y="396" on="0"/>
        <pt x="348" y="416" on="0"/>
        <pt x="348" y="436" on="1"/>
        <pt x="348" y="441" on="0"/>
        <pt x="346" y="453" on="1"/>
        <pt x="390" y="453" on="1"/>
      </contour>
      <contour>
        <pt x="391" y="313" on="0"/>
        <pt x="393" y="300" on="0"/>
        <pt x="393" y="291" on="1"/>
        <pt x="393" y="251" on="0"/>
        <pt x="347" y="209" on="0"/>
        <pt x="311" y="209" on="1"/>
        <pt x="282" y="209" on="0"/>
        <pt x="255" y="222" on="1"/>
        <pt x="176" y="259" on="1"/>
        <pt x="150" y="271" on="0"/>
        <pt x="130" y="271" on="1"/>
        <pt x="112" y="271" on="0"/>
        <pt x="90" y="251" on="0"/>
        <pt x="90" y="231" on="1"/>
        <pt x="90" y="227" on="0"/>
        <pt x="92" y="215" on="1"/>
        <pt x="48" y="215" on="1"/>
        <pt x="47" y="217" on="0"/>
        <pt x="45" y="230" on="0"/>
        <pt x="45" y="239" on="1"/>
        <pt x="45" y="279" on="0"/>
        <pt x="92" y="322" on="0"/>
        <pt x="128" y="322" on="1"/>
        <pt x="154" y="322" on="0"/>
        <pt x="183" y="309" on="1"/>
        <pt x="262" y="272" on="1"/>
        <pt x="290" y="258" on="0"/>
        <pt x="310" y="258" on="1"/>
        <pt x="328" y="258" on="0"/>
        <pt x="348" y="278" on="0"/>
        <pt x="348" y="298" on="1"/>
        <pt x="348" y="303" on="0"/>
        <pt x="346" y="315" on="1"/>
        <pt x="390" y="315" on="1"/>
      </contour>
    </TTGlyph>
    <TTGlyph name="aring" xMin="34" yMin="-4" xMax="355" yMax="734">
      <component glyphName="a" x="0" y="0" flags="0x0"/>
      <component glyphName="ring" x="34" y="0" flags="0x0"/>
    </TTGlyph>
    <TTGlyph name="asciicircum" xMin="4" yMin="376" xMax="288" yMax="651">
      <contour>
        <pt x="234" y="376" on="1"/>
        <pt x="146" y="623" on="1"/>
        <pt x="58" y="376" on="1"/>
        <pt x="4" y="376" on="1"/>
        <pt x="106" y="651" on="1"/>
        <pt x="187" y="651" on="1"/>
        <pt x="288" y="376" on="1"/>
      </contour>
    </TTGlyph>
    <TTGlyph name="asciitilde" xMin="23" yMin="280" xMax="371" yMax="393">
      <contour>
        <pt x="369" y="385" on="0"/>
        <pt x="371" y="372" on="0"/>
        <pt x="371" y="363" on="1"/>
        <pt x="371" y="323" on="0"/>
        <pt x="324" y="280" on="0"/>
        <pt x="289" y="280" on="1"/>
        <pt x="264" y="280" on="0"/>
        <pt x="233" y="293" on="1"/>
        <pt x="154" y="330" on="1"/>
        <pt x="129" y="342" on="0"/>
        <pt x="107" y="342" on="1"/>
        <pt x="89" y="342" on="0"/>
        <pt x="68" y="323" on="0"/>
        <pt x="68" y="303" on="1"/>
        <pt x="68" y="299" on="0"/>
        <pt x="70" y="287" on="1"/>
        <pt x="25" y="287" on="1"/>
        <pt x="25" y="289" on="0"/>
        <pt x="23" y="302" on="0"/>
        <pt x="23" y="311" on="1"/>
        <pt x="23" y="350" on="0"/>
        <pt x="70" y="393" on="0"/>
        <pt x="106" y="393" on="1"/>
        <pt x="135" y="393" on="0"/>
        <pt x="161" y="380" on="1"/>
        <pt x="240" y="343" on="1"/>
        <pt x="266" y="330" on="0"/>
        <pt x="288" y="330" on="1"/>
        <pt x="306" y="330" on="0"/>
        <pt x="326" y="350" on="0"/>
        <pt x="326" y="370" on="1"/>
        <pt x="326" y="375" on="0"/>
        <pt x="324" y="387" on="1"/>
        <pt x="368" y="387" on="1"/>
      </contour>
    </TTGlyph>
    <TTGlyph name="asterisk" xMin="67" yMin="438" xMax="423" yMax="776">
      <contour>
        <pt x="289" y="577" on="0"/>
        <pt x="308" y="550" on="1"/>
        <pt x="370" y="466" on="1"/>
        <pt x="331" y="438" on="1"/>
        <pt x="270" y="521" on="1"/>
        <pt x="250" y="547" on="0"/>
        <pt x="244" y="571" on="1"/>
        <pt x="239" y="549" on="0"/>
        <pt x="219" y="522" on="1"/>
        <pt x="159" y="438" on="1"/>
        <pt x="120" y="466" on="1"/>
        <pt x="180" y="549" on="1"/>
        <pt x="199" y="576" on="0"/>
        <pt x="220" y="589" on="1"/>
        <pt x="195" y="587" on="0"/>
        <pt x="165" y="597" on="1"/>
        <pt x="67" y="629" on="1"/>
        <pt x="81" y="675" on="1"/>
        <pt x="179" y="644" on="1"/>
        <pt x="211" y="634" on="0"/>
        <pt x="229" y="618" on="1"/>
        <pt x="220" y="638" on="0"/>
        <pt x="220" y="673" on="1"/>
        <pt x="220" y="776" on="1"/>
        <pt x="268" y="776" on="1"/>
        <pt x="268" y="673" on="1"/>
        <pt x="268" y="639" on="0"/>
        <pt x="259" y="617" on="1"/>
        <pt x="274" y="632" on="0"/>
        <pt x="309" y="643" on="1"/>
        <pt x="407" y="676" on="1"/>
        <pt x="423" y="630" on="1"/>
        <pt x="325" y="598" on="1"/>
        <pt x="291" y="587" on="0"/>
        <pt x="269" y="589" on="1"/>
      </contour>
    </TTGlyph>
    <TTGlyph name="at" xMin="75" yMin="-109" xMax="780" yMax="653">
      <contour>
        <pt x="615" y="653" on="0"/>
        <pt x="780" y="468" on="0"/>
        <pt x="780" y="282" on="1"/>
        <pt x="780" y="150" on="0"/>
        <pt x="703" y="31" on="0"/>
        <pt x="629" y="31" on="1"/>
        <pt x="554" y="31" on="0"/>
        <pt x="526" y="79" on="1"/>
        <pt x="510" y="66" on="0"/>
        <pt x="451" y="45" on="0"/>
        <pt x="406" y="45" on="1"/>
        <pt x="347" y="45" on="0"/>
        <pt x="281" y="104" on="0"/>
        <pt x="281" y="159" on="1"/>
        <pt x="281" y="171" on="1"/>
        <pt x="281" y="224" on="0"/>
        <pt x="341" y="277" on="0"/>
        <pt x="401" y="296" on="1"/>
        <pt x="508" y="329" on="1"/>
        <pt x="508" y="384" on="1"/>
        <pt x="508" y="421" on="0"/>
        <pt x="473" y="460" on="0"/>
        <pt x="428" y="460" on="1"/>
        <pt x="400" y="460" on="0"/>
        <pt x="350" y="453" on="0"/>
        <pt x="306" y="443" on="1"/>
        <pt x="306" y="492" on="1"/>
        <pt x="370" y="508" on="0"/>
        <pt x="428" y="508" on="1"/>
        <pt x="495" y="508" on="0"/>
        <pt x="559" y="442" on="0"/>
        <pt x="559" y="384" on="1"/>
        <pt x="559" y="159" on="1"/>
        <pt x="559" y="116" on="0"/>
        <pt x="593" y="79" on="0"/>
        <pt x="630" y="79" on="1"/>
        <pt x="676" y="79" on="0"/>
        <pt x="727" y="171" on="0"/>
        <pt x="727" y="282" on="1"/>
        <pt x="727" y="445" on="0"/>
        <pt x="590" y="605" on="0"/>
        <pt x="427" y="605" on="1"/>
        <pt x="266" y="605" on="0"/>
        <pt x="128" y="437" on="0"/>
        <pt x="128" y="272" on="1"/>
        <pt x="128" y="107" on="0"/>
        <pt x="266" y="-61" on="0"/>
        <pt x="427" y="-61" on="1"/>
        <pt x="512" y="-61" on="1"/>
        <pt x="512" y="-109" on="1"/>
        <pt x="427" y="-109" on="1"/>
        <pt x="240" y="-109" on="0"/>
        <pt x="75" y="85" on="0"/>
        <pt x="75" y="272" on="1"/>
        <pt x="75" y="458" on="0"/>
        <pt x="243" y="653" on="0"/>
        <pt x="427" y="653" on="1"/>
      </contour>
      <contour>
        <pt x="508" y="279" on="1"/>
        <pt x="411" y="250" on="1"/>
        <pt x="370" y="238" on="0"/>
        <pt x="336" y="208" on="0"/>
        <pt x="336" y="171" on="1"/>
        <pt x="336" y="158" on="1"/>
        <pt x="336" y="91" on="0"/>
        <pt x="408" y="91" on="1"/>
        <pt x="437" y="91" on="0"/>
        <pt x="481" y="105" on="0"/>
        <pt x="508" y="122" on="0"/>
        <pt x="508" y="123" on="1"/>
      </contour>
    </TTGlyph>
    <TTGlyph name="atilde" xMin="34" yMin="-4" xMax="355" yMax="706">
      <component glyphName="a" x="0" y="0" flags="0x0"/>
      <component glyphName="tilde" x="37" y="0" flags="0x0"/>
    </TTGlyph>
    <TTGlyph name="b" xMin="73" yMin="0" xMax="382" yMax="716">
      <contour>
        <pt x="129" y="542" on="1"/>
        <pt x="194" y="568" on="0"/>
        <pt x="247" y="568" on="1"/>
        <pt x="310" y="568" on="0"/>
        <pt x="382" y="498" on="0"/>
        <pt x="382" y="435" on="1"/>
        <pt x="382" y="148" on="1"/>
        <pt x="382" y="77" on="0"/>
        <pt x="301" y="0" on="0"/>
        <pt x="234" y="0" on="1"/>
        <pt x="73" y="0" on="1"/>
        <pt x="73" y="716" on="1"/>
        <pt x="129" y="716" on="1"/>
      </contour>
      <contour>
        <pt x="324" y="514" on="0"/>
        <pt x="243" y="514" on="1"/>
        <pt x="217" y="514" on="0"/>
        <pt x="163" y="500" on="0"/>
        <pt x="130" y="487" on="1"/>
        <pt x="130" y="52" on="1"/>
        <pt x="221" y="52" on="1"/>
        <pt x="324" y="52" on="0"/>
        <pt x="324" y="150" on="1"/>
        <pt x="324" y="432" on="1"/>
      </contour>
    </TTGlyph>
    <TTGlyph name="backslash" xMin="32" yMin="-125" xMax="352" yMax="772">
      <contour>
        <pt x="352" y="-125" on="1"/>
        <pt x="301" y="-125" on="1"/>
        <pt x="32" y="772" on="1"/>
        <pt x="83" y="772" on="1"/>
      </contour>
    </TTGlyph>
    <TTGlyph name="bar" xMin="79" yMin="-144" xMax="126" yMax="791">
      <contour>
        <pt x="126" y="-144" on="1"/>
        <pt x="79" y="-144" on="1"/>
        <pt x="79" y="791" on="1"/>
        <pt x="126" y="791" on="1"/>
      </contour>
    </TTGlyph>
    <TTGlyph name="braceleft" xMin="60" yMin="-125" xMax="289" yMax="771">
      <contour>
        <pt x="191" y="386" on="0"/>
        <pt x="154" y="329" on="0"/>
        <pt x="106" y="323" on="1"/>
        <pt x="154" y="318" on="0"/>
        <pt x="191" y="261" on="0"/>
        <pt x="191" y="205" on="1"/>
        <pt x="191" y="-5" on="1"/>
        <pt x="191" y="-76" on="0"/>
        <pt x="279" y="-76" on="1"/>
        <pt x="289" y="-76" on="1"/>
        <pt x="289" y="-125" on="1"/>
        <pt x="278" y="-125" on="1"/>
        <pt x="212" y="-125" on="0"/>
        <pt x="139" y="-61" on="0"/>
        <pt x="139" y="-4" on="1"/>
        <pt x="139" y="226" on="1"/>
        <pt x="139" y="260" on="0"/>
        <pt x="99" y="299" on="0"/>
        <pt x="62" y="299" on="1"/>
        <pt x="60" y="299" on="1"/>
        <pt x="60" y="347" on="1"/>
        <pt x="62" y="347" on="1"/>
        <pt x="99" y="347" on="0"/>
        <pt x="139" y="387" on="0"/>
        <pt x="139" y="420" on="1"/>
        <pt x="139" y="650" on="1"/>
        <pt x="139" y="707" on="0"/>
        <pt x="212" y="771" on="0"/>
        <pt x="278" y="771" on="1"/>
        <pt x="289" y="771" on="1"/>
        <pt x="289" y="722" on="1"/>
        <pt x="279" y="722" on="1"/>
        <pt x="191" y="722" on="0"/>
        <pt x="191" y="651" on="1"/>
        <pt x="191" y="442" on="1"/>
      </contour>
    </TTGlyph>
    <TTGlyph name="braceright" xMin="51" yMin="-125" xMax="281" yMax="771">
      <contour>
        <pt x="281" y="299" on="1"/>
        <pt x="279" y="299" on="1"/>
        <pt x="241" y="299" on="0"/>
        <pt x="201" y="260" on="0"/>
        <pt x="201" y="226" on="1"/>
        <pt x="201" y="-4" on="1"/>
        <pt x="201" y="-61" on="0"/>
        <pt x="129" y="-125" on="0"/>
        <pt x="63" y="-125" on="1"/>
        <pt x="51" y="-125" on="1"/>
        <pt x="51" y="-76" on="1"/>
        <pt x="61" y="-76" on="1"/>
        <pt x="150" y="-76" on="0"/>
        <pt x="150" y="-5" on="1"/>
        <pt x="150" y="205" on="1"/>
        <pt x="150" y="261" on="0"/>
        <pt x="186" y="318" on="0"/>
        <pt x="235" y="323" on="1"/>
        <pt x="186" y="329" on="0"/>
        <pt x="150" y="386" on="0"/>
        <pt x="150" y="442" on="1"/>
        <pt x="150" y="651" on="1"/>
        <pt x="150" y="722" on="0"/>
        <pt x="61" y="722" on="1"/>
        <pt x="51" y="722" on="1"/>
        <pt x="51" y="771" on="1"/>
        <pt x="63" y="771" on="1"/>
        <pt x="129" y="771" on="0"/>
        <pt x="201" y="707" on="0"/>
        <pt x="201" y="650" on="1"/>
        <pt x="201" y="420" on="1"/>
        <pt x="201" y="387" on="0"/>
        <pt x="241" y="347" on="0"/>
        <pt x="279" y="347" on="1"/>
        <pt x="281" y="347" on="1"/>
      </contour>
    </TTGlyph>
    <TTGlyph name="bracketleft" xMin="81" yMin="-125" xMax="255" yMax="772">
      <contour>
        <pt x="255" y="-79" on="1"/>
        <pt x="255" y="-125" on="1"/>
        <pt x="81" y="-125" on="1"/>
        <pt x="81" y="772" on="1"/>
        <pt x="255" y="772" on="1"/>
        <pt x="255" y="726" on="1"/>
        <pt x="131" y="726" on="1"/>
        <pt x="131" y="-79" on="1"/>
      </contour>
    </TTGlyph>
    <TTGlyph name="bracketright" xMin="27" yMin="-125" xMax="202" yMax="772">
      <contour>
        <pt x="202" y="772" on="1"/>
        <pt x="202" y="-125" on="1"/>
        <pt x="27" y="-125" on="1"/>
        <pt x="27" y="-79" on="1"/>
        <pt x="151" y="-79" on="1"/>
        <pt x="151" y="726" on="1"/>
        <pt x="27" y="726" on="1"/>
        <pt x="27" y="772" on="1"/>
      </contour>
    </TTGlyph>
    <TTGlyph name="breve" xMin="67" yMin="610" xMax="283" yMax="716">
      <contour>
        <pt x="281" y="670" on="0"/>
        <pt x="225" y="610" on="0"/>
        <pt x="175" y="610" on="1"/>
        <pt x="125" y="610" on="0"/>
        <pt x="69" y="670" on="0"/>
        <pt x="67" y="716" on="1"/>
        <pt x="113" y="716" on="1"/>
        <pt x="114" y="686" on="0"/>
        <pt x="146" y="652" on="0"/>
        <pt x="175" y="652" on="1"/>
        <pt x="204" y="652" on="0"/>
        <pt x="236" y="686" on="0"/>
        <pt x="237" y="716" on="1"/>
        <pt x="283" y="716" on="1"/>
      </contour>
    </TTGlyph>
    <TTGlyph name="brokenbar" xMin="79" yMin="-144" xMax="126" yMax="791">
      <contour>
        <pt x="126" y="415" on="1"/>
        <pt x="79" y="415" on="1"/>
        <pt x="79" y="791" on="1"/>
        <pt x="126" y="791" on="1"/>
      </contour>
      <contour>
        <pt x="126" y="-144" on="1"/>
        <pt x="79" y="-144" on="1"/>
        <pt x="79" y="232" on="1"/>
        <pt x="126" y="232" on="1"/>
      </contour>
    </TTGlyph>
    <TTGlyph name="bullet" xMin="68" yMin="256" xMax="204" yMax="391">
      <contour>
        <pt x="68" y="391" on="0"/>
        <pt x="136" y="391" on="1"/>
        <pt x="171" y="391" on="0"/>
        <pt x="204" y="354" on="0"/>
        <pt x="204" y="323" on="1"/>
        <pt x="204" y="292" on="0"/>
        <pt x="171" y="256" on="0"/>
        <pt x="136" y="256" on="1"/>
        <pt x="68" y="256" on="0"/>
        <pt x="68" y="323" on="1"/>
      </contour>
    </TTGlyph>
    <TTGlyph name="c" xMin="63" yMin="-5" xMax="331" yMax="570">
      <contour>
        <pt x="63" y="500" on="0"/>
        <pt x="140" y="570" on="0"/>
        <pt x="226" y="570" on="1"/>
        <pt x="284" y="570" on="0"/>
        <pt x="329" y="557" on="1"/>
        <pt x="329" y="504" on="1"/>
        <pt x="285" y="517" on="0"/>
        <pt x="228" y="517" on="1"/>
        <pt x="165" y="517" on="0"/>
        <pt x="120" y="475" on="0"/>
        <pt x="120" y="431" on="1"/>
        <pt x="120" y="133" on="1"/>
        <pt x="120" y="89" on="0"/>
        <pt x="165" y="48" on="0"/>
        <pt x="228" y="48" on="1"/>
        <pt x="288" y="48" on="0"/>
        <pt x="331" y="63" on="1"/>
        <pt x="331" y="9" on="1"/>
        <pt x="279" y="-5" on="0"/>
        <pt x="226" y="-5" on="1"/>
        <pt x="140" y="-5" on="0"/>
        <pt x="63" y="65" on="0"/>
        <pt x="63" y="132" on="1"/>
        <pt x="63" y="432" on="1"/>
      </contour>
    </TTGlyph>
    <TTGlyph name="cacute" xMin="63" yMin="-5" xMax="331" yMax="716">
      <component glyphName="c" x="0" y="0" flags="0x0"/>
      <component glyphName="acute" x="78" y="0" flags="0x0"/>
    </TTGlyph>
    <TTGlyph name="caron" xMin="101" yMin="610" xMax="249" yMax="716">
      <contour>
        <pt x="249" y="716" on="1"/>
        <pt x="200" y="610" on="1"/>
        <pt x="150" y="610" on="1"/>
        <pt x="101" y="716" on="1"/>
        <pt x="140" y="716" on="1"/>
        <pt x="175" y="650" on="1"/>
        <pt x="210" y="716" on="1"/>
      </contour>
    </TTGlyph>
    <TTGlyph name="ccaron" xMin="63" yMin="-5" xMax="331" yMax="716">
      <component glyphName="c" x="0" y="0" flags="0x0"/>
      <component glyphName="caron" x="44" y="0" flags="0x0"/>
    </TTGlyph>
    <TTGlyph name="ccedilla" xMin="63" yMin="-180" xMax="331" yMax="570">
      <component glyphName="c" x="0" y="0" flags="0x0"/>
      <component glyphName="cedilla" x="42" y="0" flags="0x0"/>
    </TTGlyph>
    <TTGlyph name="cedilla" xMin="106" yMin="-180" xMax="243" yMax="6">
      <contour>
        <pt x="174" y="-40" on="1"/>
        <pt x="205" y="-42" on="0"/>
        <pt x="243" y="-76" on="0"/>
        <pt x="243" y="-107" on="1"/>
        <pt x="243" y="-142" on="0"/>
        <pt x="194" y="-180" on="0"/>
        <pt x="156" y="-180" on="1"/>
        <pt x="126" y="-180" on="0"/>
        <pt x="106" y="-173" on="1"/>
        <pt x="106" y="-137" on="1"/>
        <pt x="124" y="-145" on="0"/>
        <pt x="150" y="-145" on="1"/>
        <pt x="175" y="-145" on="0"/>
        <pt x="205" y="-126" on="0"/>
        <pt x="205" y="-107" on="1"/>
        <pt x="205" y="-68" on="0"/>
        <pt x="149" y="-68" on="1"/>
        <pt x="135" y="-68" on="1"/>
        <pt x="150" y="6" on="1"/>
        <pt x="184" y="6" on="1"/>
      </contour>
    </TTGlyph>
    <TTGlyph name="cent" xMin="72" yMin="-79" xMax="340" yMax="653">
      <contour>
        <pt x="340" y="9" on="1"/>
        <pt x="304" y="-1" on="0"/>
        <pt x="260" y="-4" on="1"/>
        <pt x="260" y="-79" on="1"/>
        <pt x="208" y="-79" on="1"/>
        <pt x="208" y="-4" on="1"/>
        <pt x="137" y="1" on="0"/>
        <pt x="72" y="70" on="0"/>
        <pt x="72" y="132" on="1"/>
        <pt x="72" y="432" on="1"/>
        <pt x="72" y="494" on="0"/>
        <pt x="136" y="563" on="0"/>
        <pt x="207" y="569" on="1"/>
        <pt x="207" y="653" on="1"/>
        <pt x="259" y="653" on="1"/>
        <pt x="259" y="569" on="1"/>
        <pt x="304" y="568" on="0"/>
        <pt x="338" y="557" on="1"/>
        <pt x="338" y="504" on="1"/>
        <pt x="294" y="517" on="0"/>
        <pt x="237" y="517" on="1"/>
        <pt x="174" y="517" on="0"/>
        <pt x="129" y="475" on="0"/>
        <pt x="129" y="431" on="1"/>
        <pt x="129" y="133" on="1"/>
        <pt x="129" y="89" on="0"/>
        <pt x="174" y="48" on="0"/>
        <pt x="237" y="48" on="1"/>
        <pt x="297" y="48" on="0"/>
        <pt x="340" y="63" on="1"/>
      </contour>
    </TTGlyph>
    <TTGlyph name="circumflex" xMin="101" yMin="610" xMax="249" yMax="716">
      <contour>
        <pt x="210" y="610" on="1"/>
        <pt x="175" y="676" on="1"/>
        <pt x="140" y="610" on="1"/>
        <pt x="101" y="610" on="1"/>
        <pt x="150" y="716" on="1"/>
        <pt x="200" y="716" on="1"/>
        <pt x="249" y="610" on="1"/>
      </contour>
    </TTGlyph>
    <TTGlyph name="colon" xMin="31" yMin="-5" xMax="104" yMax="425">
      <contour>
        <pt x="31" y="405" on="0"/>
        <pt x="48" y="425" on="0"/>
        <pt x="67" y="425" on="1"/>
        <pt x="104" y="425" on="0"/>
        <pt x="104" y="385" on="1"/>
        <pt x="104" y="345" on="0"/>
        <pt x="67" y="345" on="1"/>
        <pt x="48" y="345" on="0"/>
        <pt x="31" y="365" on="0"/>
        <pt x="31" y="385" on="1"/>
      </contour>
      <contour>
        <pt x="31" y="75" on="0"/>
        <pt x="67" y="75" on="1"/>
        <pt x="104" y="75" on="0"/>
        <pt x="104" y="35" on="1"/>
        <pt x="104" y="-5" on="0"/>
        <pt x="67" y="-5" on="1"/>
        <pt x="48" y="-5" on="0"/>
        <pt x="31" y="15" on="0"/>
        <pt x="31" y="35" on="1"/>
      </contour>
    </TTGlyph>
    <TTGlyph name="comma" xMin="5" yMin="-125" xMax="105" yMax="75">
      <contour>
        <pt x="88" y="75" on="0"/>
        <pt x="105" y="60" on="0"/>
        <pt x="105" y="46" on="1"/>
        <pt x="105" y="12" on="0"/>
        <pt x="40" y="-125" on="1"/>
        <pt x="5" y="-125" on="1"/>
        <pt x="45" y="75" on="1"/>
        <pt x="74" y="75" on="1"/>
      </contour>
    </TTGlyph>
    <TTGlyph name="copyright" xMin="49" yMin="0" xMax="634" yMax="646">
      <contour>
        <pt x="49" y="424" on="0"/>
        <pt x="99" y="565" on="0"/>
        <pt x="229" y="646" on="0"/>
        <pt x="343" y="646" on="1"/>
        <pt x="458" y="646" on="0"/>
        <pt x="586" y="566" on="0"/>
        <pt x="634" y="426" on="0"/>
        <pt x="634" y="322" on="1"/>
        <pt x="634" y="170" on="0"/>
        <pt x="503" y="0" on="0"/>
        <pt x="343" y="0" on="1"/>
        <pt x="180" y="0" on="0"/>
        <pt x="49" y="168" on="0"/>
        <pt x="49" y="322" on="1"/>
      </contour>
      <contour>
        <pt x="583" y="414" on="0"/>
        <pt x="548" y="531" on="0"/>
        <pt x="443" y="598" on="0"/>
        <pt x="343" y="598" on="1"/>
        <pt x="242" y="598" on="0"/>
        <pt x="136" y="530" on="0"/>
        <pt x="100" y="412" on="0"/>
        <pt x="100" y="322" on="1"/>
        <pt x="100" y="233" on="0"/>
        <pt x="137" y="115" on="0"/>
        <pt x="244" y="48" on="0"/>
        <pt x="343" y="48" on="1"/>
        <pt x="440" y="48" on="0"/>
        <pt x="545" y="117" on="0"/>
        <pt x="583" y="235" on="0"/>
        <pt x="583" y="322" on="1"/>
      </contour>
      <contour>
        <pt x="226" y="438" on="0"/>
        <pt x="286" y="502" on="0"/>
        <pt x="356" y="502" on="1"/>
        <pt x="395" y="502" on="0"/>
        <pt x="430" y="495" on="1"/>
        <pt x="430" y="445" on="1"/>
        <pt x="400" y="455" on="0"/>
        <pt x="357" y="455" on="1"/>
        <pt x="322" y="455" on="0"/>
        <pt x="287" y="435" on="0"/>
        <pt x="277" y="402" on="0"/>
        <pt x="277" y="376" on="1"/>
        <pt x="277" y="270" on="1"/>
        <pt x="277" y="243" on="0"/>
        <pt x="287" y="211" on="0"/>
        <pt x="321" y="191" on="0"/>
        <pt x="357" y="191" on="1"/>
        <pt x="396" y="191" on="0"/>
        <pt x="431" y="201" on="1"/>
        <pt x="431" y="150" on="1"/>
        <pt x="382" y="143" on="0"/>
        <pt x="356" y="143" on="1"/>
        <pt x="286" y="143" on="0"/>
        <pt x="226" y="208" on="0"/>
        <pt x="226" y="269" on="1"/>
        <pt x="226" y="376" on="1"/>
      </contour>
    </TTGlyph>
    <TTGlyph name="currency" xMin="49" yMin="142" xMax="411" yMax="526">
      <contour>
        <pt x="380" y="253" on="0"/>
        <pt x="367" y="223" on="1"/>
        <pt x="411" y="181" on="1"/>
        <pt x="373" y="142" on="1"/>
        <pt x="334" y="179" on="1"/>
        <pt x="296" y="152" on="0"/>
        <pt x="230" y="152" on="1"/>
        <pt x="163" y="152" on="0"/>
        <pt x="127" y="180" on="1"/>
        <pt x="88" y="142" on="1"/>
        <pt x="49" y="181" on="1"/>
        <pt x="93" y="224" on="1"/>
        <pt x="81" y="256" on="0"/>
        <pt x="81" y="297" on="1"/>
        <pt x="81" y="371" on="1"/>
        <pt x="81" y="413" on="0"/>
        <pt x="93" y="444" on="1"/>
        <pt x="49" y="487" on="1"/>
        <pt x="88" y="526" on="1"/>
        <pt x="127" y="488" on="1"/>
        <pt x="163" y="516" on="0"/>
        <pt x="230" y="516" on="1"/>
        <pt x="296" y="516" on="0"/>
        <pt x="334" y="489" on="1"/>
        <pt x="373" y="526" on="1"/>
        <pt x="411" y="487" on="1"/>
        <pt x="367" y="445" on="1"/>
        <pt x="380" y="415" on="0"/>
        <pt x="380" y="371" on="1"/>
        <pt x="380" y="297" on="1"/>
      </contour>
      <contour>
        <pt x="284" y="202" on="0"/>
        <pt x="323" y="248" on="0"/>
        <pt x="323" y="298" on="1"/>
        <pt x="323" y="370" on="1"/>
        <pt x="323" y="420" on="0"/>
        <pt x="284" y="466" on="0"/>
        <pt x="230" y="466" on="1"/>
        <pt x="176" y="466" on="0"/>
        <pt x="137" y="420" on="0"/>
        <pt x="137" y="370" on="1"/>
        <pt x="137" y="298" on="1"/>
        <pt x="137" y="248" on="0"/>
        <pt x="176" y="202" on="0"/>
        <pt x="230" y="202" on="1"/>
      </contour>
    </TTGlyph>
    <TTGlyph name="d" xMin="63" yMin="-3" xMax="372" yMax="716">
      <contour>
        <pt x="372" y="0" on="1"/>
        <pt x="315" y="0" on="1"/>
        <pt x="315" y="32" on="1"/>
        <pt x="272" y="-3" on="0"/>
        <pt x="206" y="-3" on="1"/>
        <pt x="135" y="-3" on="0"/>
        <pt x="63" y="71" on="0"/>
        <pt x="63" y="141" on="1"/>
        <pt x="63" y="420" on="1"/>
        <pt x="63" y="489" on="0"/>
        <pt x="145" y="565" on="0"/>
        <pt x="212" y="565" on="1"/>
        <pt x="314" y="565" on="1"/>
        <pt x="314" y="716" on="1"/>
        <pt x="372" y="716" on="1"/>
      </contour>
      <contour>
        <pt x="224" y="512" on="1"/>
        <pt x="173" y="512" on="0"/>
        <pt x="120" y="466" on="0"/>
        <pt x="120" y="420" on="1"/>
        <pt x="120" y="142" on="1"/>
        <pt x="120" y="49" on="0"/>
        <pt x="210" y="49" on="1"/>
        <pt x="245" y="49" on="0"/>
        <pt x="298" y="71" on="0"/>
        <pt x="314" y="87" on="1"/>
        <pt x="314" y="512" on="1"/>
      </contour>
    </TTGlyph>
    <TTGlyph name="dagger" xMin="53" yMin="-29" xMax="294" yMax="769">
      <contour>
        <pt x="199" y="732" on="0"/>
        <pt x="195" y="653" on="0"/>
        <pt x="194" y="642" on="1"/>
        <pt x="202" y="643" on="0"/>
        <pt x="261" y="646" on="0"/>
        <pt x="294" y="646" on="1"/>
        <pt x="294" y="600" on="1"/>
        <pt x="261" y="600" on="0"/>
        <pt x="202" y="604" on="0"/>
        <pt x="194" y="605" on="1"/>
        <pt x="195" y="594" on="0"/>
        <pt x="199" y="515" on="0"/>
        <pt x="199" y="476" on="1"/>
        <pt x="199" y="-29" on="1"/>
        <pt x="148" y="-29" on="1"/>
        <pt x="148" y="476" on="1"/>
        <pt x="148" y="515" on="0"/>
        <pt x="152" y="594" on="0"/>
        <pt x="153" y="605" on="1"/>
        <pt x="146" y="604" on="0"/>
        <pt x="90" y="600" on="0"/>
        <pt x="53" y="600" on="1"/>
        <pt x="53" y="646" on="1"/>
        <pt x="90" y="646" on="0"/>
        <pt x="146" y="643" on="0"/>
        <pt x="153" y="642" on="1"/>
        <pt x="152" y="653" on="0"/>
        <pt x="148" y="732" on="0"/>
        <pt x="148" y="769" on="1"/>
        <pt x="199" y="769" on="1"/>
      </contour>
    </TTGlyph>
    <TTGlyph name="daggerdbl" xMin="53" yMin="-29" xMax="294" yMax="769">
      <contour>
        <pt x="199" y="732" on="0"/>
        <pt x="195" y="653" on="0"/>
        <pt x="194" y="642" on="1"/>
        <pt x="201" y="643" on="0"/>
        <pt x="257" y="646" on="0"/>
        <pt x="294" y="646" on="1"/>
        <pt x="294" y="600" on="1"/>
        <pt x="257" y="600" on="0"/>
        <pt x="201" y="604" on="0"/>
        <pt x="194" y="605" on="1"/>
        <pt x="196" y="461" on="0"/>
        <pt x="196" y="370" on="1"/>
        <pt x="196" y="280" on="0"/>
        <pt x="194" y="136" on="1"/>
        <pt x="201" y="137" on="0"/>
        <pt x="257" y="140" on="0"/>
        <pt x="294" y="140" on="1"/>
        <pt x="294" y="94" on="1"/>
        <pt x="257" y="94" on="0"/>
        <pt x="201" y="98" on="0"/>
        <pt x="194" y="99" on="1"/>
        <pt x="195" y="90" on="0"/>
        <pt x="199" y="19" on="0"/>
        <pt x="199" y="-29" on="1"/>
        <pt x="148" y="-29" on="1"/>
        <pt x="148" y="19" on="0"/>
        <pt x="152" y="90" on="0"/>
        <pt x="153" y="99" on="1"/>
        <pt x="146" y="98" on="0"/>
        <pt x="90" y="94" on="0"/>
        <pt x="53" y="94" on="1"/>
        <pt x="53" y="140" on="1"/>
        <pt x="90" y="140" on="0"/>
        <pt x="146" y="137" on="0"/>
        <pt x="153" y="136" on="1"/>
        <pt x="152" y="208" on="0"/>
        <pt x="152" y="370" on="1"/>
        <pt x="152" y="533" on="0"/>
        <pt x="153" y="605" on="1"/>
        <pt x="146" y="604" on="0"/>
        <pt x="90" y="600" on="0"/>
        <pt x="53" y="600" on="1"/>
        <pt x="53" y="646" on="1"/>
        <pt x="90" y="646" on="0"/>
        <pt x="146" y="643" on="0"/>
        <pt x="153" y="642" on="1"/>
        <pt x="152" y="653" on="0"/>
        <pt x="148" y="732" on="0"/>
        <pt x="148" y="769" on="1"/>
        <pt x="199" y="769" on="1"/>
      </contour>
    </TTGlyph>
    <TTGlyph name="danda" xMin="149" yMin="0" xMax="201" yMax="646">
      <contour>
        <pt x="201" y="646" on="1"/>
        <pt x="201" y="0" on="1"/>
        <pt x="149" y="0" on="1"/>
        <pt x="149" y="646" on="1"/>
      </contour>
    </TTGlyph>
    <TTGlyph name="dcaron" xMin="63" yMin="-3" xMax="490" yMax="716">
      <contour>
        <pt x="372" y="0" on="1"/>
        <pt x="315" y="0" on="1"/>
        <pt x="315" y="32" on="1"/>
        <pt x="272" y="-3" on="0"/>
        <pt x="206" y="-3" on="1"/>
        <pt x="135" y="-3" on="0"/>
        <pt x="63" y="71" on="0"/>
        <pt x="63" y="141" on="1"/>
        <pt x="63" y="420" on="1"/>
        <pt x="63" y="489" on="0"/>
        <pt x="145" y="565" on="0"/>
        <pt x="212" y="565" on="1"/>
        <pt x="314" y="565" on="1"/>
        <pt x="314" y="716" on="1"/>
        <pt x="372" y="716" on="1"/>
      </contour>
      <contour>
        <pt x="475" y="714" on="0"/>
        <pt x="490" y="701" on="0"/>
        <pt x="490" y="689" on="1"/>
        <pt x="490" y="667" on="0"/>
        <pt x="445" y="598" on="1"/>
        <pt x="412" y="598" on="1"/>
        <pt x="439" y="714" on="1"/>
        <pt x="464" y="714" on="1"/>
      </contour>
      <contour>
        <pt x="224" y="512" on="1"/>
        <pt x="173" y="512" on="0"/>
        <pt x="120" y="466" on="0"/>
        <pt x="120" y="420" on="1"/>
        <pt x="120" y="142" on="1"/>
        <pt x="120" y="49" on="0"/>
        <pt x="210" y="49" on="1"/>
        <pt x="245" y="49" on="0"/>
        <pt x="298" y="71" on="0"/>
        <pt x="314" y="87" on="1"/>
        <pt x="314" y="512" on="1"/>
      </contour>
    </TTGlyph>
    <TTGlyph name="dcroat" xMin="63" yMin="-3" xMax="412" yMax="716">
      <contour>
        <pt x="412" y="626" on="1"/>
        <pt x="372" y="626" on="1"/>
        <pt x="372" y="0" on="1"/>
        <pt x="315" y="0" on="1"/>
        <pt x="315" y="32" on="1"/>
        <pt x="272" y="-3" on="0"/>
        <pt x="206" y="-3" on="1"/>
        <pt x="135" y="-3" on="0"/>
        <pt x="63" y="71" on="0"/>
        <pt x="63" y="141" on="1"/>
        <pt x="63" y="420" on="1"/>
        <pt x="63" y="489" on="0"/>
        <pt x="145" y="565" on="0"/>
        <pt x="212" y="565" on="1"/>
        <pt x="314" y="565" on="1"/>
        <pt x="314" y="626" on="1"/>
        <pt x="191" y="626" on="1"/>
        <pt x="191" y="669" on="1"/>
        <pt x="314" y="669" on="1"/>
        <pt x="314" y="716" on="1"/>
        <pt x="372" y="716" on="1"/>
        <pt x="372" y="669" on="1"/>
        <pt x="412" y="669" on="1"/>
      </contour>
      <contour>
        <pt x="314" y="512" on="1"/>
        <pt x="224" y="512" on="1"/>
        <pt x="173" y="512" on="0"/>
        <pt x="120" y="466" on="0"/>
        <pt x="120" y="420" on="1"/>
        <pt x="120" y="142" on="1"/>
        <pt x="120" y="49" on="0"/>
        <pt x="210" y="49" on="1"/>
        <pt x="245" y="49" on="0"/>
        <pt x="298" y="71" on="0"/>
        <pt x="314" y="87" on="1"/>
      </contour>
    </TTGlyph>
    <TTGlyph name="degree" xMin="54" yMin="509" xMax="311" yMax="785">
      <contour>
        <pt x="54" y="710" on="0"/>
        <pt x="114" y="785" on="0"/>
        <pt x="182" y="785" on="1"/>
        <pt x="250" y="785" on="0"/>
        <pt x="311" y="710" on="0"/>
        <pt x="311" y="646" on="1"/>
        <pt x="311" y="583" on="0"/>
        <pt x="250" y="509" on="0"/>
        <pt x="182" y="509" on="1"/>
        <pt x="114" y="509" on="0"/>
        <pt x="54" y="583" on="0"/>
        <pt x="54" y="646" on="1"/>
      </contour>
      <contour>
        <pt x="265" y="690" on="0"/>
        <pt x="231" y="738" on="0"/>
        <pt x="182" y="738" on="1"/>
        <pt x="134" y="738" on="0"/>
        <pt x="100" y="690" on="0"/>
        <pt x="100" y="645" on="1"/>
        <pt x="100" y="601" on="0"/>
        <pt x="134" y="553" on="0"/>
        <pt x="182" y="553" on="1"/>
        <pt x="231" y="553" on="0"/>
        <pt x="265" y="601" on="0"/>
        <pt x="265" y="645" on="1"/>
      </contour>
    </TTGlyph>
    <TTGlyph name="dieresis" xMin="75" yMin="627" xMax="274" yMax="696">
      <contour>
        <pt x="75" y="677" on="0"/>
        <pt x="92" y="696" on="0"/>
        <pt x="110" y="696" on="1"/>
        <pt x="145" y="696" on="0"/>
        <pt x="145" y="661" on="1"/>
        <pt x="145" y="627" on="0"/>
        <pt x="110" y="627" on="1"/>
        <pt x="75" y="627" on="0"/>
        <pt x="75" y="661" on="1"/>
      </contour>
      <contour>
        <pt x="204" y="696" on="0"/>
        <pt x="239" y="696" on="1"/>
        <pt x="257" y="696" on="0"/>
        <pt x="274" y="677" on="0"/>
        <pt x="274" y="661" on="1"/>
        <pt x="274" y="627" on="0"/>
        <pt x="239" y="627" on="1"/>
        <pt x="204" y="627" on="0"/>
        <pt x="204" y="661" on="1"/>
      </contour>
    </TTGlyph>
    <TTGlyph name="divide" xMin="40" yMin="113" xMax="387" yMax="528">
      <contour>
        <pt x="180" y="528" on="0"/>
        <pt x="217" y="528" on="1"/>
        <pt x="253" y="528" on="0"/>
        <pt x="253" y="492" on="1"/>
        <pt x="253" y="456" on="0"/>
        <pt x="217" y="456" on="1"/>
        <pt x="180" y="456" on="0"/>
        <pt x="180" y="492" on="1"/>
      </contour>
      <contour>
        <pt x="387" y="298" on="1"/>
        <pt x="40" y="298" on="1"/>
        <pt x="40" y="345" on="1"/>
        <pt x="387" y="345" on="1"/>
      </contour>
      <contour>
        <pt x="180" y="185" on="0"/>
        <pt x="217" y="185" on="1"/>
        <pt x="253" y="185" on="0"/>
        <pt x="253" y="149" on="1"/>
        <pt x="253" y="113" on="0"/>
        <pt x="217" y="113" on="1"/>
        <pt x="180" y="113" on="0"/>
        <pt x="180" y="149" on="1"/>
      </contour>
    </TTGlyph>
    <TTGlyph name="dollar" xMin="29" yMin="-78" xMax="345" yMax="734">
      <contour>
        <pt x="306" y="298" on="0"/>
        <pt x="345" y="235" on="0"/>
        <pt x="345" y="189" on="1"/>
        <pt x="345" y="136" on="1"/>
        <pt x="345" y="77" on="0"/>
        <pt x="275" y="5" on="0"/>
        <pt x="204" y="-3" on="1"/>
        <pt x="204" y="-78" on="1"/>
        <pt x="152" y="-78" on="1"/>
        <pt x="152" y="-5" on="1"/>
        <pt x="118" y="-4" on="0"/>
        <pt x="54" y="7" on="0"/>
        <pt x="34" y="14" on="1"/>
        <pt x="34" y="70" on="1"/>
        <pt x="59" y="60" on="0"/>
        <pt x="129" y="48" on="0"/>
        <pt x="164" y="48" on="1"/>
        <pt x="228" y="48" on="0"/>
        <pt x="287" y="96" on="0"/>
        <pt x="287" y="138" on="1"/>
        <pt x="287" y="184" on="1"/>
        <pt x="287" y="219" on="0"/>
        <pt x="263" y="259" on="0"/>
        <pt x="230" y="276" on="1"/>
        <pt x="114" y="340" on="1"/>
        <pt x="71" y="363" on="0"/>
        <pt x="29" y="429" on="0"/>
        <pt x="29" y="478" on="1"/>
        <pt x="29" y="537" on="1"/>
        <pt x="29" y="594" on="0"/>
        <pt x="96" y="664" on="0"/>
        <pt x="162" y="671" on="1"/>
        <pt x="162" y="734" on="1"/>
        <pt x="214" y="734" on="1"/>
        <pt x="214" y="673" on="1"/>
        <pt x="280" y="670" on="0"/>
        <pt x="321" y="658" on="1"/>
        <pt x="321" y="602" on="1"/>
        <pt x="299" y="610" on="0"/>
        <pt x="232" y="620" on="0"/>
        <pt x="196" y="620" on="1"/>
        <pt x="87" y="620" on="0"/>
        <pt x="87" y="537" on="1"/>
        <pt x="87" y="483" on="1"/>
        <pt x="87" y="448" on="0"/>
        <pt x="115" y="404" on="0"/>
        <pt x="147" y="386" on="1"/>
        <pt x="264" y="321" on="1"/>
      </contour>
    </TTGlyph>
    <TTGlyph name="dotaccent" xMin="138" yMin="653" xMax="208" yMax="723">
      <contour>
        <pt x="138" y="704" on="0"/>
        <pt x="155" y="723" on="0"/>
        <pt x="173" y="723" on="1"/>
        <pt x="208" y="723" on="0"/>
        <pt x="208" y="688" on="1"/>
        <pt x="208" y="653" on="0"/>
        <pt x="173" y="653" on="1"/>
        <pt x="155" y="653" on="0"/>
        <pt x="138" y="672" on="0"/>
        <pt x="138" y="688" on="1"/>
      </contour>
    </TTGlyph>
    <TTGlyph name="dotlessi" xMin="73" yMin="0" xMax="130" yMax="564">
      <contour>
        <pt x="130" y="0" on="1"/>
        <pt x="73" y="0" on="1"/>
        <pt x="73" y="564" on="1"/>
        <pt x="130" y="564" on="1"/>
      </contour>
    </TTGlyph>
    <TTGlyph name="dottedcircle" xMin="44" yMin="30" xMax="616" yMax="604">
      <contour>
        <pt x="257" y="580" on="0"/>
        <pt x="282" y="604" on="0"/>
        <pt x="301" y="604" on="1"/>
        <pt x="321" y="604" on="0"/>
        <pt x="345" y="580" on="0"/>
        <pt x="345" y="560" on="1"/>
        <pt x="345" y="541" on="0"/>
        <pt x="321" y="516" on="0"/>
        <pt x="301" y="516" on="1"/>
        <pt x="282" y="516" on="0"/>
        <pt x="257" y="541" on="0"/>
        <pt x="257" y="560" on="1"/>
      </contour>
      <contour>
        <pt x="383" y="565" on="0"/>
        <pt x="409" y="590" on="0"/>
        <pt x="428" y="590" on="1"/>
        <pt x="447" y="590" on="0"/>
        <pt x="471" y="565" on="0"/>
        <pt x="471" y="545" on="1"/>
        <pt x="471" y="527" on="0"/>
        <pt x="446" y="501" on="0"/>
        <pt x="428" y="501" on="1"/>
        <pt x="409" y="501" on="0"/>
        <pt x="383" y="527" on="0"/>
        <pt x="383" y="545" on="1"/>
      </contour>
      <contour>
        <pt x="139" y="536" on="0"/>
        <pt x="164" y="561" on="0"/>
        <pt x="183" y="561" on="1"/>
        <pt x="202" y="561" on="0"/>
        <pt x="227" y="536" on="0"/>
        <pt x="227" y="517" on="1"/>
        <pt x="227" y="497" on="0"/>
        <pt x="202" y="472" on="0"/>
        <pt x="183" y="472" on="1"/>
        <pt x="164" y="472" on="0"/>
        <pt x="139" y="497" on="0"/>
        <pt x="139" y="517" on="1"/>
      </contour>
      <contour>
        <pt x="478" y="496" on="0"/>
        <pt x="503" y="522" on="0"/>
        <pt x="522" y="522" on="1"/>
        <pt x="541" y="522" on="0"/>
        <pt x="566" y="497" on="0"/>
        <pt x="566" y="477" on="1"/>
        <pt x="566" y="458" on="0"/>
        <pt x="541" y="433" on="0"/>
        <pt x="522" y="433" on="1"/>
        <pt x="503" y="433" on="0"/>
        <pt x="478" y="458" on="0"/>
        <pt x="478" y="477" on="1"/>
      </contour>
      <contour>
        <pt x="57" y="426" on="0"/>
        <pt x="83" y="451" on="0"/>
        <pt x="103" y="451" on="1"/>
        <pt x="121" y="451" on="0"/>
        <pt x="147" y="426" on="0"/>
        <pt x="147" y="407" on="1"/>
        <pt x="147" y="388" on="0"/>
        <pt x="121" y="363" on="0"/>
        <pt x="103" y="363" on="1"/>
        <pt x="83" y="363" on="0"/>
        <pt x="57" y="388" on="0"/>
        <pt x="57" y="407" on="1"/>
      </contour>
      <contour>
        <pt x="528" y="379" on="0"/>
        <pt x="553" y="403" on="0"/>
        <pt x="572" y="403" on="1"/>
        <pt x="591" y="403" on="0"/>
        <pt x="616" y="378" on="0"/>
        <pt x="616" y="359" on="1"/>
        <pt x="616" y="340" on="0"/>
        <pt x="591" y="315" on="0"/>
        <pt x="572" y="315" on="1"/>
        <pt x="553" y="315" on="0"/>
        <pt x="528" y="340" on="0"/>
        <pt x="528" y="359" on="1"/>
      </contour>
      <contour>
        <pt x="44" y="300" on="0"/>
        <pt x="69" y="326" on="0"/>
        <pt x="88" y="326" on="1"/>
        <pt x="107" y="326" on="0"/>
        <pt x="132" y="301" on="0"/>
        <pt x="132" y="281" on="1"/>
        <pt x="132" y="262" on="0"/>
        <pt x="107" y="238" on="0"/>
        <pt x="88" y="238" on="1"/>
        <pt x="69" y="238" on="0"/>
        <pt x="44" y="262" on="0"/>
        <pt x="44" y="281" on="1"/>
      </contour>
      <contour>
        <pt x="518" y="245" on="0"/>
        <pt x="544" y="270" on="0"/>
        <pt x="563" y="270" on="1"/>
        <pt x="581" y="270" on="0"/>
        <pt x="606" y="244" on="0"/>
        <pt x="606" y="225" on="1"/>
        <pt x="606" y="206" on="0"/>
        <pt x="581" y="181" on="0"/>
        <pt x="563" y="181" on="1"/>
        <pt x="544" y="181" on="0"/>
        <pt x="518" y="206" on="0"/>
        <pt x="518" y="225" on="1"/>
      </contour>
      <contour>
        <pt x="96" y="184" on="0"/>
        <pt x="121" y="209" on="0"/>
        <pt x="140" y="209" on="1"/>
        <pt x="159" y="209" on="0"/>
        <pt x="184" y="184" on="0"/>
        <pt x="184" y="165" on="1"/>
        <pt x="184" y="146" on="0"/>
        <pt x="159" y="121" on="0"/>
        <pt x="140" y="121" on="1"/>
        <pt x="121" y="121" on="0"/>
        <pt x="96" y="146" on="0"/>
        <pt x="96" y="165" on="1"/>
      </contour>
      <contour>
        <pt x="445" y="146" on="0"/>
        <pt x="470" y="171" on="0"/>
        <pt x="489" y="171" on="1"/>
        <pt x="508" y="171" on="0"/>
        <pt x="534" y="146" on="0"/>
        <pt x="534" y="127" on="1"/>
        <pt x="534" y="108" on="0"/>
        <pt x="508" y="83" on="0"/>
        <pt x="489" y="83" on="1"/>
        <pt x="470" y="83" on="0"/>
        <pt x="445" y="108" on="0"/>
        <pt x="445" y="127" on="1"/>
      </contour>
      <contour>
        <pt x="197" y="108" on="0"/>
        <pt x="223" y="134" on="0"/>
        <pt x="242" y="134" on="1"/>
        <pt x="261" y="134" on="0"/>
        <pt x="286" y="108" on="0"/>
        <pt x="286" y="90" on="1"/>
        <pt x="286" y="70" on="0"/>
        <pt x="261" y="44" on="0"/>
        <pt x="242" y="44" on="1"/>
        <pt x="223" y="44" on="0"/>
        <pt x="197" y="70" on="0"/>
        <pt x="197" y="90" on="1"/>
      </contour>
      <contour>
        <pt x="324" y="94" on="0"/>
        <pt x="349" y="118" on="0"/>
        <pt x="368" y="118" on="1"/>
        <pt x="388" y="118" on="0"/>
        <pt x="413" y="93" on="0"/>
        <pt x="413" y="74" on="1"/>
        <pt x="413" y="55" on="0"/>
        <pt x="388" y="30" on="0"/>
        <pt x="368" y="30" on="1"/>
        <pt x="349" y="30" on="0"/>
        <pt x="324" y="55" on="0"/>
        <pt x="324" y="74" on="1"/>
      </contour>
    </TTGlyph>
    <TTGlyph name="doubledanda" xMin="123" yMin="0" xMax="370" yMax="646">
      <contour>
        <pt x="176" y="646" on="1"/>
        <pt x="176" y="0" on="1"/>
        <pt x="123" y="0" on="1"/>
        <pt x="123" y="646" on="1"/>
      </contour>
      <contour>
        <pt x="370" y="646" on="1"/>
        <pt x="370" y="0" on="1"/>
        <pt x="317" y="0" on="1"/>
        <pt x="317" y="646" on="1"/>
      </contour>
    </TTGlyph>
    <TTGlyph name="dvA" xMin="36" yMin="0" xMax="576" yMax="651">
      <contour>
        <pt x="576" y="646" on="1"/>
        <pt x="576" y="600" on="1"/>
        <pt x="477" y="600" on="1"/>
        <pt x="477" y="0" on="1"/>
        <pt x="425" y="0" on="1"/>
        <pt x="425" y="213" on="1"/>
        <pt x="300" y="213" on="1"/>
        <pt x="300" y="164" on="1"/>
        <pt x="300" y="103" on="0"/>
        <pt x="222" y="34" on="0"/>
        <pt x="149" y="34" on="1"/>
        <pt x="93" y="34" on="0"/>
        <pt x="36" y="49" on="1"/>
        <pt x="36" y="99" on="1"/>
        <pt x="93" y="83" on="0"/>
        <pt x="149" y="83" on="1"/>
        <pt x="200" y="83" on="0"/>
        <pt x="248" y="126" on="0"/>
        <pt x="248" y="164" on="1"/>
        <pt x="248" y="241" on="1"/>
        <pt x="248" y="280" on="0"/>
        <pt x="213" y="322" on="0"/>
        <pt x="160" y="323" on="1"/>
        <pt x="99" y="323" on="1"/>
        <pt x="99" y="372" on="1"/>
        <pt x="160" y="372" on="1"/>
        <pt x="213" y="373" on="0"/>
        <pt x="248" y="415" on="0"/>
        <pt x="248" y="454" on="1"/>
        <pt x="248" y="521" on="1"/>
        <pt x="248" y="559" on="0"/>
        <pt x="200" y="603" on="0"/>
        <pt x="149" y="603" on="1"/>
        <pt x="99" y="603" on="0"/>
        <pt x="46" y="584" on="1"/>
        <pt x="46" y="636" on="1"/>
        <pt x="93" y="651" on="0"/>
        <pt x="149" y="651" on="1"/>
        <pt x="222" y="651" on="0"/>
        <pt x="300" y="583" on="0"/>
        <pt x="300" y="522" on="1"/>
        <pt x="300" y="454" on="1"/>
        <pt x="300" y="367" on="0"/>
        <pt x="246" y="348" on="1"/>
        <pt x="295" y="328" on="0"/>
        <pt x="299" y="259" on="1"/>
        <pt x="425" y="259" on="1"/>
        <pt x="425" y="646" on="1"/>
      </contour>
    </TTGlyph>
    <TTGlyph name="dvAA" xMin="64" yMin="0" xMax="810" yMax="651">
      <component glyphName="dvA" x="28" y="0" flags="0x0"/>
      <component glyphName="dvmAA" x="582" y="0" flags="0x0"/>
    </TTGlyph>
    <TTGlyph name="dvAI" xMin="-22" yMin="-5" xMax="446" yMax="875">
      <contour>
        <pt x="446" y="646" on="1"/>
        <pt x="446" y="600" on="1"/>
        <pt x="359" y="600" on="1"/>
        <pt x="359" y="396" on="1"/>
        <pt x="359" y="342" on="0"/>
        <pt x="301" y="276" on="0"/>
        <pt x="240" y="276" on="1"/>
        <pt x="224" y="276" on="0"/>
        <pt x="216" y="277" on="1"/>
        <pt x="216" y="325" on="1"/>
        <pt x="222" y="324" on="0"/>
        <pt x="235" y="324" on="1"/>
        <pt x="275" y="324" on="0"/>
        <pt x="307" y="362" on="0"/>
        <pt x="307" y="396" on="1"/>
        <pt x="307" y="600" on="1"/>
        <pt x="125" y="600" on="1"/>
        <pt x="125" y="118" on="1"/>
        <pt x="125" y="44" on="0"/>
        <pt x="223" y="44" on="1"/>
        <pt x="256" y="44" on="0"/>
        <pt x="322" y="56" on="0"/>
        <pt x="344" y="63" on="1"/>
        <pt x="344" y="15" on="1"/>
        <pt x="325" y="7" on="0"/>
        <pt x="259" y="-5" on="0"/>
        <pt x="222" y="-5" on="1"/>
        <pt x="148" y="-5" on="0"/>
        <pt x="72" y="58" on="0"/>
        <pt x="72" y="117" on="1"/>
        <pt x="72" y="600" on="1"/>
        <pt x="-22" y="600" on="1"/>
        <pt x="-22" y="646" on="1"/>
        <pt x="303" y="646" on="1"/>
        <pt x="139" y="875" on="1"/>
        <pt x="198" y="875" on="1"/>
        <pt x="357" y="646" on="1"/>
      </contour>
    </TTGlyph>
    <TTGlyph name="dvAU" xMin="64" yMin="0" xMax="810" yMax="875">
      <component glyphName="dvA" x="28" y="0" flags="0x0"/>
      <component glyphName="dvmAU" x="582" y="0" flags="0x0"/>
    </TTGlyph>
    <TTGlyph name="dvAbbreviationsign" xMin="54" yMin="197" xMax="311" yMax="472">
      <contour>
        <pt x="54" y="398" on="0"/>
        <pt x="114" y="472" on="0"/>
        <pt x="182" y="472" on="1"/>
        <pt x="250" y="472" on="0"/>
        <pt x="311" y="397" on="0"/>
        <pt x="311" y="334" on="1"/>
        <pt x="311" y="271" on="0"/>
        <pt x="250" y="197" on="0"/>
        <pt x="182" y="197" on="1"/>
        <pt x="114" y="197" on="0"/>
        <pt x="54" y="271" on="0"/>
        <pt x="54" y="334" on="1"/>
      </contour>
      <contour>
        <pt x="100" y="289" on="0"/>
        <pt x="134" y="242" on="0"/>
        <pt x="182" y="242" on="1"/>
        <pt x="231" y="242" on="0"/>
        <pt x="265" y="289" on="0"/>
        <pt x="265" y="333" on="1"/>
        <pt x="265" y="378" on="0"/>
        <pt x="231" y="426" on="0"/>
        <pt x="182" y="426" on="1"/>
        <pt x="134" y="426" on="0"/>
        <pt x="100" y="378" on="0"/>
        <pt x="100" y="333" on="1"/>
      </contour>
    </TTGlyph>
    <TTGlyph name="dvAcandra" xMin="36" yMin="0" xMax="603" yMax="826">
      <component glyphName="dvA" x="0" y="0" flags="0x0"/>
      <component glyphName="dvmEcandra" x="555" y="0" flags="0x0"/>
    </TTGlyph>
    <TTGlyph name="dvAnusvara" xMin="-140" yMin="727" xMax="-68" yMax="799">
      <contour>
        <pt x="-140" y="799" on="0"/>
        <pt x="-104" y="799" on="1"/>
        <pt x="-68" y="799" on="0"/>
        <pt x="-68" y="763" on="1"/>
        <pt x="-68" y="727" on="0"/>
        <pt x="-104" y="727" on="1"/>
        <pt x="-140" y="727" on="0"/>
        <pt x="-140" y="763" on="1"/>
      </contour>
    </TTGlyph>
    <TTGlyph name="dvAnusvara.amI" xMin="15" yMin="709" xMax="87" yMax="781">
      <component glyphName="dvAnusvara" x="155" y="-18" flags="0x4"/>
    </TTGlyph>
    <TTGlyph name="dvAvagraha" xMin="58" yMin="-5" xMax="381" yMax="646">
      <contour>
        <pt x="381" y="-5" on="0"/>
        <pt x="223" y="-5" on="1"/>
        <pt x="219" y="-5" on="1"/>
        <pt x="61" y="-5" on="0"/>
        <pt x="61" y="130" on="1"/>
        <pt x="61" y="199" on="1"/>
        <pt x="113" y="199" on="1"/>
        <pt x="113" y="130" on="1"/>
        <pt x="113" y="89" on="0"/>
        <pt x="157" y="44" on="0"/>
        <pt x="220" y="44" on="1"/>
        <pt x="222" y="44" on="1"/>
        <pt x="285" y="44" on="0"/>
        <pt x="329" y="89" on="0"/>
        <pt x="329" y="130" on="1"/>
        <pt x="329" y="202" on="1"/>
        <pt x="329" y="234" on="0"/>
        <pt x="307" y="277" on="0"/>
        <pt x="276" y="294" on="1"/>
        <pt x="140" y="367" on="1"/>
        <pt x="95" y="391" on="0"/>
        <pt x="58" y="457" on="0"/>
        <pt x="58" y="503" on="1"/>
        <pt x="58" y="530" on="1"/>
        <pt x="58" y="588" on="0"/>
        <pt x="122" y="646" on="0"/>
        <pt x="198" y="646" on="1"/>
        <pt x="358" y="646" on="1"/>
        <pt x="358" y="597" on="1"/>
        <pt x="199" y="597" on="1"/>
        <pt x="161" y="597" on="0"/>
        <pt x="122" y="580" on="0"/>
        <pt x="110" y="552" on="0"/>
        <pt x="110" y="530" on="1"/>
        <pt x="110" y="504" on="1"/>
        <pt x="110" y="472" on="0"/>
        <pt x="132" y="429" on="0"/>
        <pt x="163" y="413" on="1"/>
        <pt x="299" y="339" on="1"/>
        <pt x="345" y="315" on="0"/>
        <pt x="381" y="250" on="0"/>
        <pt x="381" y="202" on="1"/>
        <pt x="381" y="130" on="1"/>
      </contour>
    </TTGlyph>
    <TTGlyph name="dvB" xMin="-22" yMin="72" xMax="339" yMax="646">
      <contour>
        <pt x="339" y="600" on="1"/>
        <pt x="-22" y="600" on="1"/>
        <pt x="-22" y="646" on="1"/>
        <pt x="339" y="646" on="1"/>
      </contour>
      <contour>
        <pt x="48" y="443" on="0"/>
        <pt x="120" y="505" on="0"/>
        <pt x="193" y="505" on="1"/>
        <pt x="268" y="505" on="0"/>
        <pt x="337" y="444" on="0"/>
        <pt x="337" y="383" on="1"/>
        <pt x="337" y="194" on="1"/>
        <pt x="337" y="134" on="0"/>
        <pt x="268" y="72" on="0"/>
        <pt x="193" y="72" on="1"/>
        <pt x="120" y="72" on="0"/>
        <pt x="48" y="135" on="0"/>
        <pt x="48" y="194" on="1"/>
        <pt x="48" y="383" on="1"/>
      </contour>
      <contour>
        <pt x="287" y="417" on="0"/>
        <pt x="243" y="458" on="0"/>
        <pt x="193" y="458" on="1"/>
        <pt x="134" y="458" on="0"/>
        <pt x="111" y="425" on="1"/>
        <pt x="287" y="208" on="1"/>
        <pt x="287" y="382" on="1"/>
      </contour>
      <contour>
        <pt x="100" y="158" on="0"/>
        <pt x="141" y="120" on="0"/>
        <pt x="193" y="120" on="1"/>
        <pt x="229" y="120" on="0"/>
        <pt x="269" y="137" on="0"/>
        <pt x="278" y="155" on="1"/>
        <pt x="100" y="375" on="1"/>
        <pt x="100" y="194" on="1"/>
      </contour>
    </TTGlyph>
    <TTGlyph name="dvBA" xMin="-22" yMin="0" xMax="433" yMax="646">
      <contour>
        <pt x="433" y="646" on="1"/>
        <pt x="433" y="600" on="1"/>
        <pt x="335" y="600" on="1"/>
        <pt x="335" y="0" on="1"/>
        <pt x="286" y="0" on="1"/>
        <pt x="286" y="86" on="1"/>
        <pt x="251" y="72" on="0"/>
        <pt x="198" y="72" on="1"/>
        <pt x="126" y="72" on="0"/>
        <pt x="48" y="137" on="0"/>
        <pt x="48" y="197" on="1"/>
        <pt x="48" y="381" on="1"/>
        <pt x="48" y="441" on="0"/>
        <pt x="125" y="505" on="0"/>
        <pt x="198" y="505" on="1"/>
        <pt x="251" y="505" on="0"/>
        <pt x="286" y="491" on="1"/>
        <pt x="286" y="600" on="1"/>
        <pt x="-22" y="600" on="1"/>
        <pt x="-22" y="646" on="1"/>
      </contour>
      <contour>
        <pt x="151" y="458" on="0"/>
        <pt x="104" y="423" on="0"/>
        <pt x="101" y="393" on="1"/>
        <pt x="286" y="249" on="1"/>
        <pt x="286" y="444" on="1"/>
        <pt x="251" y="458" on="0"/>
        <pt x="199" y="458" on="1"/>
      </contour>
      <contour>
        <pt x="254" y="120" on="0"/>
        <pt x="286" y="133" on="1"/>
        <pt x="286" y="199" on="1"/>
        <pt x="100" y="343" on="1"/>
        <pt x="100" y="197" on="1"/>
        <pt x="100" y="120" on="0"/>
        <pt x="199" y="120" on="1"/>
      </contour>
    </TTGlyph>
    <TTGlyph name="dvBH" xMin="49" yMin="62" xMax="484" yMax="651">
      <contour>
        <pt x="310" y="344" on="1"/>
        <pt x="310" y="177" on="1"/>
        <pt x="310" y="119" on="0"/>
        <pt x="248" y="62" on="0"/>
        <pt x="179" y="62" on="1"/>
        <pt x="111" y="62" on="0"/>
        <pt x="49" y="119" on="0"/>
        <pt x="49" y="177" on="1"/>
        <pt x="49" y="276" on="1"/>
        <pt x="49" y="334" on="0"/>
        <pt x="111" y="390" on="0"/>
        <pt x="179" y="390" on="1"/>
        <pt x="258" y="390" on="1"/>
        <pt x="258" y="530" on="1"/>
        <pt x="258" y="567" on="0"/>
        <pt x="227" y="602" on="0"/>
        <pt x="182" y="602" on="1"/>
        <pt x="138" y="602" on="0"/>
        <pt x="107" y="566" on="0"/>
        <pt x="107" y="530" on="1"/>
        <pt x="107" y="515" on="0"/>
        <pt x="111" y="481" on="0"/>
        <pt x="112" y="476" on="1"/>
        <pt x="59" y="476" on="1"/>
        <pt x="58" y="481" on="0"/>
        <pt x="54" y="516" on="0"/>
        <pt x="54" y="531" on="1"/>
        <pt x="54" y="651" on="0"/>
        <pt x="182" y="651" on="1"/>
        <pt x="310" y="651" on="0"/>
        <pt x="310" y="531" on="1"/>
        <pt x="310" y="390" on="1"/>
        <pt x="484" y="390" on="1"/>
        <pt x="484" y="344" on="1"/>
      </contour>
      <contour>
        <pt x="179" y="344" on="1"/>
        <pt x="132" y="344" on="0"/>
        <pt x="101" y="312" on="0"/>
        <pt x="101" y="276" on="1"/>
        <pt x="101" y="178" on="1"/>
        <pt x="101" y="142" on="0"/>
        <pt x="132" y="110" on="0"/>
        <pt x="179" y="110" on="1"/>
        <pt x="227" y="110" on="0"/>
        <pt x="258" y="142" on="0"/>
        <pt x="258" y="178" on="1"/>
        <pt x="258" y="344" on="1"/>
      </contour>
    </TTGlyph>
    <TTGlyph name="dvBHA" xMin="49" yMin="0" xMax="598" yMax="651">
      <contour>
        <pt x="258" y="567" on="0"/>
        <pt x="227" y="602" on="0"/>
        <pt x="182" y="602" on="1"/>
        <pt x="138" y="602" on="0"/>
        <pt x="107" y="566" on="0"/>
        <pt x="107" y="530" on="1"/>
        <pt x="107" y="516" on="0"/>
        <pt x="110" y="481" on="0"/>
        <pt x="111" y="476" on="1"/>
        <pt x="58" y="476" on="1"/>
        <pt x="57" y="481" on="0"/>
        <pt x="54" y="515" on="0"/>
        <pt x="54" y="531" on="1"/>
        <pt x="54" y="651" on="0"/>
        <pt x="182" y="651" on="1"/>
        <pt x="310" y="651" on="0"/>
        <pt x="310" y="531" on="1"/>
        <pt x="310" y="390" on="1"/>
        <pt x="448" y="390" on="1"/>
        <pt x="448" y="646" on="1"/>
        <pt x="598" y="646" on="1"/>
        <pt x="598" y="600" on="1"/>
        <pt x="500" y="600" on="1"/>
        <pt x="500" y="0" on="1"/>
        <pt x="448" y="0" on="1"/>
        <pt x="448" y="344" on="1"/>
        <pt x="310" y="344" on="1"/>
        <pt x="310" y="177" on="1"/>
        <pt x="310" y="119" on="0"/>
        <pt x="248" y="62" on="0"/>
        <pt x="179" y="62" on="1"/>
        <pt x="111" y="62" on="0"/>
        <pt x="49" y="119" on="0"/>
        <pt x="49" y="177" on="1"/>
        <pt x="49" y="276" on="1"/>
        <pt x="49" y="334" on="0"/>
        <pt x="111" y="390" on="0"/>
        <pt x="179" y="390" on="1"/>
        <pt x="258" y="390" on="1"/>
        <pt x="258" y="530" on="1"/>
      </contour>
      <contour>
        <pt x="179" y="344" on="1"/>
        <pt x="132" y="344" on="0"/>
        <pt x="101" y="312" on="0"/>
        <pt x="101" y="276" on="1"/>
        <pt x="101" y="178" on="1"/>
        <pt x="101" y="142" on="0"/>
        <pt x="132" y="110" on="0"/>
        <pt x="179" y="110" on="1"/>
        <pt x="227" y="110" on="0"/>
        <pt x="258" y="142" on="0"/>
        <pt x="258" y="178" on="1"/>
        <pt x="258" y="344" on="1"/>
      </contour>
    </TTGlyph>
    <TTGlyph name="dvBH_LA" xMin="49" yMin="0" xMax="1022" yMax="651">
      <contour>
        <pt x="1022" y="646" on="1"/>
        <pt x="1022" y="600" on="1"/>
        <pt x="923" y="600" on="1"/>
        <pt x="923" y="0" on="1"/>
        <pt x="871" y="0" on="1"/>
        <pt x="871" y="414" on="1"/>
        <pt x="838" y="429" on="0"/>
        <pt x="795" y="429" on="1"/>
        <pt x="749" y="429" on="0"/>
        <pt x="708" y="389" on="0"/>
        <pt x="708" y="355" on="1"/>
        <pt x="708" y="206" on="1"/>
        <pt x="656" y="206" on="1"/>
        <pt x="656" y="355" on="1"/>
        <pt x="656" y="389" on="0"/>
        <pt x="619" y="429" on="0"/>
        <pt x="574" y="429" on="1"/>
        <pt x="528" y="429" on="0"/>
        <pt x="493" y="389" on="0"/>
        <pt x="493" y="352" on="1"/>
        <pt x="493" y="149" on="1"/>
        <pt x="493" y="100" on="0"/>
        <pt x="539" y="47" on="0"/>
        <pt x="600" y="47" on="1"/>
        <pt x="625" y="47" on="0"/>
        <pt x="657" y="52" on="1"/>
        <pt x="657" y="5" on="1"/>
        <pt x="630" y="0" on="0"/>
        <pt x="599" y="0" on="1"/>
        <pt x="441" y="0" on="0"/>
        <pt x="441" y="149" on="1"/>
        <pt x="441" y="344" on="1"/>
        <pt x="310" y="344" on="1"/>
        <pt x="310" y="177" on="1"/>
        <pt x="310" y="119" on="0"/>
        <pt x="248" y="62" on="0"/>
        <pt x="179" y="62" on="1"/>
        <pt x="111" y="62" on="0"/>
        <pt x="49" y="119" on="0"/>
        <pt x="49" y="177" on="1"/>
        <pt x="49" y="276" on="1"/>
        <pt x="49" y="334" on="0"/>
        <pt x="111" y="390" on="0"/>
        <pt x="179" y="390" on="1"/>
        <pt x="258" y="390" on="1"/>
        <pt x="258" y="530" on="1"/>
        <pt x="258" y="567" on="0"/>
        <pt x="227" y="602" on="0"/>
        <pt x="182" y="602" on="1"/>
        <pt x="138" y="602" on="0"/>
        <pt x="107" y="566" on="0"/>
        <pt x="107" y="530" on="1"/>
        <pt x="107" y="515" on="0"/>
        <pt x="111" y="481" on="0"/>
        <pt x="112" y="476" on="1"/>
        <pt x="59" y="476" on="1"/>
        <pt x="58" y="481" on="0"/>
        <pt x="54" y="516" on="0"/>
        <pt x="54" y="531" on="1"/>
        <pt x="54" y="651" on="0"/>
        <pt x="182" y="651" on="1"/>
        <pt x="310" y="651" on="0"/>
        <pt x="310" y="531" on="1"/>
        <pt x="310" y="390" on="1"/>
        <pt x="445" y="390" on="1"/>
        <pt x="454" y="432" on="0"/>
        <pt x="518" y="477" on="0"/>
        <pt x="574" y="477" on="1"/>
        <pt x="612" y="477" on="0"/>
        <pt x="666" y="454" on="0"/>
        <pt x="681" y="433" on="1"/>
        <pt x="697" y="454" on="0"/>
        <pt x="755" y="477" on="0"/>
        <pt x="794" y="477" on="1"/>
        <pt x="834" y="477" on="0"/>
        <pt x="871" y="462" on="1"/>
        <pt x="871" y="600" on="1"/>
        <pt x="370" y="600" on="1"/>
        <pt x="370" y="646" on="1"/>
      </contour>
      <contour>
        <pt x="258" y="344" on="1"/>
        <pt x="179" y="344" on="1"/>
        <pt x="132" y="344" on="0"/>
        <pt x="101" y="312" on="0"/>
        <pt x="101" y="276" on="1"/>
        <pt x="101" y="178" on="1"/>
        <pt x="101" y="142" on="0"/>
        <pt x="132" y="110" on="0"/>
        <pt x="179" y="110" on="1"/>
        <pt x="227" y="110" on="0"/>
        <pt x="258" y="142" on="0"/>
        <pt x="258" y="178" on="1"/>
      </contour>
    </TTGlyph>
    <TTGlyph name="dvBH_NA" xMin="49" yMin="0" xMax="975" yMax="651">
      <contour>
        <pt x="975" y="646" on="1"/>
        <pt x="975" y="600" on="1"/>
        <pt x="877" y="600" on="1"/>
        <pt x="877" y="0" on="1"/>
        <pt x="824" y="0" on="1"/>
        <pt x="824" y="430" on="1"/>
        <pt x="676" y="430" on="1"/>
        <pt x="677" y="428" on="0"/>
        <pt x="683" y="411" on="0"/>
        <pt x="689" y="378" on="0"/>
        <pt x="689" y="357" on="1"/>
        <pt x="689" y="178" on="1"/>
        <pt x="689" y="62" on="0"/>
        <pt x="562" y="62" on="1"/>
        <pt x="436" y="62" on="0"/>
        <pt x="436" y="178" on="1"/>
        <pt x="436" y="344" on="1"/>
        <pt x="310" y="344" on="1"/>
        <pt x="310" y="177" on="1"/>
        <pt x="310" y="119" on="0"/>
        <pt x="248" y="62" on="0"/>
        <pt x="179" y="62" on="1"/>
        <pt x="111" y="62" on="0"/>
        <pt x="49" y="119" on="0"/>
        <pt x="49" y="177" on="1"/>
        <pt x="49" y="276" on="1"/>
        <pt x="49" y="334" on="0"/>
        <pt x="111" y="390" on="0"/>
        <pt x="179" y="390" on="1"/>
        <pt x="258" y="390" on="1"/>
        <pt x="258" y="530" on="1"/>
        <pt x="258" y="567" on="0"/>
        <pt x="227" y="602" on="0"/>
        <pt x="182" y="602" on="1"/>
        <pt x="138" y="602" on="0"/>
        <pt x="107" y="566" on="0"/>
        <pt x="107" y="530" on="1"/>
        <pt x="107" y="514" on="0"/>
        <pt x="110" y="481" on="0"/>
        <pt x="111" y="476" on="1"/>
        <pt x="58" y="476" on="1"/>
        <pt x="57" y="481" on="0"/>
        <pt x="54" y="514" on="0"/>
        <pt x="54" y="531" on="1"/>
        <pt x="54" y="651" on="0"/>
        <pt x="182" y="651" on="1"/>
        <pt x="310" y="651" on="0"/>
        <pt x="310" y="531" on="1"/>
        <pt x="310" y="390" on="1"/>
        <pt x="438" y="390" on="1"/>
        <pt x="451" y="477" on="0"/>
        <pt x="562" y="477" on="1"/>
        <pt x="824" y="477" on="1"/>
        <pt x="824" y="600" on="1"/>
        <pt x="370" y="600" on="1"/>
        <pt x="370" y="646" on="1"/>
      </contour>
      <contour>
        <pt x="637" y="356" on="1"/>
        <pt x="637" y="376" on="0"/>
        <pt x="632" y="409" on="0"/>
        <pt x="626" y="428" on="0"/>
        <pt x="625" y="430" on="1"/>
        <pt x="562" y="430" on="1"/>
        <pt x="520" y="430" on="0"/>
        <pt x="487" y="397" on="0"/>
        <pt x="487" y="363" on="1"/>
        <pt x="487" y="178" on="1"/>
        <pt x="487" y="144" on="0"/>
        <pt x="521" y="110" on="0"/>
        <pt x="562" y="110" on="1"/>
        <pt x="604" y="110" on="0"/>
        <pt x="637" y="144" on="0"/>
        <pt x="637" y="178" on="1"/>
      </contour>
      <contour>
        <pt x="258" y="344" on="1"/>
        <pt x="179" y="344" on="1"/>
        <pt x="132" y="344" on="0"/>
        <pt x="101" y="312" on="0"/>
        <pt x="101" y="276" on="1"/>
        <pt x="101" y="178" on="1"/>
        <pt x="101" y="142" on="0"/>
        <pt x="132" y="110" on="0"/>
        <pt x="179" y="110" on="1"/>
        <pt x="227" y="110" on="0"/>
        <pt x="258" y="142" on="0"/>
        <pt x="258" y="178" on="1"/>
      </contour>
    </TTGlyph>
    <TTGlyph name="dvBH_R" xMin="55" yMin="-45" xMax="490" yMax="651">
      <contour>
        <pt x="316" y="373" on="1"/>
        <pt x="316" y="247" on="1"/>
        <pt x="316" y="189" on="0"/>
        <pt x="254" y="132" on="0"/>
        <pt x="186" y="132" on="1"/>
        <pt x="117" y="132" on="0"/>
        <pt x="55" y="189" on="0"/>
        <pt x="55" y="247" on="1"/>
        <pt x="55" y="306" on="1"/>
        <pt x="55" y="364" on="0"/>
        <pt x="117" y="419" on="0"/>
        <pt x="186" y="419" on="1"/>
        <pt x="265" y="419" on="1"/>
        <pt x="265" y="530" on="1"/>
        <pt x="265" y="566" on="0"/>
        <pt x="233" y="602" on="0"/>
        <pt x="189" y="602" on="1"/>
        <pt x="144" y="602" on="0"/>
        <pt x="113" y="566" on="0"/>
        <pt x="113" y="530" on="1"/>
        <pt x="113" y="513" on="0"/>
        <pt x="117" y="481" on="0"/>
        <pt x="118" y="477" on="1"/>
        <pt x="66" y="477" on="1"/>
        <pt x="65" y="482" on="0"/>
        <pt x="61" y="516" on="0"/>
        <pt x="61" y="531" on="1"/>
        <pt x="61" y="651" on="0"/>
        <pt x="189" y="651" on="1"/>
        <pt x="317" y="651" on="0"/>
        <pt x="317" y="531" on="1"/>
        <pt x="317" y="419" on="1"/>
        <pt x="490" y="419" on="1"/>
        <pt x="490" y="373" on="1"/>
      </contour>
      <contour>
        <pt x="186" y="373" on="1"/>
        <pt x="139" y="373" on="0"/>
        <pt x="107" y="341" on="0"/>
        <pt x="107" y="305" on="1"/>
        <pt x="107" y="248" on="1"/>
        <pt x="107" y="213" on="0"/>
        <pt x="139" y="180" on="0"/>
        <pt x="186" y="180" on="1"/>
        <pt x="233" y="180" on="0"/>
        <pt x="265" y="212" on="0"/>
        <pt x="265" y="248" on="1"/>
        <pt x="265" y="373" on="1"/>
      </contour>
      <contour>
        <pt x="471" y="187" on="0"/>
        <pt x="399" y="100" on="0"/>
        <pt x="369" y="68" on="1"/>
        <pt x="262" y="-45" on="1"/>
        <pt x="191" y="-45" on="1"/>
        <pt x="490" y="269" on="1"/>
        <pt x="490" y="213" on="1"/>
      </contour>
    </TTGlyph>
    <TTGlyph name="dvBH_RA" xMin="55" yMin="-45" xMax="608" yMax="651">
      <contour>
        <pt x="316" y="373" on="1"/>
        <pt x="316" y="247" on="1"/>
        <pt x="316" y="189" on="0"/>
        <pt x="254" y="132" on="0"/>
        <pt x="186" y="132" on="1"/>
        <pt x="117" y="132" on="0"/>
        <pt x="55" y="189" on="0"/>
        <pt x="55" y="247" on="1"/>
        <pt x="55" y="306" on="1"/>
        <pt x="55" y="364" on="0"/>
        <pt x="117" y="419" on="0"/>
        <pt x="186" y="419" on="1"/>
        <pt x="265" y="419" on="1"/>
        <pt x="265" y="530" on="1"/>
        <pt x="265" y="566" on="0"/>
        <pt x="233" y="602" on="0"/>
        <pt x="189" y="602" on="1"/>
        <pt x="144" y="602" on="0"/>
        <pt x="113" y="566" on="0"/>
        <pt x="113" y="530" on="1"/>
        <pt x="113" y="509" on="0"/>
        <pt x="116" y="480" on="0"/>
        <pt x="117" y="477" on="1"/>
        <pt x="65" y="477" on="1"/>
        <pt x="64" y="481" on="0"/>
        <pt x="61" y="513" on="0"/>
        <pt x="61" y="531" on="1"/>
        <pt x="61" y="651" on="0"/>
        <pt x="189" y="651" on="1"/>
        <pt x="317" y="651" on="0"/>
        <pt x="317" y="531" on="1"/>
        <pt x="317" y="419" on="1"/>
        <pt x="457" y="419" on="1"/>
        <pt x="457" y="646" on="1"/>
        <pt x="608" y="646" on="1"/>
        <pt x="608" y="600" on="1"/>
        <pt x="509" y="600" on="1"/>
        <pt x="509" y="-1" on="1"/>
        <pt x="458" y="-1" on="1"/>
        <pt x="458" y="33" on="1"/>
        <pt x="458" y="97" on="0"/>
        <pt x="461" y="171" on="0"/>
        <pt x="461" y="174" on="1"/>
        <pt x="456" y="161" on="0"/>
        <pt x="368" y="68" on="1"/>
        <pt x="262" y="-45" on="1"/>
        <pt x="191" y="-45" on="1"/>
        <pt x="457" y="235" on="1"/>
        <pt x="457" y="373" on="1"/>
      </contour>
      <contour>
        <pt x="186" y="373" on="1"/>
        <pt x="139" y="373" on="0"/>
        <pt x="107" y="341" on="0"/>
        <pt x="107" y="305" on="1"/>
        <pt x="107" y="248" on="1"/>
        <pt x="107" y="213" on="0"/>
        <pt x="139" y="180" on="0"/>
        <pt x="186" y="180" on="1"/>
        <pt x="233" y="180" on="0"/>
        <pt x="265" y="212" on="0"/>
        <pt x="265" y="248" on="1"/>
        <pt x="265" y="373" on="1"/>
      </contour>
    </TTGlyph>
    <TTGlyph name="dvBH_R_YA" xMin="49" yMin="-45" xMax="903" yMax="651">
      <contour>
        <pt x="903" y="646" on="1"/>
        <pt x="903" y="600" on="1"/>
        <pt x="804" y="600" on="1"/>
        <pt x="804" y="0" on="1"/>
        <pt x="752" y="0" on="1"/>
        <pt x="752" y="129" on="1"/>
        <pt x="720" y="85" on="0"/>
        <pt x="624" y="85" on="1"/>
        <pt x="562" y="85" on="0"/>
        <pt x="478" y="123" on="0"/>
        <pt x="459" y="170" on="1"/>
        <pt x="401" y="99" on="0"/>
        <pt x="371" y="68" on="1"/>
        <pt x="264" y="-45" on="1"/>
        <pt x="193" y="-45" on="1"/>
        <pt x="447" y="221" on="1"/>
        <pt x="445" y="243" on="0"/>
        <pt x="445" y="254" on="1"/>
        <pt x="445" y="348" on="1"/>
        <pt x="436" y="359" on="0"/>
        <pt x="405" y="359" on="1"/>
        <pt x="310" y="359" on="1"/>
        <pt x="310" y="247" on="1"/>
        <pt x="310" y="189" on="0"/>
        <pt x="248" y="132" on="0"/>
        <pt x="179" y="132" on="1"/>
        <pt x="111" y="132" on="0"/>
        <pt x="49" y="189" on="0"/>
        <pt x="49" y="247" on="1"/>
        <pt x="49" y="292" on="1"/>
        <pt x="49" y="350" on="0"/>
        <pt x="111" y="405" on="0"/>
        <pt x="179" y="405" on="1"/>
        <pt x="258" y="405" on="1"/>
        <pt x="258" y="530" on="1"/>
        <pt x="258" y="567" on="0"/>
        <pt x="227" y="602" on="0"/>
        <pt x="182" y="602" on="1"/>
        <pt x="138" y="602" on="0"/>
        <pt x="107" y="566" on="0"/>
        <pt x="107" y="530" on="1"/>
        <pt x="107" y="490" on="1"/>
        <pt x="55" y="490" on="1"/>
        <pt x="54" y="531" on="1"/>
        <pt x="54" y="651" on="0"/>
        <pt x="182" y="651" on="1"/>
        <pt x="310" y="651" on="0"/>
        <pt x="310" y="531" on="1"/>
        <pt x="310" y="405" on="1"/>
        <pt x="412" y="405" on="1"/>
        <pt x="458" y="405" on="0"/>
        <pt x="476" y="387" on="1"/>
        <pt x="534" y="388" on="0"/>
        <pt x="578" y="418" on="0"/>
        <pt x="578" y="461" on="1"/>
        <pt x="578" y="527" on="1"/>
        <pt x="578" y="563" on="0"/>
        <pt x="542" y="600" on="0"/>
        <pt x="497" y="600" on="1"/>
        <pt x="370" y="600" on="1"/>
        <pt x="370" y="646" on="1"/>
      </contour>
      <contour>
        <pt x="752" y="600" on="1"/>
        <pt x="600" y="600" on="1"/>
        <pt x="630" y="583" on="0"/>
        <pt x="630" y="527" on="1"/>
        <pt x="630" y="459" on="1"/>
        <pt x="630" y="343" on="0"/>
        <pt x="497" y="341" on="1"/>
        <pt x="497" y="256" on="1"/>
        <pt x="497" y="191" on="0"/>
        <pt x="553" y="134" on="0"/>
        <pt x="624" y="134" on="1"/>
        <pt x="695" y="134" on="0"/>
        <pt x="750" y="189" on="0"/>
        <pt x="752" y="251" on="1"/>
      </contour>
      <contour>
        <pt x="258" y="359" on="1"/>
        <pt x="179" y="359" on="1"/>
        <pt x="132" y="359" on="0"/>
        <pt x="101" y="327" on="0"/>
        <pt x="101" y="291" on="1"/>
        <pt x="101" y="248" on="1"/>
        <pt x="101" y="212" on="0"/>
        <pt x="132" y="180" on="0"/>
        <pt x="179" y="180" on="1"/>
        <pt x="227" y="180" on="0"/>
        <pt x="258" y="212" on="0"/>
        <pt x="258" y="248" on="1"/>
      </contour>
    </TTGlyph>
    <TTGlyph name="dvBH_VA" xMin="49" yMin="0" xMax="834" yMax="651">
      <contour>
        <pt x="834" y="646" on="1"/>
        <pt x="834" y="600" on="1"/>
        <pt x="735" y="600" on="1"/>
        <pt x="735" y="0" on="1"/>
        <pt x="683" y="0" on="1"/>
        <pt x="683" y="86" on="1"/>
        <pt x="672" y="82" on="0"/>
        <pt x="618" y="72" on="0"/>
        <pt x="586" y="72" on="1"/>
        <pt x="514" y="72" on="0"/>
        <pt x="439" y="139" on="0"/>
        <pt x="439" y="200" on="1"/>
        <pt x="439" y="344" on="1"/>
        <pt x="310" y="344" on="1"/>
        <pt x="310" y="177" on="1"/>
        <pt x="310" y="119" on="0"/>
        <pt x="248" y="62" on="0"/>
        <pt x="179" y="62" on="1"/>
        <pt x="111" y="62" on="0"/>
        <pt x="49" y="119" on="0"/>
        <pt x="49" y="177" on="1"/>
        <pt x="49" y="276" on="1"/>
        <pt x="49" y="334" on="0"/>
        <pt x="111" y="390" on="0"/>
        <pt x="179" y="390" on="1"/>
        <pt x="258" y="390" on="1"/>
        <pt x="258" y="530" on="1"/>
        <pt x="258" y="567" on="0"/>
        <pt x="227" y="602" on="0"/>
        <pt x="182" y="602" on="1"/>
        <pt x="138" y="602" on="0"/>
        <pt x="107" y="566" on="0"/>
        <pt x="107" y="530" on="1"/>
        <pt x="107" y="515" on="0"/>
        <pt x="111" y="481" on="0"/>
        <pt x="112" y="476" on="1"/>
        <pt x="59" y="476" on="1"/>
        <pt x="58" y="481" on="0"/>
        <pt x="54" y="516" on="0"/>
        <pt x="54" y="531" on="1"/>
        <pt x="54" y="651" on="0"/>
        <pt x="182" y="651" on="1"/>
        <pt x="310" y="651" on="0"/>
        <pt x="310" y="531" on="1"/>
        <pt x="310" y="390" on="1"/>
        <pt x="439" y="390" on="1"/>
        <pt x="444" y="444" on="0"/>
        <pt x="519" y="505" on="0"/>
        <pt x="586" y="505" on="1"/>
        <pt x="618" y="505" on="0"/>
        <pt x="673" y="496" on="0"/>
        <pt x="683" y="492" on="1"/>
        <pt x="683" y="600" on="1"/>
        <pt x="373" y="600" on="1"/>
        <pt x="373" y="646" on="1"/>
      </contour>
      <contour>
        <pt x="683" y="444" on="1"/>
        <pt x="674" y="448" on="0"/>
        <pt x="619" y="457" on="0"/>
        <pt x="588" y="457" on="1"/>
        <pt x="537" y="457" on="0"/>
        <pt x="491" y="413" on="0"/>
        <pt x="491" y="377" on="1"/>
        <pt x="491" y="200" on="1"/>
        <pt x="491" y="120" on="0"/>
        <pt x="588" y="120" on="1"/>
        <pt x="619" y="120" on="0"/>
        <pt x="673" y="130" on="0"/>
        <pt x="683" y="134" on="1"/>
      </contour>
      <contour>
        <pt x="258" y="344" on="1"/>
        <pt x="179" y="344" on="1"/>
        <pt x="132" y="344" on="0"/>
        <pt x="101" y="312" on="0"/>
        <pt x="101" y="276" on="1"/>
        <pt x="101" y="178" on="1"/>
        <pt x="101" y="142" on="0"/>
        <pt x="132" y="110" on="0"/>
        <pt x="179" y="110" on="1"/>
        <pt x="227" y="110" on="0"/>
        <pt x="258" y="142" on="0"/>
        <pt x="258" y="178" on="1"/>
      </contour>
    </TTGlyph>
    <TTGlyph name="dvBH_YA" xMin="49" yMin="0" xMax="903" yMax="651">
      <contour>
        <pt x="903" y="646" on="1"/>
        <pt x="903" y="600" on="1"/>
        <pt x="804" y="600" on="1"/>
        <pt x="804" y="0" on="1"/>
        <pt x="752" y="0" on="1"/>
        <pt x="752" y="97" on="1"/>
        <pt x="694" y="85" on="0"/>
        <pt x="637" y="85" on="1"/>
        <pt x="445" y="85" on="0"/>
        <pt x="445" y="254" on="1"/>
        <pt x="445" y="341" on="1"/>
        <pt x="437" y="358" on="0"/>
        <pt x="403" y="358" on="1"/>
        <pt x="310" y="358" on="1"/>
        <pt x="310" y="177" on="1"/>
        <pt x="310" y="119" on="0"/>
        <pt x="248" y="62" on="0"/>
        <pt x="179" y="62" on="1"/>
        <pt x="111" y="62" on="0"/>
        <pt x="49" y="119" on="0"/>
        <pt x="49" y="177" on="1"/>
        <pt x="49" y="290" on="1"/>
        <pt x="49" y="348" on="0"/>
        <pt x="111" y="404" on="0"/>
        <pt x="179" y="404" on="1"/>
        <pt x="258" y="404" on="1"/>
        <pt x="258" y="530" on="1"/>
        <pt x="258" y="567" on="0"/>
        <pt x="227" y="602" on="0"/>
        <pt x="182" y="602" on="1"/>
        <pt x="138" y="602" on="0"/>
        <pt x="107" y="566" on="0"/>
        <pt x="107" y="530" on="1"/>
        <pt x="107" y="515" on="0"/>
        <pt x="111" y="481" on="0"/>
        <pt x="112" y="476" on="1"/>
        <pt x="59" y="476" on="1"/>
        <pt x="58" y="481" on="0"/>
        <pt x="54" y="516" on="0"/>
        <pt x="54" y="531" on="1"/>
        <pt x="54" y="651" on="0"/>
        <pt x="182" y="651" on="1"/>
        <pt x="310" y="651" on="0"/>
        <pt x="310" y="531" on="1"/>
        <pt x="310" y="404" on="1"/>
        <pt x="409" y="404" on="1"/>
        <pt x="459" y="404" on="0"/>
        <pt x="476" y="382" on="1"/>
        <pt x="534" y="383" on="0"/>
        <pt x="578" y="414" on="0"/>
        <pt x="578" y="456" on="1"/>
        <pt x="578" y="527" on="1"/>
        <pt x="578" y="556" on="0"/>
        <pt x="571" y="595" on="0"/>
        <pt x="570" y="600" on="1"/>
        <pt x="370" y="600" on="1"/>
        <pt x="370" y="646" on="1"/>
      </contour>
      <contour>
        <pt x="752" y="600" on="1"/>
        <pt x="622" y="600" on="1"/>
        <pt x="623" y="598" on="0"/>
        <pt x="626" y="582" on="0"/>
        <pt x="630" y="549" on="0"/>
        <pt x="630" y="527" on="1"/>
        <pt x="630" y="454" on="1"/>
        <pt x="630" y="394" on="0"/>
        <pt x="560" y="337" on="0"/>
        <pt x="497" y="337" on="1"/>
        <pt x="497" y="256" on="1"/>
        <pt x="497" y="193" on="0"/>
        <pt x="564" y="134" on="0"/>
        <pt x="637" y="134" on="1"/>
        <pt x="695" y="134" on="0"/>
        <pt x="752" y="145" on="1"/>
      </contour>
      <contour>
        <pt x="258" y="358" on="1"/>
        <pt x="179" y="358" on="1"/>
        <pt x="132" y="358" on="0"/>
        <pt x="101" y="326" on="0"/>
        <pt x="101" y="290" on="1"/>
        <pt x="101" y="178" on="1"/>
        <pt x="101" y="142" on="0"/>
        <pt x="132" y="110" on="0"/>
        <pt x="179" y="110" on="1"/>
        <pt x="227" y="110" on="0"/>
        <pt x="258" y="142" on="0"/>
        <pt x="258" y="178" on="1"/>
      </contour>
    </TTGlyph>
    <TTGlyph name="dvB_BA" xMin="-22" yMin="0" xMax="672" yMax="646">
      <contour>
        <pt x="672" y="600" on="1"/>
        <pt x="574" y="600" on="1"/>
        <pt x="574" y="0" on="1"/>
        <pt x="525" y="0" on="1"/>
        <pt x="525" y="86" on="1"/>
        <pt x="490" y="72" on="0"/>
        <pt x="437" y="72" on="1"/>
        <pt x="351" y="72" on="0"/>
        <pt x="315" y="116" on="1"/>
        <pt x="282" y="72" on="0"/>
        <pt x="194" y="72" on="1"/>
        <pt x="121" y="72" on="0"/>
        <pt x="48" y="135" on="0"/>
        <pt x="48" y="194" on="1"/>
        <pt x="48" y="383" on="1"/>
        <pt x="48" y="442" on="0"/>
        <pt x="120" y="505" on="0"/>
        <pt x="192" y="505" on="1"/>
        <pt x="208" y="505" on="0"/>
        <pt x="235" y="501" on="0"/>
        <pt x="239" y="500" on="1"/>
        <pt x="239" y="453" on="1"/>
        <pt x="235" y="454" on="0"/>
        <pt x="209" y="458" on="0"/>
        <pt x="193" y="458" on="1"/>
        <pt x="145" y="458" on="0"/>
        <pt x="102" y="424" on="0"/>
        <pt x="100" y="392" on="1"/>
        <pt x="287" y="249" on="1"/>
        <pt x="287" y="381" on="1"/>
        <pt x="287" y="441" on="0"/>
        <pt x="364" y="505" on="0"/>
        <pt x="437" y="505" on="1"/>
        <pt x="490" y="505" on="0"/>
        <pt x="525" y="491" on="1"/>
        <pt x="525" y="600" on="1"/>
        <pt x="-22" y="600" on="1"/>
        <pt x="-22" y="646" on="1"/>
        <pt x="672" y="646" on="1"/>
      </contour>
      <contour>
        <pt x="390" y="458" on="0"/>
        <pt x="343" y="423" on="0"/>
        <pt x="340" y="393" on="1"/>
        <pt x="525" y="249" on="1"/>
        <pt x="525" y="444" on="1"/>
        <pt x="490" y="458" on="0"/>
        <pt x="438" y="458" on="1"/>
      </contour>
      <contour>
        <pt x="493" y="120" on="0"/>
        <pt x="525" y="133" on="1"/>
        <pt x="525" y="199" on="1"/>
        <pt x="339" y="343" on="1"/>
        <pt x="339" y="197" on="1"/>
        <pt x="339" y="120" on="0"/>
        <pt x="438" y="120" on="1"/>
      </contour>
      <contour>
        <pt x="287" y="199" on="1"/>
        <pt x="100" y="342" on="1"/>
        <pt x="100" y="194" on="1"/>
        <pt x="100" y="158" on="0"/>
        <pt x="142" y="120" on="0"/>
        <pt x="194" y="120" on="1"/>
        <pt x="244" y="120" on="0"/>
        <pt x="287" y="157" on="0"/>
        <pt x="287" y="194" on="1"/>
      </contour>
    </TTGlyph>
    <TTGlyph name="dvB_BHA" xMin="-22" yMin="0" xMax="836" yMax="651">
      <contour>
        <pt x="836" y="646" on="1"/>
        <pt x="836" y="600" on="1"/>
        <pt x="737" y="600" on="1"/>
        <pt x="737" y="0" on="1"/>
        <pt x="685" y="0" on="1"/>
        <pt x="685" y="344" on="1"/>
        <pt x="548" y="344" on="1"/>
        <pt x="548" y="177" on="1"/>
        <pt x="548" y="119" on="0"/>
        <pt x="486" y="62" on="0"/>
        <pt x="417" y="62" on="1"/>
        <pt x="334" y="62" on="0"/>
        <pt x="305" y="106" on="1"/>
        <pt x="269" y="72" on="0"/>
        <pt x="193" y="72" on="1"/>
        <pt x="120" y="72" on="0"/>
        <pt x="48" y="135" on="0"/>
        <pt x="48" y="194" on="1"/>
        <pt x="48" y="383" on="1"/>
        <pt x="48" y="442" on="0"/>
        <pt x="120" y="505" on="0"/>
        <pt x="192" y="505" on="1"/>
        <pt x="208" y="505" on="0"/>
        <pt x="235" y="501" on="0"/>
        <pt x="239" y="500" on="1"/>
        <pt x="239" y="453" on="1"/>
        <pt x="235" y="454" on="0"/>
        <pt x="209" y="458" on="0"/>
        <pt x="193" y="458" on="1"/>
        <pt x="145" y="458" on="0"/>
        <pt x="102" y="424" on="0"/>
        <pt x="100" y="392" on="1"/>
        <pt x="287" y="249" on="1"/>
        <pt x="287" y="276" on="1"/>
        <pt x="287" y="334" on="0"/>
        <pt x="349" y="390" on="0"/>
        <pt x="417" y="390" on="1"/>
        <pt x="496" y="390" on="1"/>
        <pt x="496" y="530" on="1"/>
        <pt x="496" y="567" on="0"/>
        <pt x="465" y="602" on="0"/>
        <pt x="420" y="602" on="1"/>
        <pt x="376" y="602" on="0"/>
        <pt x="344" y="566" on="0"/>
        <pt x="344" y="530" on="1"/>
        <pt x="344" y="516" on="0"/>
        <pt x="347" y="481" on="0"/>
        <pt x="348" y="476" on="1"/>
        <pt x="296" y="476" on="1"/>
        <pt x="295" y="481" on="0"/>
        <pt x="292" y="515" on="0"/>
        <pt x="292" y="531" on="1"/>
        <pt x="292" y="651" on="0"/>
        <pt x="420" y="651" on="1"/>
        <pt x="548" y="651" on="0"/>
        <pt x="548" y="531" on="1"/>
        <pt x="548" y="390" on="1"/>
        <pt x="685" y="390" on="1"/>
        <pt x="685" y="646" on="1"/>
      </contour>
      <contour>
        <pt x="234" y="600" on="1"/>
        <pt x="-22" y="600" on="1"/>
        <pt x="-22" y="646" on="1"/>
        <pt x="234" y="646" on="1"/>
      </contour>
      <contour>
        <pt x="496" y="344" on="1"/>
        <pt x="417" y="344" on="1"/>
        <pt x="370" y="344" on="0"/>
        <pt x="338" y="311" on="0"/>
        <pt x="338" y="276" on="1"/>
        <pt x="338" y="178" on="1"/>
        <pt x="338" y="143" on="0"/>
        <pt x="370" y="110" on="0"/>
        <pt x="417" y="110" on="1"/>
        <pt x="464" y="110" on="0"/>
        <pt x="496" y="142" on="0"/>
        <pt x="496" y="178" on="1"/>
      </contour>
      <contour>
        <pt x="244" y="120" on="0"/>
        <pt x="287" y="157" on="0"/>
        <pt x="287" y="194" on="1"/>
        <pt x="287" y="199" on="1"/>
        <pt x="100" y="342" on="1"/>
        <pt x="100" y="194" on="1"/>
        <pt x="100" y="158" on="0"/>
        <pt x="141" y="120" on="0"/>
        <pt x="193" y="120" on="1"/>
      </contour>
    </TTGlyph>
    <TTGlyph name="dvB_BH_RA" xMin="-21" yMin="-45" xMax="839" yMax="651">
      <contour>
        <pt x="839" y="646" on="1"/>
        <pt x="839" y="600" on="1"/>
        <pt x="740" y="600" on="1"/>
        <pt x="740" y="-1" on="1"/>
        <pt x="689" y="-1" on="1"/>
        <pt x="689" y="33" on="1"/>
        <pt x="689" y="97" on="0"/>
        <pt x="692" y="171" on="0"/>
        <pt x="692" y="174" on="1"/>
        <pt x="687" y="161" on="0"/>
        <pt x="599" y="68" on="1"/>
        <pt x="493" y="-45" on="1"/>
        <pt x="422" y="-45" on="1"/>
        <pt x="688" y="235" on="1"/>
        <pt x="688" y="373" on="1"/>
        <pt x="547" y="373" on="1"/>
        <pt x="547" y="247" on="1"/>
        <pt x="547" y="189" on="0"/>
        <pt x="485" y="132" on="0"/>
        <pt x="417" y="132" on="1"/>
        <pt x="360" y="132" on="0"/>
        <pt x="331" y="151" on="1"/>
        <pt x="309" y="72" on="0"/>
        <pt x="193" y="72" on="1"/>
        <pt x="120" y="72" on="0"/>
        <pt x="48" y="135" on="0"/>
        <pt x="48" y="194" on="1"/>
        <pt x="48" y="383" on="1"/>
        <pt x="48" y="442" on="0"/>
        <pt x="120" y="505" on="0"/>
        <pt x="192" y="505" on="1"/>
        <pt x="208" y="505" on="0"/>
        <pt x="235" y="501" on="0"/>
        <pt x="239" y="500" on="1"/>
        <pt x="239" y="453" on="1"/>
        <pt x="235" y="454" on="0"/>
        <pt x="209" y="458" on="0"/>
        <pt x="193" y="458" on="1"/>
        <pt x="145" y="458" on="0"/>
        <pt x="102" y="424" on="0"/>
        <pt x="100" y="392" on="1"/>
        <pt x="286" y="250" on="1"/>
        <pt x="286" y="306" on="1"/>
        <pt x="286" y="364" on="0"/>
        <pt x="348" y="419" on="0"/>
        <pt x="417" y="419" on="1"/>
        <pt x="496" y="419" on="1"/>
        <pt x="496" y="530" on="1"/>
        <pt x="496" y="566" on="0"/>
        <pt x="464" y="602" on="0"/>
        <pt x="420" y="602" on="1"/>
        <pt x="375" y="602" on="0"/>
        <pt x="344" y="566" on="0"/>
        <pt x="344" y="530" on="1"/>
        <pt x="344" y="509" on="0"/>
        <pt x="347" y="480" on="0"/>
        <pt x="348" y="477" on="1"/>
        <pt x="296" y="477" on="1"/>
        <pt x="295" y="481" on="0"/>
        <pt x="292" y="513" on="0"/>
        <pt x="292" y="531" on="1"/>
        <pt x="292" y="651" on="0"/>
        <pt x="420" y="651" on="1"/>
        <pt x="548" y="651" on="0"/>
        <pt x="548" y="531" on="1"/>
        <pt x="548" y="419" on="1"/>
        <pt x="688" y="419" on="1"/>
        <pt x="688" y="646" on="1"/>
      </contour>
      <contour>
        <pt x="240" y="600" on="1"/>
        <pt x="-21" y="600" on="1"/>
        <pt x="-21" y="646" on="1"/>
        <pt x="240" y="646" on="1"/>
      </contour>
      <contour>
        <pt x="496" y="373" on="1"/>
        <pt x="417" y="373" on="1"/>
        <pt x="370" y="373" on="0"/>
        <pt x="338" y="341" on="0"/>
        <pt x="338" y="305" on="1"/>
        <pt x="338" y="248" on="1"/>
        <pt x="338" y="213" on="0"/>
        <pt x="370" y="180" on="0"/>
        <pt x="417" y="180" on="1"/>
        <pt x="464" y="180" on="0"/>
        <pt x="496" y="212" on="0"/>
        <pt x="496" y="248" on="1"/>
      </contour>
      <contour>
        <pt x="244" y="120" on="0"/>
        <pt x="287" y="157" on="0"/>
        <pt x="287" y="194" on="1"/>
        <pt x="287" y="199" on="1"/>
        <pt x="100" y="342" on="1"/>
        <pt x="100" y="194" on="1"/>
        <pt x="100" y="158" on="0"/>
        <pt x="141" y="120" on="0"/>
        <pt x="193" y="120" on="1"/>
      </contour>
    </TTGlyph>
    <TTGlyph name="dvB_DA" xMin="-22" yMin="-9" xMax="662" yMax="646">
      <contour>
        <pt x="379" y="455" on="0"/>
        <pt x="339" y="418" on="0"/>
        <pt x="339" y="383" on="1"/>
        <pt x="339" y="204" on="1"/>
        <pt x="339" y="124" on="0"/>
        <pt x="441" y="124" on="1"/>
        <pt x="468" y="124" on="0"/>
        <pt x="506" y="128" on="0"/>
        <pt x="530" y="134" on="1"/>
        <pt x="530" y="232" on="1"/>
        <pt x="579" y="232" on="1"/>
        <pt x="579" y="-9" on="1"/>
        <pt x="530" y="-9" on="1"/>
        <pt x="530" y="85" on="1"/>
        <pt x="488" y="76" on="0"/>
        <pt x="439" y="76" on="1"/>
        <pt x="355" y="76" on="0"/>
        <pt x="317" y="120" on="1"/>
        <pt x="284" y="72" on="0"/>
        <pt x="194" y="72" on="1"/>
        <pt x="121" y="72" on="0"/>
        <pt x="48" y="135" on="0"/>
        <pt x="48" y="194" on="1"/>
        <pt x="48" y="383" on="1"/>
        <pt x="48" y="442" on="0"/>
        <pt x="120" y="505" on="0"/>
        <pt x="192" y="505" on="1"/>
        <pt x="208" y="505" on="0"/>
        <pt x="235" y="501" on="0"/>
        <pt x="239" y="500" on="1"/>
        <pt x="239" y="453" on="1"/>
        <pt x="235" y="454" on="0"/>
        <pt x="209" y="458" on="0"/>
        <pt x="193" y="458" on="1"/>
        <pt x="145" y="458" on="0"/>
        <pt x="102" y="424" on="0"/>
        <pt x="100" y="392" on="1"/>
        <pt x="287" y="249" on="1"/>
        <pt x="287" y="383" on="1"/>
        <pt x="287" y="503" on="0"/>
        <pt x="430" y="503" on="1"/>
        <pt x="511" y="503" on="1"/>
        <pt x="511" y="600" on="1"/>
        <pt x="-22" y="600" on="1"/>
        <pt x="-22" y="646" on="1"/>
        <pt x="662" y="646" on="1"/>
        <pt x="662" y="600" on="1"/>
        <pt x="563" y="600" on="1"/>
        <pt x="563" y="455" on="1"/>
        <pt x="430" y="455" on="1"/>
      </contour>
      <contour>
        <pt x="244" y="120" on="0"/>
        <pt x="287" y="157" on="0"/>
        <pt x="287" y="194" on="1"/>
        <pt x="287" y="199" on="1"/>
        <pt x="100" y="342" on="1"/>
        <pt x="100" y="194" on="1"/>
        <pt x="100" y="158" on="0"/>
        <pt x="142" y="120" on="0"/>
        <pt x="194" y="120" on="1"/>
      </contour>
    </TTGlyph>
    <TTGlyph name="dvB_DHA" xMin="-22" yMin="0" xMax="731" yMax="646">
      <contour>
        <pt x="731" y="646" on="1"/>
        <pt x="731" y="600" on="1"/>
        <pt x="632" y="600" on="1"/>
        <pt x="632" y="0" on="1"/>
        <pt x="580" y="0" on="1"/>
        <pt x="580" y="78" on="1"/>
        <pt x="530" y="63" on="0"/>
        <pt x="465" y="63" on="1"/>
        <pt x="360" y="63" on="0"/>
        <pt x="315" y="117" on="1"/>
        <pt x="281" y="72" on="0"/>
        <pt x="193" y="72" on="1"/>
        <pt x="120" y="72" on="0"/>
        <pt x="48" y="135" on="0"/>
        <pt x="48" y="194" on="1"/>
        <pt x="48" y="383" on="1"/>
        <pt x="48" y="442" on="0"/>
        <pt x="120" y="505" on="0"/>
        <pt x="192" y="505" on="1"/>
        <pt x="208" y="505" on="0"/>
        <pt x="235" y="501" on="0"/>
        <pt x="239" y="500" on="1"/>
        <pt x="239" y="453" on="1"/>
        <pt x="235" y="454" on="0"/>
        <pt x="209" y="458" on="0"/>
        <pt x="193" y="458" on="1"/>
        <pt x="145" y="458" on="0"/>
        <pt x="102" y="424" on="0"/>
        <pt x="100" y="392" on="1"/>
        <pt x="286" y="250" on="1"/>
        <pt x="286" y="264" on="1"/>
        <pt x="286" y="343" on="0"/>
        <pt x="349" y="360" on="1"/>
        <pt x="317" y="371" on="0"/>
        <pt x="292" y="420" on="0"/>
        <pt x="292" y="457" on="1"/>
        <pt x="292" y="527" on="1"/>
        <pt x="292" y="549" on="0"/>
        <pt x="296" y="582" on="0"/>
        <pt x="300" y="598" on="0"/>
        <pt x="301" y="600" on="1"/>
        <pt x="-22" y="600" on="1"/>
        <pt x="-22" y="646" on="1"/>
        <pt x="459" y="646" on="1"/>
        <pt x="459" y="600" on="1"/>
        <pt x="354" y="600" on="1"/>
        <pt x="353" y="598" on="0"/>
        <pt x="349" y="581" on="0"/>
        <pt x="345" y="547" on="0"/>
        <pt x="345" y="527" on="1"/>
        <pt x="345" y="457" on="1"/>
        <pt x="345" y="421" on="0"/>
        <pt x="381" y="386" on="0"/>
        <pt x="432" y="385" on="1"/>
        <pt x="465" y="385" on="1"/>
        <pt x="465" y="336" on="1"/>
        <pt x="431" y="336" on="1"/>
        <pt x="379" y="336" on="0"/>
        <pt x="339" y="299" on="0"/>
        <pt x="339" y="264" on="1"/>
        <pt x="339" y="208" on="1"/>
        <pt x="339" y="156" on="0"/>
        <pt x="404" y="112" on="0"/>
        <pt x="466" y="112" on="1"/>
        <pt x="524" y="112" on="0"/>
        <pt x="580" y="126" on="1"/>
        <pt x="580" y="646" on="1"/>
      </contour>
      <contour>
        <pt x="242" y="120" on="0"/>
        <pt x="285" y="155" on="0"/>
        <pt x="287" y="189" on="1"/>
        <pt x="286" y="200" on="1"/>
        <pt x="100" y="342" on="1"/>
        <pt x="100" y="194" on="1"/>
        <pt x="100" y="158" on="0"/>
        <pt x="141" y="120" on="0"/>
        <pt x="193" y="120" on="1"/>
      </contour>
    </TTGlyph>
    <TTGlyph name="dvB_DH_VA" xMin="-22" yMin="0" xMax="961" yMax="646">
      <contour>
        <pt x="961" y="646" on="1"/>
        <pt x="961" y="600" on="1"/>
        <pt x="863" y="600" on="1"/>
        <pt x="863" y="0" on="1"/>
        <pt x="811" y="0" on="1"/>
        <pt x="811" y="86" on="1"/>
        <pt x="800" y="82" on="0"/>
        <pt x="746" y="72" on="0"/>
        <pt x="714" y="72" on="1"/>
        <pt x="640" y="72" on="0"/>
        <pt x="602" y="107" on="1"/>
        <pt x="524" y="87" on="0"/>
        <pt x="466" y="87" on="1"/>
        <pt x="370" y="87" on="0"/>
        <pt x="324" y="132" on="1"/>
        <pt x="294" y="72" on="0"/>
        <pt x="193" y="72" on="1"/>
        <pt x="120" y="72" on="0"/>
        <pt x="48" y="134" on="0"/>
        <pt x="48" y="194" on="1"/>
        <pt x="48" y="383" on="1"/>
        <pt x="48" y="442" on="0"/>
        <pt x="120" y="505" on="0"/>
        <pt x="192" y="505" on="1"/>
        <pt x="208" y="505" on="0"/>
        <pt x="235" y="501" on="0"/>
        <pt x="239" y="500" on="1"/>
        <pt x="239" y="453" on="1"/>
        <pt x="235" y="454" on="0"/>
        <pt x="209" y="458" on="0"/>
        <pt x="193" y="458" on="1"/>
        <pt x="145" y="458" on="0"/>
        <pt x="102" y="424" on="0"/>
        <pt x="100" y="392" on="1"/>
        <pt x="286" y="250" on="1"/>
        <pt x="286" y="283" on="1"/>
        <pt x="286" y="362" on="0"/>
        <pt x="349" y="378" on="1"/>
        <pt x="317" y="390" on="0"/>
        <pt x="292" y="438" on="0"/>
        <pt x="292" y="475" on="1"/>
        <pt x="292" y="527" on="1"/>
        <pt x="292" y="549" on="0"/>
        <pt x="296" y="582" on="0"/>
        <pt x="300" y="598" on="0"/>
        <pt x="301" y="600" on="1"/>
        <pt x="-22" y="600" on="1"/>
        <pt x="-22" y="646" on="1"/>
        <pt x="430" y="646" on="1"/>
        <pt x="430" y="600" on="1"/>
        <pt x="354" y="600" on="1"/>
        <pt x="353" y="598" on="0"/>
        <pt x="349" y="581" on="0"/>
        <pt x="345" y="547" on="0"/>
        <pt x="345" y="527" on="1"/>
        <pt x="345" y="476" on="1"/>
        <pt x="345" y="440" on="0"/>
        <pt x="381" y="404" on="0"/>
        <pt x="432" y="403" on="1"/>
        <pt x="465" y="403" on="1"/>
        <pt x="465" y="355" on="1"/>
        <pt x="431" y="355" on="1"/>
        <pt x="379" y="355" on="0"/>
        <pt x="339" y="318" on="0"/>
        <pt x="339" y="282" on="1"/>
        <pt x="339" y="232" on="1"/>
        <pt x="339" y="180" on="0"/>
        <pt x="404" y="136" on="0"/>
        <pt x="467" y="136" on="1"/>
        <pt x="518" y="136" on="0"/>
        <pt x="575" y="149" on="1"/>
        <pt x="567" y="173" on="0"/>
        <pt x="567" y="200" on="1"/>
        <pt x="567" y="378" on="1"/>
        <pt x="567" y="437" on="0"/>
        <pt x="643" y="505" on="0"/>
        <pt x="714" y="505" on="1"/>
        <pt x="745" y="505" on="0"/>
        <pt x="801" y="496" on="0"/>
        <pt x="811" y="492" on="1"/>
        <pt x="811" y="600" on="1"/>
        <pt x="551" y="600" on="1"/>
        <pt x="551" y="646" on="1"/>
      </contour>
      <contour>
        <pt x="811" y="444" on="1"/>
        <pt x="802" y="448" on="0"/>
        <pt x="747" y="457" on="0"/>
        <pt x="716" y="457" on="1"/>
        <pt x="665" y="457" on="0"/>
        <pt x="619" y="413" on="0"/>
        <pt x="619" y="377" on="1"/>
        <pt x="619" y="200" on="1"/>
        <pt x="619" y="120" on="0"/>
        <pt x="716" y="120" on="1"/>
        <pt x="747" y="120" on="0"/>
        <pt x="801" y="130" on="0"/>
        <pt x="811" y="134" on="1"/>
      </contour>
      <contour>
        <pt x="243" y="120" on="0"/>
        <pt x="286" y="157" on="0"/>
        <pt x="286" y="194" on="1"/>
        <pt x="286" y="200" on="1"/>
        <pt x="100" y="342" on="1"/>
        <pt x="100" y="194" on="1"/>
        <pt x="100" y="158" on="0"/>
        <pt x="141" y="120" on="0"/>
        <pt x="193" y="120" on="1"/>
      </contour>
    </TTGlyph>
    <TTGlyph name="dvB_JA" xMin="-22" yMin="0" xMax="868" yMax="646">
      <contour>
        <pt x="868" y="600" on="1"/>
        <pt x="770" y="600" on="1"/>
        <pt x="770" y="0" on="1"/>
        <pt x="718" y="0" on="1"/>
        <pt x="718" y="449" on="1"/>
        <pt x="565" y="449" on="1"/>
        <pt x="566" y="447" on="0"/>
        <pt x="570" y="431" on="0"/>
        <pt x="574" y="397" on="0"/>
        <pt x="574" y="376" on="1"/>
        <pt x="574" y="194" on="1"/>
        <pt x="574" y="132" on="0"/>
        <pt x="499" y="65" on="0"/>
        <pt x="426" y="65" on="1"/>
        <pt x="396" y="65" on="0"/>
        <pt x="308" y="81" on="0"/>
        <pt x="281" y="89" on="1"/>
        <pt x="247" y="72" on="0"/>
        <pt x="193" y="72" on="1"/>
        <pt x="120" y="72" on="0"/>
        <pt x="48" y="135" on="0"/>
        <pt x="48" y="194" on="1"/>
        <pt x="48" y="383" on="1"/>
        <pt x="48" y="443" on="0"/>
        <pt x="120" y="505" on="0"/>
        <pt x="193" y="505" on="1"/>
        <pt x="268" y="505" on="0"/>
        <pt x="337" y="444" on="0"/>
        <pt x="337" y="383" on="1"/>
        <pt x="337" y="194" on="1"/>
        <pt x="337" y="153" on="0"/>
        <pt x="323" y="129" on="1"/>
        <pt x="393" y="113" on="0"/>
        <pt x="426" y="113" on="1"/>
        <pt x="521" y="113" on="0"/>
        <pt x="521" y="195" on="1"/>
        <pt x="521" y="375" on="1"/>
        <pt x="521" y="404" on="0"/>
        <pt x="514" y="443" on="0"/>
        <pt x="513" y="448" on="1"/>
        <pt x="405" y="448" on="1"/>
        <pt x="405" y="495" on="1"/>
        <pt x="718" y="495" on="1"/>
        <pt x="718" y="600" on="1"/>
        <pt x="-22" y="600" on="1"/>
        <pt x="-22" y="646" on="1"/>
        <pt x="868" y="646" on="1"/>
      </contour>
      <contour>
        <pt x="134" y="458" on="0"/>
        <pt x="111" y="425" on="1"/>
        <pt x="287" y="208" on="1"/>
        <pt x="287" y="382" on="1"/>
        <pt x="287" y="417" on="0"/>
        <pt x="243" y="458" on="0"/>
        <pt x="193" y="458" on="1"/>
      </contour>
      <contour>
        <pt x="229" y="120" on="0"/>
        <pt x="269" y="137" on="0"/>
        <pt x="278" y="155" on="1"/>
        <pt x="100" y="375" on="1"/>
        <pt x="100" y="194" on="1"/>
        <pt x="100" y="158" on="0"/>
        <pt x="141" y="120" on="0"/>
        <pt x="193" y="120" on="1"/>
      </contour>
    </TTGlyph>
    <TTGlyph name="dvB_JHA" xMin="-22" yMin="-57" xMax="941" yMax="646">
      <contour>
        <pt x="941" y="600" on="1"/>
        <pt x="842" y="600" on="1"/>
        <pt x="842" y="0" on="1"/>
        <pt x="790" y="0" on="1"/>
        <pt x="790" y="264" on="1"/>
        <pt x="633" y="264" on="1"/>
        <pt x="664" y="245" on="0"/>
        <pt x="664" y="191" on="1"/>
        <pt x="664" y="143" on="1"/>
        <pt x="664" y="83" on="0"/>
        <pt x="595" y="23" on="0"/>
        <pt x="518" y="23" on="1"/>
        <pt x="467" y="23" on="0"/>
        <pt x="430" y="32" on="1"/>
        <pt x="430" y="-57" on="1"/>
        <pt x="381" y="-57" on="1"/>
        <pt x="381" y="155" on="1"/>
        <pt x="430" y="155" on="1"/>
        <pt x="430" y="81" on="1"/>
        <pt x="468" y="71" on="0"/>
        <pt x="516" y="71" on="1"/>
        <pt x="567" y="71" on="0"/>
        <pt x="612" y="109" on="0"/>
        <pt x="612" y="144" on="1"/>
        <pt x="612" y="191" on="1"/>
        <pt x="612" y="226" on="0"/>
        <pt x="573" y="263" on="0"/>
        <pt x="524" y="263" on="1"/>
        <pt x="516" y="263" on="1"/>
        <pt x="512" y="263" on="1"/>
        <pt x="336" y="263" on="1"/>
        <pt x="336" y="192" on="1"/>
        <pt x="336" y="133" on="0"/>
        <pt x="268" y="71" on="0"/>
        <pt x="193" y="71" on="1"/>
        <pt x="120" y="71" on="0"/>
        <pt x="48" y="134" on="0"/>
        <pt x="48" y="193" on="1"/>
        <pt x="48" y="382" on="1"/>
        <pt x="48" y="441" on="0"/>
        <pt x="120" y="504" on="0"/>
        <pt x="192" y="504" on="1"/>
        <pt x="210" y="504" on="0"/>
        <pt x="244" y="500" on="0"/>
        <pt x="249" y="499" on="1"/>
        <pt x="249" y="451" on="1"/>
        <pt x="244" y="452" on="0"/>
        <pt x="212" y="456" on="0"/>
        <pt x="193" y="456" on="1"/>
        <pt x="144" y="456" on="0"/>
        <pt x="102" y="423" on="0"/>
        <pt x="100" y="391" on="1"/>
        <pt x="287" y="247" on="1"/>
        <pt x="287" y="310" on="1"/>
        <pt x="394" y="310" on="1"/>
        <pt x="375" y="336" on="0"/>
        <pt x="375" y="381" on="1"/>
        <pt x="375" y="388" on="1"/>
        <pt x="375" y="505" on="0"/>
        <pt x="517" y="505" on="1"/>
        <pt x="605" y="505" on="1"/>
        <pt x="605" y="600" on="1"/>
        <pt x="-22" y="600" on="1"/>
        <pt x="-22" y="646" on="1"/>
        <pt x="941" y="646" on="1"/>
      </contour>
      <contour>
        <pt x="790" y="600" on="1"/>
        <pt x="657" y="600" on="1"/>
        <pt x="657" y="457" on="1"/>
        <pt x="517" y="457" on="1"/>
        <pt x="466" y="457" on="0"/>
        <pt x="427" y="423" on="0"/>
        <pt x="427" y="388" on="1"/>
        <pt x="427" y="381" on="1"/>
        <pt x="427" y="346" on="0"/>
        <pt x="465" y="311" on="0"/>
        <pt x="514" y="310" on="1"/>
        <pt x="790" y="310" on="1"/>
      </contour>
      <contour>
        <pt x="244" y="118" on="0"/>
        <pt x="287" y="155" on="0"/>
        <pt x="287" y="193" on="1"/>
        <pt x="287" y="198" on="1"/>
        <pt x="100" y="341" on="1"/>
        <pt x="100" y="193" on="1"/>
        <pt x="100" y="156" on="0"/>
        <pt x="141" y="118" on="0"/>
        <pt x="193" y="118" on="1"/>
      </contour>
    </TTGlyph>
    <TTGlyph name="dvB_J_YA" xMin="16" yMin="0" xMax="1148" yMax="646">
      <contour>
        <pt x="1148" y="600" on="1"/>
        <pt x="1049" y="600" on="1"/>
        <pt x="1049" y="0" on="1"/>
        <pt x="997" y="0" on="1"/>
        <pt x="997" y="97" on="1"/>
        <pt x="939" y="85" on="0"/>
        <pt x="882" y="85" on="1"/>
        <pt x="690" y="85" on="0"/>
        <pt x="690" y="254" on="1"/>
        <pt x="690" y="395" on="1"/>
        <pt x="690" y="429" on="0"/>
        <pt x="654" y="449" on="0"/>
        <pt x="607" y="449" on="1"/>
        <pt x="565" y="449" on="1"/>
        <pt x="566" y="447" on="0"/>
        <pt x="570" y="431" on="0"/>
        <pt x="574" y="397" on="0"/>
        <pt x="574" y="376" on="1"/>
        <pt x="574" y="194" on="1"/>
        <pt x="574" y="132" on="0"/>
        <pt x="499" y="65" on="0"/>
        <pt x="426" y="65" on="1"/>
        <pt x="395" y="65" on="0"/>
        <pt x="302" y="82" on="0"/>
        <pt x="277" y="90" on="1"/>
        <pt x="280" y="119" on="1"/>
        <pt x="247" y="107" on="0"/>
        <pt x="193" y="107" on="1"/>
        <pt x="48" y="107" on="0"/>
        <pt x="48" y="201" on="1"/>
        <pt x="48" y="376" on="1"/>
        <pt x="48" y="422" on="0"/>
        <pt x="120" y="471" on="0"/>
        <pt x="193" y="471" on="1"/>
        <pt x="268" y="471" on="0"/>
        <pt x="337" y="423" on="0"/>
        <pt x="337" y="376" on="1"/>
        <pt x="337" y="201" on="1"/>
        <pt x="337" y="155" on="0"/>
        <pt x="305" y="133" on="1"/>
        <pt x="336" y="125" on="0"/>
        <pt x="406" y="113" on="0"/>
        <pt x="426" y="113" on="1"/>
        <pt x="521" y="113" on="0"/>
        <pt x="521" y="195" on="1"/>
        <pt x="521" y="375" on="1"/>
        <pt x="521" y="404" on="0"/>
        <pt x="514" y="443" on="0"/>
        <pt x="513" y="448" on="1"/>
        <pt x="405" y="448" on="1"/>
        <pt x="405" y="495" on="1"/>
        <pt x="622" y="495" on="1"/>
        <pt x="677" y="495" on="0"/>
        <pt x="736" y="455" on="0"/>
        <pt x="738" y="403" on="1"/>
        <pt x="786" y="405" on="0"/>
        <pt x="823" y="436" on="0"/>
        <pt x="823" y="476" on="1"/>
        <pt x="823" y="527" on="1"/>
        <pt x="823" y="556" on="0"/>
        <pt x="816" y="595" on="0"/>
        <pt x="815" y="600" on="1"/>
        <pt x="16" y="600" on="1"/>
        <pt x="16" y="646" on="1"/>
        <pt x="1148" y="646" on="1"/>
      </contour>
      <contour>
        <pt x="997" y="600" on="1"/>
        <pt x="867" y="600" on="1"/>
        <pt x="868" y="598" on="0"/>
        <pt x="871" y="582" on="0"/>
        <pt x="875" y="549" on="0"/>
        <pt x="875" y="527" on="1"/>
        <pt x="875" y="473" on="1"/>
        <pt x="875" y="413" on="0"/>
        <pt x="805" y="356" on="0"/>
        <pt x="742" y="356" on="1"/>
        <pt x="742" y="256" on="1"/>
        <pt x="742" y="193" on="0"/>
        <pt x="810" y="134" on="0"/>
        <pt x="882" y="134" on="1"/>
        <pt x="940" y="134" on="0"/>
        <pt x="997" y="145" on="1"/>
      </contour>
      <contour>
        <pt x="133" y="456" on="0"/>
        <pt x="116" y="426" on="1"/>
        <pt x="119" y="426" on="0"/>
        <pt x="287" y="215" on="0"/>
        <pt x="287" y="212" on="1"/>
        <pt x="287" y="378" on="1"/>
        <pt x="287" y="411" on="0"/>
        <pt x="234" y="456" on="0"/>
        <pt x="184" y="456" on="1"/>
      </contour>
      <contour>
        <pt x="260" y="121" on="0"/>
        <pt x="274" y="153" on="1"/>
        <pt x="271" y="153" on="0"/>
        <pt x="100" y="368" on="0"/>
        <pt x="100" y="371" on="1"/>
        <pt x="100" y="199" on="1"/>
        <pt x="100" y="164" on="0"/>
        <pt x="150" y="121" on="0"/>
        <pt x="203" y="121" on="1"/>
      </contour>
    </TTGlyph>
    <TTGlyph name="dvB_JxA" xMin="-22" yMin="-61" xMax="868" yMax="646">
      <contour>
        <pt x="868" y="600" on="1"/>
        <pt x="770" y="600" on="1"/>
        <pt x="770" y="0" on="1"/>
        <pt x="718" y="0" on="1"/>
        <pt x="718" y="449" on="1"/>
        <pt x="565" y="449" on="1"/>
        <pt x="566" y="447" on="0"/>
        <pt x="570" y="431" on="0"/>
        <pt x="574" y="397" on="0"/>
        <pt x="574" y="376" on="1"/>
        <pt x="574" y="194" on="1"/>
        <pt x="574" y="132" on="0"/>
        <pt x="499" y="65" on="0"/>
        <pt x="426" y="65" on="1"/>
        <pt x="396" y="65" on="0"/>
        <pt x="308" y="81" on="0"/>
        <pt x="281" y="89" on="1"/>
        <pt x="247" y="72" on="0"/>
        <pt x="193" y="72" on="1"/>
        <pt x="120" y="72" on="0"/>
        <pt x="48" y="135" on="0"/>
        <pt x="48" y="194" on="1"/>
        <pt x="48" y="383" on="1"/>
        <pt x="48" y="443" on="0"/>
        <pt x="120" y="505" on="0"/>
        <pt x="193" y="505" on="1"/>
        <pt x="268" y="505" on="0"/>
        <pt x="337" y="444" on="0"/>
        <pt x="337" y="383" on="1"/>
        <pt x="337" y="194" on="1"/>
        <pt x="337" y="153" on="0"/>
        <pt x="323" y="129" on="1"/>
        <pt x="393" y="113" on="0"/>
        <pt x="426" y="113" on="1"/>
        <pt x="521" y="113" on="0"/>
        <pt x="521" y="195" on="1"/>
        <pt x="521" y="375" on="1"/>
        <pt x="521" y="404" on="0"/>
        <pt x="514" y="443" on="0"/>
        <pt x="513" y="448" on="1"/>
        <pt x="405" y="448" on="1"/>
        <pt x="405" y="495" on="1"/>
        <pt x="718" y="495" on="1"/>
        <pt x="718" y="600" on="1"/>
        <pt x="-22" y="600" on="1"/>
        <pt x="-22" y="646" on="1"/>
        <pt x="868" y="646" on="1"/>
      </contour>
      <contour>
        <pt x="134" y="458" on="0"/>
        <pt x="111" y="425" on="1"/>
        <pt x="287" y="208" on="1"/>
        <pt x="287" y="382" on="1"/>
        <pt x="287" y="417" on="0"/>
        <pt x="243" y="458" on="0"/>
        <pt x="193" y="458" on="1"/>
      </contour>
      <contour>
        <pt x="229" y="120" on="0"/>
        <pt x="269" y="137" on="0"/>
        <pt x="278" y="155" on="1"/>
        <pt x="100" y="375" on="1"/>
        <pt x="100" y="194" on="1"/>
        <pt x="100" y="158" on="0"/>
        <pt x="141" y="120" on="0"/>
        <pt x="193" y="120" on="1"/>
      </contour>
      <contour>
        <pt x="336" y="11" on="0"/>
        <pt x="336" y="-25" on="1"/>
        <pt x="336" y="-61" on="0"/>
        <pt x="300" y="-61" on="1"/>
        <pt x="263" y="-61" on="0"/>
        <pt x="263" y="-25" on="1"/>
        <pt x="263" y="11" on="0"/>
        <pt x="300" y="11" on="1"/>
      </contour>
    </TTGlyph>
    <TTGlyph name="dvB_LA" xMin="-22" yMin="0" xMax="869" yMax="646">
      <contour>
        <pt x="869" y="600" on="1"/>
        <pt x="770" y="600" on="1"/>
        <pt x="770" y="0" on="1"/>
        <pt x="718" y="0" on="1"/>
        <pt x="718" y="414" on="1"/>
        <pt x="685" y="429" on="0"/>
        <pt x="641" y="429" on="1"/>
        <pt x="596" y="429" on="0"/>
        <pt x="555" y="389" on="0"/>
        <pt x="555" y="355" on="1"/>
        <pt x="555" y="206" on="1"/>
        <pt x="503" y="206" on="1"/>
        <pt x="503" y="355" on="1"/>
        <pt x="503" y="389" on="0"/>
        <pt x="466" y="429" on="0"/>
        <pt x="421" y="429" on="1"/>
        <pt x="375" y="429" on="0"/>
        <pt x="340" y="389" on="0"/>
        <pt x="340" y="352" on="1"/>
        <pt x="340" y="149" on="1"/>
        <pt x="340" y="100" on="0"/>
        <pt x="386" y="47" on="0"/>
        <pt x="447" y="47" on="1"/>
        <pt x="472" y="47" on="0"/>
        <pt x="504" y="52" on="1"/>
        <pt x="504" y="5" on="1"/>
        <pt x="477" y="0" on="0"/>
        <pt x="446" y="0" on="1"/>
        <pt x="318" y="0" on="0"/>
        <pt x="293" y="96" on="1"/>
        <pt x="259" y="72" on="0"/>
        <pt x="194" y="72" on="1"/>
        <pt x="121" y="72" on="0"/>
        <pt x="48" y="135" on="0"/>
        <pt x="48" y="194" on="1"/>
        <pt x="48" y="383" on="1"/>
        <pt x="48" y="442" on="0"/>
        <pt x="120" y="505" on="0"/>
        <pt x="192" y="505" on="1"/>
        <pt x="208" y="505" on="0"/>
        <pt x="235" y="501" on="0"/>
        <pt x="239" y="500" on="1"/>
        <pt x="239" y="453" on="1"/>
        <pt x="235" y="454" on="0"/>
        <pt x="209" y="458" on="0"/>
        <pt x="193" y="458" on="1"/>
        <pt x="145" y="458" on="0"/>
        <pt x="102" y="424" on="0"/>
        <pt x="100" y="392" on="1"/>
        <pt x="287" y="249" on="1"/>
        <pt x="287" y="352" on="1"/>
        <pt x="287" y="411" on="0"/>
        <pt x="354" y="477" on="0"/>
        <pt x="421" y="477" on="1"/>
        <pt x="459" y="477" on="0"/>
        <pt x="513" y="454" on="0"/>
        <pt x="528" y="433" on="1"/>
        <pt x="544" y="454" on="0"/>
        <pt x="601" y="477" on="0"/>
        <pt x="640" y="477" on="1"/>
        <pt x="681" y="477" on="0"/>
        <pt x="718" y="462" on="1"/>
        <pt x="718" y="600" on="1"/>
        <pt x="-22" y="600" on="1"/>
        <pt x="-22" y="646" on="1"/>
        <pt x="869" y="646" on="1"/>
      </contour>
      <contour>
        <pt x="244" y="120" on="0"/>
        <pt x="287" y="157" on="0"/>
        <pt x="287" y="194" on="1"/>
        <pt x="287" y="199" on="1"/>
        <pt x="100" y="342" on="1"/>
        <pt x="100" y="194" on="1"/>
        <pt x="100" y="158" on="0"/>
        <pt x="142" y="120" on="0"/>
        <pt x="194" y="120" on="1"/>
      </contour>
    </TTGlyph>
    <TTGlyph name="dvB_L_YA" xMin="-22" yMin="0" xMax="1160" yMax="646">
      <contour>
        <pt x="1160" y="600" on="1"/>
        <pt x="1061" y="600" on="1"/>
        <pt x="1061" y="0" on="1"/>
        <pt x="1009" y="0" on="1"/>
        <pt x="1009" y="97" on="1"/>
        <pt x="951" y="85" on="0"/>
        <pt x="894" y="85" on="1"/>
        <pt x="702" y="85" on="0"/>
        <pt x="702" y="254" on="1"/>
        <pt x="702" y="352" on="1"/>
        <pt x="702" y="392" on="0"/>
        <pt x="673" y="429" on="0"/>
        <pt x="625" y="429" on="1"/>
        <pt x="584" y="429" on="0"/>
        <pt x="553" y="390" on="0"/>
        <pt x="553" y="352" on="1"/>
        <pt x="553" y="206" on="1"/>
        <pt x="501" y="206" on="1"/>
        <pt x="501" y="352" on="1"/>
        <pt x="501" y="389" on="0"/>
        <pt x="466" y="429" on="0"/>
        <pt x="419" y="429" on="1"/>
        <pt x="373" y="429" on="0"/>
        <pt x="338" y="389" on="0"/>
        <pt x="338" y="352" on="1"/>
        <pt x="338" y="149" on="1"/>
        <pt x="338" y="100" on="0"/>
        <pt x="384" y="47" on="0"/>
        <pt x="445" y="47" on="1"/>
        <pt x="504" y="47" on="1"/>
        <pt x="504" y="0" on="1"/>
        <pt x="444" y="0" on="1"/>
        <pt x="317" y="0" on="0"/>
        <pt x="292" y="96" on="1"/>
        <pt x="258" y="72" on="0"/>
        <pt x="193" y="72" on="1"/>
        <pt x="120" y="72" on="0"/>
        <pt x="48" y="134" on="0"/>
        <pt x="48" y="194" on="1"/>
        <pt x="48" y="383" on="1"/>
        <pt x="48" y="442" on="0"/>
        <pt x="120" y="505" on="0"/>
        <pt x="192" y="505" on="1"/>
        <pt x="208" y="505" on="0"/>
        <pt x="235" y="501" on="0"/>
        <pt x="239" y="500" on="1"/>
        <pt x="239" y="453" on="1"/>
        <pt x="235" y="454" on="0"/>
        <pt x="209" y="458" on="0"/>
        <pt x="193" y="458" on="1"/>
        <pt x="145" y="458" on="0"/>
        <pt x="102" y="424" on="0"/>
        <pt x="100" y="392" on="1"/>
        <pt x="286" y="250" on="1"/>
        <pt x="286" y="352" on="1"/>
        <pt x="286" y="412" on="0"/>
        <pt x="352" y="477" on="0"/>
        <pt x="419" y="477" on="1"/>
        <pt x="457" y="477" on="0"/>
        <pt x="511" y="454" on="0"/>
        <pt x="526" y="433" on="1"/>
        <pt x="559" y="477" on="0"/>
        <pt x="625" y="477" on="1"/>
        <pt x="735" y="477" on="0"/>
        <pt x="751" y="383" on="1"/>
        <pt x="798" y="385" on="0"/>
        <pt x="835" y="417" on="0"/>
        <pt x="835" y="456" on="1"/>
        <pt x="835" y="527" on="1"/>
        <pt x="835" y="556" on="0"/>
        <pt x="828" y="595" on="0"/>
        <pt x="827" y="600" on="1"/>
        <pt x="-22" y="600" on="1"/>
        <pt x="-22" y="646" on="1"/>
        <pt x="1160" y="646" on="1"/>
      </contour>
      <contour>
        <pt x="1009" y="600" on="1"/>
        <pt x="879" y="600" on="1"/>
        <pt x="880" y="598" on="0"/>
        <pt x="883" y="582" on="0"/>
        <pt x="887" y="549" on="0"/>
        <pt x="887" y="527" on="1"/>
        <pt x="887" y="454" on="1"/>
        <pt x="887" y="394" on="0"/>
        <pt x="817" y="337" on="0"/>
        <pt x="754" y="337" on="1"/>
        <pt x="754" y="256" on="1"/>
        <pt x="754" y="193" on="0"/>
        <pt x="822" y="134" on="0"/>
        <pt x="894" y="134" on="1"/>
        <pt x="952" y="134" on="0"/>
        <pt x="1009" y="145" on="1"/>
      </contour>
      <contour>
        <pt x="243" y="120" on="0"/>
        <pt x="286" y="157" on="0"/>
        <pt x="286" y="194" on="1"/>
        <pt x="286" y="200" on="1"/>
        <pt x="100" y="342" on="1"/>
        <pt x="100" y="194" on="1"/>
        <pt x="100" y="158" on="0"/>
        <pt x="141" y="120" on="0"/>
        <pt x="193" y="120" on="1"/>
      </contour>
    </TTGlyph>
    <TTGlyph name="dvB_NA" xMin="-22" yMin="0" xMax="825" yMax="646">
      <contour>
        <pt x="825" y="600" on="1"/>
        <pt x="726" y="600" on="1"/>
        <pt x="726" y="0" on="1"/>
        <pt x="674" y="0" on="1"/>
        <pt x="674" y="430" on="1"/>
        <pt x="526" y="430" on="1"/>
        <pt x="527" y="428" on="0"/>
        <pt x="533" y="411" on="0"/>
        <pt x="538" y="378" on="0"/>
        <pt x="538" y="357" on="1"/>
        <pt x="538" y="178" on="1"/>
        <pt x="538" y="62" on="0"/>
        <pt x="412" y="62" on="1"/>
        <pt x="334" y="62" on="0"/>
        <pt x="304" y="106" on="1"/>
        <pt x="268" y="72" on="0"/>
        <pt x="192" y="72" on="1"/>
        <pt x="120" y="72" on="0"/>
        <pt x="48" y="135" on="0"/>
        <pt x="48" y="194" on="1"/>
        <pt x="48" y="382" on="1"/>
        <pt x="48" y="441" on="0"/>
        <pt x="120" y="504" on="0"/>
        <pt x="192" y="504" on="1"/>
        <pt x="288" y="504" on="0"/>
        <pt x="319" y="451" on="1"/>
        <pt x="353" y="477" on="0"/>
        <pt x="412" y="477" on="1"/>
        <pt x="674" y="477" on="1"/>
        <pt x="674" y="600" on="1"/>
        <pt x="-22" y="600" on="1"/>
        <pt x="-22" y="646" on="1"/>
        <pt x="825" y="646" on="1"/>
      </contour>
      <contour>
        <pt x="144" y="456" on="0"/>
        <pt x="102" y="423" on="0"/>
        <pt x="100" y="391" on="1"/>
        <pt x="285" y="251" on="1"/>
        <pt x="285" y="382" on="1"/>
        <pt x="285" y="420" on="0"/>
        <pt x="243" y="456" on="0"/>
        <pt x="193" y="456" on="1"/>
      </contour>
      <contour>
        <pt x="487" y="356" on="1"/>
        <pt x="487" y="385" on="0"/>
        <pt x="476" y="430" on="0"/>
        <pt x="474" y="430" on="1"/>
        <pt x="412" y="430" on="1"/>
        <pt x="370" y="430" on="0"/>
        <pt x="337" y="397" on="0"/>
        <pt x="337" y="363" on="1"/>
        <pt x="337" y="178" on="1"/>
        <pt x="337" y="144" on="0"/>
        <pt x="371" y="110" on="0"/>
        <pt x="412" y="110" on="1"/>
        <pt x="454" y="110" on="0"/>
        <pt x="487" y="144" on="0"/>
        <pt x="487" y="178" on="1"/>
      </contour>
      <contour>
        <pt x="243" y="120" on="0"/>
        <pt x="285" y="157" on="0"/>
        <pt x="285" y="194" on="1"/>
        <pt x="285" y="200" on="1"/>
        <pt x="100" y="341" on="1"/>
        <pt x="100" y="194" on="1"/>
        <pt x="100" y="158" on="0"/>
        <pt x="141" y="120" on="0"/>
        <pt x="193" y="120" on="1"/>
      </contour>
    </TTGlyph>
    <TTGlyph name="dvB_R" xMin="-22" yMin="-65" xMax="362" yMax="646">
      <contour>
        <pt x="362" y="646" on="1"/>
        <pt x="362" y="600" on="1"/>
        <pt x="-22" y="600" on="1"/>
        <pt x="-22" y="646" on="1"/>
      </contour>
      <contour>
        <pt x="273" y="505" on="0"/>
        <pt x="342" y="444" on="0"/>
        <pt x="342" y="383" on="1"/>
        <pt x="342" y="204" on="1"/>
        <pt x="342" y="164" on="0"/>
        <pt x="313" y="118" on="0"/>
        <pt x="273" y="80" on="1"/>
        <pt x="118" y="-65" on="1"/>
        <pt x="45" y="-65" on="1"/>
        <pt x="205" y="83" on="1"/>
        <pt x="53" y="80" on="0"/>
        <pt x="53" y="204" on="1"/>
        <pt x="53" y="383" on="1"/>
        <pt x="53" y="505" on="0"/>
        <pt x="198" y="505" on="1"/>
      </contour>
      <contour>
        <pt x="150" y="458" on="0"/>
        <pt x="107" y="425" on="0"/>
        <pt x="105" y="393" on="1"/>
        <pt x="291" y="258" on="1"/>
        <pt x="291" y="383" on="1"/>
        <pt x="291" y="421" on="0"/>
        <pt x="249" y="458" on="0"/>
        <pt x="198" y="458" on="1"/>
      </contour>
      <contour>
        <pt x="249" y="130" on="0"/>
        <pt x="291" y="166" on="0"/>
        <pt x="291" y="204" on="1"/>
        <pt x="291" y="209" on="1"/>
        <pt x="105" y="344" on="1"/>
        <pt x="105" y="204" on="1"/>
        <pt x="105" y="168" on="0"/>
        <pt x="146" y="130" on="0"/>
        <pt x="198" y="130" on="1"/>
      </contour>
    </TTGlyph>
    <TTGlyph name="dvB_RA" xMin="-22" yMin="-55" xMax="438" yMax="646">
      <contour>
        <pt x="438" y="646" on="1"/>
        <pt x="438" y="600" on="1"/>
        <pt x="339" y="600" on="1"/>
        <pt x="339" y="0" on="1"/>
        <pt x="290" y="0" on="1"/>
        <pt x="290" y="112" on="1"/>
        <pt x="287" y="111" on="1"/>
        <pt x="113" y="-55" on="1"/>
        <pt x="42" y="-55" on="1"/>
        <pt x="206" y="99" on="1"/>
        <pt x="203" y="99" on="1"/>
        <pt x="130" y="99" on="0"/>
        <pt x="53" y="163" on="0"/>
        <pt x="53" y="222" on="1"/>
        <pt x="53" y="381" on="1"/>
        <pt x="53" y="441" on="0"/>
        <pt x="130" y="505" on="0"/>
        <pt x="202" y="505" on="1"/>
        <pt x="233" y="505" on="0"/>
        <pt x="279" y="496" on="0"/>
        <pt x="290" y="491" on="1"/>
        <pt x="290" y="600" on="1"/>
        <pt x="-22" y="600" on="1"/>
        <pt x="-22" y="646" on="1"/>
      </contour>
      <contour>
        <pt x="156" y="458" on="0"/>
        <pt x="109" y="423" on="0"/>
        <pt x="106" y="393" on="1"/>
        <pt x="290" y="250" on="1"/>
        <pt x="290" y="444" on="1"/>
        <pt x="279" y="449" on="0"/>
        <pt x="235" y="458" on="0"/>
        <pt x="204" y="458" on="1"/>
      </contour>
      <contour>
        <pt x="105" y="145" on="0"/>
        <pt x="204" y="145" on="1"/>
        <pt x="235" y="145" on="0"/>
        <pt x="280" y="154" on="0"/>
        <pt x="290" y="158" on="1"/>
        <pt x="290" y="200" on="1"/>
        <pt x="105" y="343" on="1"/>
        <pt x="105" y="222" on="1"/>
      </contour>
    </TTGlyph>
    <TTGlyph name="dvB_SA" xMin="-22" yMin="-5" xMax="839" yMax="646">
      <contour>
        <pt x="839" y="600" on="1"/>
        <pt x="741" y="600" on="1"/>
        <pt x="741" y="0" on="1"/>
        <pt x="689" y="0" on="1"/>
        <pt x="689" y="294" on="1"/>
        <pt x="521" y="294" on="1"/>
        <pt x="485" y="258" on="0"/>
        <pt x="412" y="258" on="1"/>
        <pt x="376" y="258" on="0"/>
        <pt x="339" y="268" on="1"/>
        <pt x="339" y="136" on="1"/>
        <pt x="339" y="43" on="0"/>
        <pt x="454" y="43" on="1"/>
        <pt x="488" y="43" on="0"/>
        <pt x="536" y="50" on="0"/>
        <pt x="571" y="59" on="0"/>
        <pt x="577" y="60" on="1"/>
        <pt x="577" y="11" on="1"/>
        <pt x="516" y="-5" on="0"/>
        <pt x="452" y="-5" on="1"/>
        <pt x="388" y="-5" on="0"/>
        <pt x="304" y="45" on="0"/>
        <pt x="292" y="95" on="1"/>
        <pt x="257" y="72" on="0"/>
        <pt x="194" y="72" on="1"/>
        <pt x="121" y="72" on="0"/>
        <pt x="48" y="135" on="0"/>
        <pt x="48" y="194" on="1"/>
        <pt x="48" y="383" on="1"/>
        <pt x="48" y="442" on="0"/>
        <pt x="120" y="505" on="0"/>
        <pt x="192" y="505" on="1"/>
        <pt x="205" y="505" on="0"/>
        <pt x="223" y="503" on="0"/>
        <pt x="226" y="502" on="1"/>
        <pt x="226" y="455" on="1"/>
        <pt x="223" y="456" on="0"/>
        <pt x="205" y="458" on="0"/>
        <pt x="193" y="458" on="1"/>
        <pt x="145" y="458" on="0"/>
        <pt x="102" y="424" on="0"/>
        <pt x="100" y="392" on="1"/>
        <pt x="287" y="249" on="1"/>
        <pt x="287" y="450" on="1"/>
        <pt x="339" y="450" on="1"/>
        <pt x="339" y="316" on="1"/>
        <pt x="374" y="306" on="0"/>
        <pt x="411" y="306" on="1"/>
        <pt x="461" y="306" on="0"/>
        <pt x="501" y="347" on="0"/>
        <pt x="501" y="383" on="1"/>
        <pt x="501" y="527" on="1"/>
        <pt x="501" y="556" on="0"/>
        <pt x="494" y="595" on="0"/>
        <pt x="493" y="600" on="1"/>
        <pt x="-22" y="600" on="1"/>
        <pt x="-22" y="646" on="1"/>
        <pt x="839" y="646" on="1"/>
      </contour>
      <contour>
        <pt x="689" y="600" on="1"/>
        <pt x="545" y="600" on="1"/>
        <pt x="546" y="598" on="0"/>
        <pt x="549" y="582" on="0"/>
        <pt x="553" y="549" on="0"/>
        <pt x="553" y="527" on="1"/>
        <pt x="553" y="383" on="1"/>
        <pt x="553" y="362" on="0"/>
        <pt x="548" y="340" on="1"/>
        <pt x="689" y="340" on="1"/>
      </contour>
      <contour>
        <pt x="244" y="120" on="0"/>
        <pt x="287" y="157" on="0"/>
        <pt x="287" y="194" on="1"/>
        <pt x="287" y="199" on="1"/>
        <pt x="100" y="342" on="1"/>
        <pt x="100" y="194" on="1"/>
        <pt x="100" y="158" on="0"/>
        <pt x="142" y="120" on="0"/>
        <pt x="194" y="120" on="1"/>
      </contour>
    </TTGlyph>
    <TTGlyph name="dvB_SHA" xMin="-22" yMin="-4" xMax="833" yMax="651">
      <contour>
        <pt x="502" y="651" on="0"/>
        <pt x="574" y="585" on="0"/>
        <pt x="574" y="526" on="1"/>
        <pt x="574" y="382" on="1"/>
        <pt x="574" y="323" on="0"/>
        <pt x="503" y="258" on="0"/>
        <pt x="432" y="258" on="1"/>
        <pt x="383" y="258" on="0"/>
        <pt x="340" y="273" on="1"/>
        <pt x="340" y="138" on="1"/>
        <pt x="340" y="92" on="0"/>
        <pt x="403" y="44" on="0"/>
        <pt x="459" y="44" on="1"/>
        <pt x="513" y="44" on="0"/>
        <pt x="572" y="61" on="1"/>
        <pt x="572" y="12" on="1"/>
        <pt x="519" y="-4" on="0"/>
        <pt x="457" y="-4" on="1"/>
        <pt x="394" y="-4" on="0"/>
        <pt x="307" y="48" on="0"/>
        <pt x="293" y="96" on="1"/>
        <pt x="259" y="72" on="0"/>
        <pt x="194" y="72" on="1"/>
        <pt x="121" y="72" on="0"/>
        <pt x="48" y="135" on="0"/>
        <pt x="48" y="194" on="1"/>
        <pt x="48" y="383" on="1"/>
        <pt x="48" y="442" on="0"/>
        <pt x="120" y="505" on="0"/>
        <pt x="192" y="505" on="1"/>
        <pt x="208" y="505" on="0"/>
        <pt x="235" y="501" on="0"/>
        <pt x="239" y="500" on="1"/>
        <pt x="239" y="453" on="1"/>
        <pt x="235" y="454" on="0"/>
        <pt x="209" y="458" on="0"/>
        <pt x="193" y="458" on="1"/>
        <pt x="145" y="458" on="0"/>
        <pt x="102" y="424" on="0"/>
        <pt x="100" y="392" on="1"/>
        <pt x="287" y="249" on="1"/>
        <pt x="287" y="252" on="1"/>
        <pt x="288" y="252" on="1"/>
        <pt x="288" y="404" on="1"/>
        <pt x="340" y="404" on="1"/>
        <pt x="340" y="321" on="1"/>
        <pt x="387" y="306" on="0"/>
        <pt x="431" y="306" on="1"/>
        <pt x="481" y="306" on="0"/>
        <pt x="521" y="347" on="0"/>
        <pt x="521" y="383" on="1"/>
        <pt x="521" y="526" on="1"/>
        <pt x="521" y="562" on="0"/>
        <pt x="481" y="602" on="0"/>
        <pt x="431" y="602" on="1"/>
        <pt x="381" y="602" on="0"/>
        <pt x="340" y="562" on="0"/>
        <pt x="340" y="525" on="1"/>
        <pt x="340" y="510" on="0"/>
        <pt x="343" y="489" on="0"/>
        <pt x="343" y="488" on="1"/>
        <pt x="291" y="488" on="1"/>
        <pt x="291" y="489" on="0"/>
        <pt x="288" y="512" on="0"/>
        <pt x="288" y="526" on="1"/>
        <pt x="288" y="585" on="0"/>
        <pt x="360" y="651" on="0"/>
        <pt x="431" y="651" on="1"/>
      </contour>
      <contour>
        <pt x="232" y="600" on="1"/>
        <pt x="-22" y="600" on="1"/>
        <pt x="-22" y="646" on="1"/>
        <pt x="232" y="646" on="1"/>
      </contour>
      <contour>
        <pt x="833" y="646" on="1"/>
        <pt x="833" y="600" on="1"/>
        <pt x="734" y="600" on="1"/>
        <pt x="734" y="0" on="1"/>
        <pt x="682" y="0" on="1"/>
        <pt x="682" y="646" on="1"/>
      </contour>
      <contour>
        <pt x="244" y="120" on="0"/>
        <pt x="287" y="157" on="0"/>
        <pt x="287" y="194" on="1"/>
        <pt x="287" y="199" on="1"/>
        <pt x="100" y="342" on="1"/>
        <pt x="100" y="194" on="1"/>
        <pt x="100" y="158" on="0"/>
        <pt x="142" y="120" on="0"/>
        <pt x="194" y="120" on="1"/>
      </contour>
    </TTGlyph>
    <TTGlyph name="dvB_TA" xMin="-22" yMin="-1" xMax="683" yMax="646">
      <contour>
        <pt x="683" y="600" on="1"/>
        <pt x="585" y="600" on="1"/>
        <pt x="585" y="0" on="1"/>
        <pt x="532" y="0" on="1"/>
        <pt x="532" y="442" on="1"/>
        <pt x="478" y="456" on="0"/>
        <pt x="436" y="456" on="1"/>
        <pt x="340" y="456" on="0"/>
        <pt x="340" y="378" on="1"/>
        <pt x="340" y="119" on="1"/>
        <pt x="340" y="83" on="0"/>
        <pt x="380" y="47" on="0"/>
        <pt x="431" y="48" on="1"/>
        <pt x="431" y="-1" on="1"/>
        <pt x="412" y="-1" on="1"/>
        <pt x="357" y="-1" on="0"/>
        <pt x="295" y="48" on="0"/>
        <pt x="289" y="93" on="1"/>
        <pt x="255" y="72" on="0"/>
        <pt x="194" y="72" on="1"/>
        <pt x="121" y="72" on="0"/>
        <pt x="48" y="135" on="0"/>
        <pt x="48" y="194" on="1"/>
        <pt x="48" y="383" on="1"/>
        <pt x="48" y="442" on="0"/>
        <pt x="120" y="505" on="0"/>
        <pt x="192" y="505" on="1"/>
        <pt x="208" y="505" on="0"/>
        <pt x="235" y="501" on="0"/>
        <pt x="239" y="500" on="1"/>
        <pt x="239" y="453" on="1"/>
        <pt x="235" y="454" on="0"/>
        <pt x="209" y="458" on="0"/>
        <pt x="193" y="458" on="1"/>
        <pt x="145" y="458" on="0"/>
        <pt x="102" y="424" on="0"/>
        <pt x="100" y="392" on="1"/>
        <pt x="287" y="249" on="1"/>
        <pt x="287" y="378" on="1"/>
        <pt x="287" y="438" on="0"/>
        <pt x="363" y="504" on="0"/>
        <pt x="435" y="504" on="1"/>
        <pt x="482" y="504" on="0"/>
        <pt x="532" y="490" on="1"/>
        <pt x="532" y="600" on="1"/>
        <pt x="-22" y="600" on="1"/>
        <pt x="-22" y="646" on="1"/>
        <pt x="683" y="646" on="1"/>
      </contour>
      <contour>
        <pt x="244" y="120" on="0"/>
        <pt x="287" y="157" on="0"/>
        <pt x="287" y="194" on="1"/>
        <pt x="287" y="199" on="1"/>
        <pt x="100" y="342" on="1"/>
        <pt x="100" y="194" on="1"/>
        <pt x="100" y="158" on="0"/>
        <pt x="142" y="120" on="0"/>
        <pt x="194" y="120" on="1"/>
      </contour>
    </TTGlyph>
    <TTGlyph name="dvB_VA" xMin="-22" yMin="0" xMax="682" yMax="646">
      <contour>
        <pt x="682" y="600" on="1"/>
        <pt x="583" y="600" on="1"/>
        <pt x="583" y="0" on="1"/>
        <pt x="531" y="0" on="1"/>
        <pt x="531" y="86" on="1"/>
        <pt x="520" y="82" on="0"/>
        <pt x="466" y="72" on="0"/>
        <pt x="434" y="72" on="1"/>
        <pt x="350" y="72" on="0"/>
        <pt x="314" y="116" on="1"/>
        <pt x="279" y="72" on="0"/>
        <pt x="194" y="72" on="1"/>
        <pt x="121" y="72" on="0"/>
        <pt x="48" y="135" on="0"/>
        <pt x="48" y="194" on="1"/>
        <pt x="48" y="383" on="1"/>
        <pt x="48" y="442" on="0"/>
        <pt x="120" y="505" on="0"/>
        <pt x="192" y="505" on="1"/>
        <pt x="208" y="505" on="0"/>
        <pt x="235" y="501" on="0"/>
        <pt x="239" y="500" on="1"/>
        <pt x="239" y="453" on="1"/>
        <pt x="235" y="454" on="0"/>
        <pt x="209" y="458" on="0"/>
        <pt x="193" y="458" on="1"/>
        <pt x="145" y="458" on="0"/>
        <pt x="102" y="424" on="0"/>
        <pt x="100" y="392" on="1"/>
        <pt x="287" y="249" on="1"/>
        <pt x="287" y="378" on="1"/>
        <pt x="287" y="437" on="0"/>
        <pt x="363" y="505" on="0"/>
        <pt x="434" y="505" on="1"/>
        <pt x="466" y="505" on="0"/>
        <pt x="521" y="496" on="0"/>
        <pt x="531" y="492" on="1"/>
        <pt x="531" y="600" on="1"/>
        <pt x="-22" y="600" on="1"/>
        <pt x="-22" y="646" on="1"/>
        <pt x="682" y="646" on="1"/>
      </contour>
      <contour>
        <pt x="531" y="444" on="1"/>
        <pt x="522" y="448" on="0"/>
        <pt x="467" y="457" on="0"/>
        <pt x="436" y="457" on="1"/>
        <pt x="385" y="457" on="0"/>
        <pt x="339" y="413" on="0"/>
        <pt x="339" y="377" on="1"/>
        <pt x="339" y="200" on="1"/>
        <pt x="339" y="120" on="0"/>
        <pt x="436" y="120" on="1"/>
        <pt x="467" y="120" on="0"/>
        <pt x="521" y="130" on="0"/>
        <pt x="531" y="134" on="1"/>
      </contour>
      <contour>
        <pt x="244" y="120" on="0"/>
        <pt x="287" y="157" on="0"/>
        <pt x="287" y="194" on="1"/>
        <pt x="287" y="199" on="1"/>
        <pt x="100" y="342" on="1"/>
        <pt x="100" y="194" on="1"/>
        <pt x="100" y="158" on="0"/>
        <pt x="142" y="120" on="0"/>
        <pt x="194" y="120" on="1"/>
      </contour>
    </TTGlyph>
    <TTGlyph name="dvB_YA" xMin="-22" yMin="0" xMax="744" yMax="646">
      <contour>
        <pt x="744" y="600" on="1"/>
        <pt x="646" y="600" on="1"/>
        <pt x="646" y="0" on="1"/>
        <pt x="593" y="0" on="1"/>
        <pt x="593" y="97" on="1"/>
        <pt x="538" y="85" on="0"/>
        <pt x="478" y="85" on="1"/>
        <pt x="373" y="85" on="0"/>
        <pt x="326" y="135" on="1"/>
        <pt x="298" y="72" on="0"/>
        <pt x="194" y="72" on="1"/>
        <pt x="121" y="72" on="0"/>
        <pt x="48" y="135" on="0"/>
        <pt x="48" y="194" on="1"/>
        <pt x="48" y="383" on="1"/>
        <pt x="48" y="442" on="0"/>
        <pt x="120" y="505" on="0"/>
        <pt x="192" y="505" on="1"/>
        <pt x="208" y="505" on="0"/>
        <pt x="235" y="501" on="0"/>
        <pt x="239" y="500" on="1"/>
        <pt x="239" y="453" on="1"/>
        <pt x="235" y="454" on="0"/>
        <pt x="209" y="458" on="0"/>
        <pt x="193" y="458" on="1"/>
        <pt x="145" y="458" on="0"/>
        <pt x="102" y="424" on="0"/>
        <pt x="100" y="392" on="1"/>
        <pt x="287" y="249" on="1"/>
        <pt x="287" y="382" on="1"/>
        <pt x="307" y="382" on="1"/>
        <pt x="351" y="382" on="0"/>
        <pt x="398" y="394" on="0"/>
        <pt x="419" y="426" on="0"/>
        <pt x="419" y="456" on="1"/>
        <pt x="419" y="527" on="1"/>
        <pt x="419" y="556" on="0"/>
        <pt x="412" y="595" on="0"/>
        <pt x="411" y="600" on="1"/>
        <pt x="-22" y="600" on="1"/>
        <pt x="-22" y="646" on="1"/>
        <pt x="744" y="646" on="1"/>
      </contour>
      <contour>
        <pt x="593" y="600" on="1"/>
        <pt x="463" y="600" on="1"/>
        <pt x="464" y="598" on="0"/>
        <pt x="467" y="582" on="0"/>
        <pt x="471" y="549" on="0"/>
        <pt x="471" y="527" on="1"/>
        <pt x="471" y="454" on="1"/>
        <pt x="471" y="394" on="0"/>
        <pt x="402" y="337" on="0"/>
        <pt x="339" y="337" on="1"/>
        <pt x="339" y="256" on="1"/>
        <pt x="339" y="193" on="0"/>
        <pt x="406" y="134" on="0"/>
        <pt x="479" y="134" on="1"/>
        <pt x="538" y="134" on="0"/>
        <pt x="593" y="145" on="1"/>
      </contour>
      <contour>
        <pt x="244" y="120" on="0"/>
        <pt x="287" y="157" on="0"/>
        <pt x="287" y="194" on="1"/>
        <pt x="287" y="199" on="1"/>
        <pt x="100" y="342" on="1"/>
        <pt x="100" y="194" on="1"/>
        <pt x="100" y="158" on="0"/>
        <pt x="142" y="120" on="0"/>
        <pt x="194" y="120" on="1"/>
      </contour>
    </TTGlyph>
    <TTGlyph name="dvC" xMin="-31" yMin="63" xMax="339" yMax="646">
      <contour>
        <pt x="-31" y="600" on="1"/>
        <pt x="-31" y="646" on="1"/>
        <pt x="327" y="646" on="1"/>
        <pt x="327" y="600" on="1"/>
      </contour>
      <contour>
        <pt x="319" y="73" on="0"/>
        <pt x="254" y="63" on="0"/>
        <pt x="228" y="63" on="1"/>
        <pt x="155" y="63" on="0"/>
        <pt x="84" y="129" on="0"/>
        <pt x="84" y="189" on="1"/>
        <pt x="84" y="342" on="1"/>
        <pt x="84" y="369" on="0"/>
        <pt x="88" y="410" on="0"/>
        <pt x="92" y="430" on="0"/>
        <pt x="93" y="433" on="1"/>
        <pt x="3" y="433" on="1"/>
        <pt x="3" y="480" on="1"/>
        <pt x="262" y="480" on="1"/>
        <pt x="262" y="434" on="1"/>
        <pt x="146" y="434" on="1"/>
        <pt x="145" y="431" on="0"/>
        <pt x="140" y="410" on="0"/>
        <pt x="136" y="369" on="0"/>
        <pt x="136" y="342" on="1"/>
        <pt x="136" y="190" on="1"/>
        <pt x="136" y="150" on="0"/>
        <pt x="179" y="111" on="0"/>
        <pt x="230" y="111" on="1"/>
        <pt x="255" y="111" on="0"/>
        <pt x="315" y="120" on="0"/>
        <pt x="339" y="128" on="1"/>
        <pt x="339" y="80" on="1"/>
      </contour>
    </TTGlyph>
    <TTGlyph name="dvCA" xMin="-22" yMin="0" xMax="479" yMax="646">
      <contour>
        <pt x="145" y="150" on="0"/>
        <pt x="188" y="111" on="0"/>
        <pt x="239" y="111" on="1"/>
        <pt x="265" y="111" on="0"/>
        <pt x="305" y="118" on="0"/>
        <pt x="328" y="126" on="1"/>
        <pt x="328" y="600" on="1"/>
        <pt x="-22" y="600" on="1"/>
        <pt x="-22" y="646" on="1"/>
        <pt x="479" y="646" on="1"/>
        <pt x="479" y="600" on="1"/>
        <pt x="380" y="600" on="1"/>
        <pt x="380" y="0" on="1"/>
        <pt x="328" y="0" on="1"/>
        <pt x="328" y="78" on="1"/>
        <pt x="288" y="63" on="0"/>
        <pt x="237" y="63" on="1"/>
        <pt x="164" y="63" on="0"/>
        <pt x="93" y="129" on="0"/>
        <pt x="93" y="189" on="1"/>
        <pt x="93" y="342" on="1"/>
        <pt x="93" y="369" on="0"/>
        <pt x="97" y="409" on="0"/>
        <pt x="102" y="430" on="0"/>
        <pt x="103" y="433" on="1"/>
        <pt x="12" y="433" on="1"/>
        <pt x="12" y="480" on="1"/>
        <pt x="271" y="480" on="1"/>
        <pt x="271" y="434" on="1"/>
        <pt x="155" y="434" on="1"/>
        <pt x="154" y="431" on="0"/>
        <pt x="149" y="410" on="0"/>
        <pt x="145" y="369" on="0"/>
        <pt x="145" y="342" on="1"/>
        <pt x="145" y="190" on="1"/>
      </contour>
    </TTGlyph>
    <TTGlyph name="dvCH" xMin="-22" yMin="25" xMax="519" yMax="646">
      <contour>
        <pt x="441" y="494" on="0"/>
        <pt x="441" y="374" on="1"/>
        <pt x="441" y="168" on="1"/>
        <pt x="441" y="90" on="0"/>
        <pt x="355" y="25" on="0"/>
        <pt x="252" y="25" on="1"/>
        <pt x="150" y="25" on="0"/>
        <pt x="63" y="90" on="0"/>
        <pt x="63" y="166" on="1"/>
        <pt x="63" y="203" on="1"/>
        <pt x="63" y="239" on="0"/>
        <pt x="93" y="290" on="0"/>
        <pt x="126" y="298" on="1"/>
        <pt x="93" y="309" on="0"/>
        <pt x="69" y="357" on="0"/>
        <pt x="69" y="395" on="1"/>
        <pt x="69" y="527" on="1"/>
        <pt x="69" y="558" on="0"/>
        <pt x="84" y="592" on="0"/>
        <pt x="100" y="600" on="1"/>
        <pt x="-22" y="600" on="1"/>
        <pt x="-22" y="646" on="1"/>
        <pt x="519" y="646" on="1"/>
        <pt x="519" y="600" on="1"/>
        <pt x="196" y="600" on="1"/>
        <pt x="158" y="600" on="0"/>
        <pt x="121" y="566" on="0"/>
        <pt x="121" y="526" on="1"/>
        <pt x="121" y="395" on="1"/>
        <pt x="121" y="359" on="0"/>
        <pt x="157" y="324" on="0"/>
        <pt x="208" y="323" on="1"/>
        <pt x="258" y="323" on="1"/>
        <pt x="258" y="275" on="1"/>
        <pt x="209" y="275" on="1"/>
        <pt x="157" y="275" on="0"/>
        <pt x="115" y="238" on="0"/>
        <pt x="115" y="202" on="1"/>
        <pt x="115" y="167" on="1"/>
        <pt x="115" y="130" on="0"/>
        <pt x="138" y="90" on="0"/>
        <pt x="196" y="73" on="0"/>
        <pt x="252" y="73" on="1"/>
        <pt x="308" y="73" on="0"/>
        <pt x="366" y="90" on="0"/>
        <pt x="389" y="131" on="0"/>
        <pt x="389" y="168" on="1"/>
        <pt x="389" y="372" on="1"/>
        <pt x="389" y="410" on="0"/>
        <pt x="357" y="446" on="0"/>
        <pt x="310" y="446" on="1"/>
        <pt x="291" y="446" on="0"/>
        <pt x="254" y="436" on="0"/>
        <pt x="254" y="435" on="1"/>
        <pt x="254" y="485" on="1"/>
        <pt x="259" y="487" on="0"/>
        <pt x="293" y="494" on="0"/>
        <pt x="312" y="494" on="1"/>
      </contour>
    </TTGlyph>
    <TTGlyph name="dvCHA" xMin="-22" yMin="25" xMax="520" yMax="646">
      <contour>
        <pt x="69" y="549" on="0"/>
        <pt x="73" y="581" on="0"/>
        <pt x="78" y="598" on="0"/>
        <pt x="79" y="600" on="1"/>
        <pt x="-22" y="600" on="1"/>
        <pt x="-22" y="646" on="1"/>
        <pt x="520" y="646" on="1"/>
        <pt x="520" y="600" on="1"/>
        <pt x="364" y="600" on="1"/>
        <pt x="364" y="487" on="1"/>
        <pt x="440" y="470" on="0"/>
        <pt x="440" y="374" on="1"/>
        <pt x="440" y="168" on="1"/>
        <pt x="440" y="90" on="0"/>
        <pt x="354" y="25" on="0"/>
        <pt x="252" y="25" on="1"/>
        <pt x="150" y="25" on="0"/>
        <pt x="63" y="90" on="0"/>
        <pt x="63" y="166" on="1"/>
        <pt x="63" y="203" on="1"/>
        <pt x="63" y="239" on="0"/>
        <pt x="92" y="290" on="0"/>
        <pt x="125" y="298" on="1"/>
        <pt x="93" y="309" on="0"/>
        <pt x="69" y="357" on="0"/>
        <pt x="69" y="395" on="1"/>
        <pt x="69" y="527" on="1"/>
      </contour>
      <contour>
        <pt x="121" y="359" on="0"/>
        <pt x="157" y="324" on="0"/>
        <pt x="208" y="323" on="1"/>
        <pt x="257" y="323" on="1"/>
        <pt x="257" y="275" on="1"/>
        <pt x="208" y="275" on="1"/>
        <pt x="157" y="275" on="0"/>
        <pt x="115" y="238" on="0"/>
        <pt x="115" y="202" on="1"/>
        <pt x="115" y="167" on="1"/>
        <pt x="115" y="130" on="0"/>
        <pt x="138" y="90" on="0"/>
        <pt x="196" y="73" on="0"/>
        <pt x="252" y="73" on="1"/>
        <pt x="308" y="73" on="0"/>
        <pt x="365" y="90" on="0"/>
        <pt x="388" y="131" on="0"/>
        <pt x="388" y="168" on="1"/>
        <pt x="388" y="372" on="1"/>
        <pt x="388" y="410" on="0"/>
        <pt x="357" y="446" on="0"/>
        <pt x="310" y="446" on="1"/>
        <pt x="291" y="446" on="0"/>
        <pt x="258" y="439" on="0"/>
        <pt x="254" y="438" on="1"/>
        <pt x="254" y="485" on="1"/>
        <pt x="259" y="487" on="0"/>
        <pt x="294" y="494" on="0"/>
        <pt x="316" y="494" on="1"/>
        <pt x="316" y="600" on="1"/>
        <pt x="131" y="600" on="1"/>
        <pt x="130" y="598" on="0"/>
        <pt x="126" y="581" on="0"/>
        <pt x="121" y="547" on="0"/>
        <pt x="121" y="527" on="1"/>
        <pt x="121" y="395" on="1"/>
      </contour>
    </TTGlyph>
    <TTGlyph name="dvCH_R" xMin="-22" yMin="-301" xMax="520" yMax="646">
      <component glyphName="dvCHA" x="0" y="0" flags="0x0"/>
      <component glyphName="dvRashtrasign" x="470" y="21" flags="0x4"/>
      <component glyphName="dvVirama" x="357" y="-97" flags="0x4"/>
    </TTGlyph>
    <TTGlyph name="dvCH_RA" xMin="-22" yMin="-130" xMax="520" yMax="646">
      <component glyphName="dvCHA" x="0" y="0" flags="0x0"/>
      <component glyphName="dvRashtrasign" x="470" y="21" flags="0x4"/>
    </TTGlyph>
    <TTGlyph name="dvCH_R_YA" xMin="-22" yMin="-130" xMax="1011" yMax="646">
      <contour>
        <pt x="1011" y="600" on="1"/>
        <pt x="912" y="600" on="1"/>
        <pt x="912" y="0" on="1"/>
        <pt x="860" y="0" on="1"/>
        <pt x="860" y="92" on="1"/>
        <pt x="790" y="81" on="0"/>
        <pt x="739" y="81" on="1"/>
        <pt x="654" y="81" on="0"/>
        <pt x="553" y="156" on="0"/>
        <pt x="553" y="250" on="1"/>
        <pt x="553" y="296" on="1"/>
        <pt x="578" y="296" on="1"/>
        <pt x="639" y="296" on="0"/>
        <pt x="686" y="325" on="0"/>
        <pt x="686" y="367" on="1"/>
        <pt x="686" y="375" on="1"/>
        <pt x="686" y="411" on="0"/>
        <pt x="654" y="446" on="0"/>
        <pt x="610" y="446" on="1"/>
        <pt x="424" y="446" on="1"/>
        <pt x="440" y="418" on="0"/>
        <pt x="440" y="374" on="1"/>
        <pt x="440" y="168" on="1"/>
        <pt x="440" y="101" on="0"/>
        <pt x="378" y="35" on="0"/>
        <pt x="308" y="28" on="1"/>
        <pt x="394" y="-130" on="1"/>
        <pt x="338" y="-130" on="1"/>
        <pt x="256" y="25" on="1"/>
        <pt x="254" y="25" on="1"/>
        <pt x="172" y="-130" on="1"/>
        <pt x="116" y="-130" on="1"/>
        <pt x="202" y="27" on="1"/>
        <pt x="128" y="34" on="0"/>
        <pt x="63" y="100" on="0"/>
        <pt x="63" y="166" on="1"/>
        <pt x="63" y="203" on="1"/>
        <pt x="63" y="239" on="0"/>
        <pt x="92" y="290" on="0"/>
        <pt x="125" y="298" on="1"/>
        <pt x="93" y="309" on="0"/>
        <pt x="69" y="357" on="0"/>
        <pt x="69" y="395" on="1"/>
        <pt x="69" y="527" on="1"/>
        <pt x="69" y="549" on="0"/>
        <pt x="73" y="581" on="0"/>
        <pt x="78" y="598" on="0"/>
        <pt x="79" y="600" on="1"/>
        <pt x="-22" y="600" on="1"/>
        <pt x="-22" y="646" on="1"/>
        <pt x="1011" y="646" on="1"/>
      </contour>
      <contour>
        <pt x="388" y="372" on="1"/>
        <pt x="388" y="410" on="0"/>
        <pt x="357" y="446" on="0"/>
        <pt x="310" y="446" on="1"/>
        <pt x="291" y="446" on="0"/>
        <pt x="258" y="439" on="0"/>
        <pt x="254" y="438" on="1"/>
        <pt x="254" y="485" on="1"/>
        <pt x="259" y="487" on="0"/>
        <pt x="294" y="494" on="0"/>
        <pt x="316" y="494" on="1"/>
        <pt x="316" y="600" on="1"/>
        <pt x="131" y="600" on="1"/>
        <pt x="130" y="598" on="0"/>
        <pt x="126" y="581" on="0"/>
        <pt x="121" y="547" on="0"/>
        <pt x="121" y="527" on="1"/>
        <pt x="121" y="395" on="1"/>
        <pt x="121" y="359" on="0"/>
        <pt x="157" y="324" on="0"/>
        <pt x="208" y="323" on="1"/>
        <pt x="257" y="323" on="1"/>
        <pt x="257" y="275" on="1"/>
        <pt x="208" y="275" on="1"/>
        <pt x="157" y="275" on="0"/>
        <pt x="115" y="238" on="0"/>
        <pt x="115" y="202" on="1"/>
        <pt x="115" y="167" on="1"/>
        <pt x="115" y="130" on="0"/>
        <pt x="138" y="90" on="0"/>
        <pt x="196" y="73" on="0"/>
        <pt x="252" y="73" on="1"/>
        <pt x="308" y="73" on="0"/>
        <pt x="365" y="90" on="0"/>
        <pt x="388" y="131" on="0"/>
        <pt x="388" y="168" on="1"/>
      </contour>
      <contour>
        <pt x="860" y="600" on="1"/>
        <pt x="364" y="600" on="1"/>
        <pt x="364" y="495" on="1"/>
        <pt x="610" y="495" on="1"/>
        <pt x="738" y="495" on="0"/>
        <pt x="738" y="376" on="1"/>
        <pt x="738" y="366" on="1"/>
        <pt x="738" y="307" on="0"/>
        <pt x="668" y="250" on="0"/>
        <pt x="605" y="250" on="1"/>
        <pt x="605" y="249" on="1"/>
        <pt x="605" y="187" on="0"/>
        <pt x="667" y="129" on="0"/>
        <pt x="739" y="129" on="1"/>
        <pt x="794" y="129" on="0"/>
        <pt x="860" y="141" on="1"/>
      </contour>
    </TTGlyph>
</ttFont>
